<?xml version="1.0" encoding="UTF-8" standalone="no"?>
<!-- Created with Inkscape (http://www.inkscape.org/) -->

<svg
   xmlns:dc="http://purl.org/dc/elements/1.1/"
   xmlns:cc="http://creativecommons.org/ns#"
   xmlns:rdf="http://www.w3.org/1999/02/22-rdf-syntax-ns#"
   xmlns:svg="http://www.w3.org/2000/svg"
   xmlns="http://www.w3.org/2000/svg"
   xmlns:sodipodi="http://sodipodi.sourceforge.net/DTD/sodipodi-0.dtd"
   xmlns:inkscape="http://www.inkscape.org/namespaces/inkscape"
   width="57.423946mm"
   height="27.232176mm"
   viewBox="0 0 203.47068 96.491965"
   id="svg2"
   version="1.1"
   inkscape:version="0.91 r13725"
   sodipodi:docname="logotype.svg"
   inkscape:export-filename="/home/smika/versioned/github/simonmika/simonmika.com/static/img/logotype.png"
   inkscape:export-xdpi="90"
   inkscape:export-ydpi="90">
  <defs
     id="defs4" />
  <sodipodi:namedview
     id="base"
     pagecolor="#ffffff"
     bordercolor="#666666"
     borderopacity="1.0"
     inkscape:pageopacity="0.0"
     inkscape:pageshadow="2"
     inkscape:zoom="1.16"
     inkscape:cx="2.1403259"
     inkscape:cy="63.610075"
     inkscape:document-units="px"
     inkscape:current-layer="layer1"
     showgrid="false"
     fit-margin-top="0"
     fit-margin-left="0"
     fit-margin-right="0"
     fit-margin-bottom="0"
     inkscape:window-width="1399"
     inkscape:window-height="876"
     inkscape:window-x="41"
     inkscape:window-y="24"
     inkscape:window-maximized="1" />
  <metadata
     id="metadata7">
    <rdf:RDF>
      <cc:Work
         rdf:about="">
        <dc:format>image/svg+xml</dc:format>
        <dc:type
           rdf:resource="http://purl.org/dc/dcmitype/StillImage" />
        <dc:title></dc:title>
      </cc:Work>
    </rdf:RDF>
  </metadata>
  <g
     inkscape:label="Layer 1"
     inkscape:groupmode="layer"
     id="layer1"
     transform="translate(1132.6233,-79.393916)">
    <g
       style="font-style:normal;font-variant:normal;font-weight:300;font-stretch:normal;font-size:83.72344208px;line-height:125%;font-family:Ubuntu;-inkscape-font-specification:'Ubuntu Light';text-align:end;letter-spacing:0px;word-spacing:0px;text-anchor:end;fill:#2e3436;fill-opacity:1;stroke:none;stroke-width:1px;stroke-linecap:butt;stroke-linejoin:miter;stroke-opacity:1"
       id="text4146" />
    <g
       style="font-style:normal;font-variant:normal;font-weight:normal;font-stretch:normal;font-size:36.99356079px;line-height:124.00000095%;font-family:'URW Gothic L';-inkscape-font-specification:'URW Gothic L';text-align:end;letter-spacing:0px;word-spacing:0px;text-anchor:end;fill:#2e3436;fill-opacity:1;stroke:none;stroke-width:1px;stroke-linecap:butt;stroke-linejoin:miter;stroke-opacity:1"
       id="text4150">
      <path
         id="path4188"
         style="font-style:normal;font-variant:normal;font-weight:500;font-stretch:normal;line-height:124.00000095%;font-family:ubuntu;-inkscape-font-specification:'ubuntu Medium';text-align:end;letter-spacing:0.03632491px;text-anchor:end;fill:#2e3436"
         d="m -937.03225,165.74964 q 1.77569,0 2.58955,-0.40693 0.81385,-0.44392 0.81385,-1.47974 0,-0.96184 -0.88784,-1.59073 -0.85085,-0.62889 -2.84851,-1.36876 -1.22078,-0.44392 -2.2566,-0.92484 -0.99883,-0.51791 -1.7387,-1.18379 -0.73987,-0.66588 -1.18379,-1.59072 -0.40693,-0.96184 -0.40693,-2.3306 0,-2.66353 1.96066,-4.18027 1.96065,-1.55373 5.32707,-1.55373 1.7017,0 3.25543,0.33294 1.55373,0.29595 2.3306,0.5919 l -0.81386,3.62537 q -0.73987,-0.33294 -1.88667,-0.5919 -1.1468,-0.29595 -2.66354,-0.29595 -1.36876,0 -2.21961,0.48092 -0.85086,0.44392 -0.85086,1.40575 0,0.48092 0.14798,0.85086 0.18497,0.36993 0.5919,0.70287 0.40692,0.29595 1.07281,0.62889 0.66588,0.29595 1.62772,0.62889 1.59072,0.5919 2.70053,1.1838 1.1098,0.5549 1.81268,1.29477 0.73987,0.70288 1.07281,1.62772 0.33294,0.92484 0.33294,2.21961 0,2.77452 -2.07163,4.21727 -2.03465,1.40575 -5.84499,1.40575 -2.55255,0 -4.10628,-0.44392 -1.55373,-0.40693 -2.18262,-0.66588 l 0.77686,-3.73635 q 0.99883,0.40693 2.36759,0.77686 1.40576,0.36994 3.18145,0.36994 z m -8.30555,-16.12919 q -2.99648,11.02408 -6.95479,19.97652 -0.73987,1.66471 -1.51673,2.8485 -0.77687,1.1838 -1.7387,1.96066 -0.96183,0.77687 -2.14563,1.10981 -1.18379,0.36993 -2.73752,0.36993 -1.03582,0 -2.07164,-0.22196 -0.99883,-0.22196 -1.51674,-0.48091 l 0.81386,-3.58838 q 1.33177,0.51791 2.62655,0.51791 1.73869,0 2.70053,-0.85085 0.99882,-0.81386 1.73869,-2.55256 -2.10863,-4.06929 -4.06929,-8.87845 -1.92366,-4.80916 -3.4404,-10.21022 l 4.77217,0 q 0.36993,1.55373 0.88784,3.36641 0.55491,1.81268 1.1838,3.69936 0.62889,1.84967 1.33177,3.69935 0.70287,1.84968 1.40575,3.4404 1.1838,-3.29242 2.21962,-6.99178 1.03582,-3.73635 1.88667,-7.21374 l 4.62419,0 z m -28.24507,16.20318 q 2.07164,0 3.14446,-0.22197 l 0,-4.95713 q -0.36994,-0.11098 -1.07282,-0.22196 -0.70288,-0.11098 -1.55373,-0.11098 -0.73987,0 -1.51673,0.11098 -0.73987,0.11098 -1.36877,0.40693 -0.59189,0.29594 -0.96183,0.85085 -0.36993,0.51791 -0.36993,1.33177 0,1.59072 0.99882,2.21961 0.99883,0.5919 2.70053,0.5919 z m -0.36993,-16.6841 q 2.21961,0 3.73635,0.5549 1.51673,0.55491 2.40458,1.55373 0.92484,0.99883 1.29477,2.44158 0.40693,1.40575 0.40693,3.10746 l 0,11.72696 q -1.03582,0.22196 -3.14445,0.51791 -2.07164,0.33294 -4.69818,0.33294 -1.7387,0 -3.18145,-0.33294 -1.44275,-0.33295 -2.47857,-1.07282 -0.99882,-0.73987 -1.59072,-1.92366 -0.5549,-1.1838 -0.5549,-2.92249 0,-1.66471 0.62889,-2.81151 0.66588,-1.1468 1.77569,-1.84968 1.1098,-0.73987 2.55255,-1.03582 1.47975,-0.33294 3.07047,-0.33294 0.73987,0 1.55373,0.11098 0.81386,0.074 1.7387,0.29594 l 0,-0.73987 q 0,-0.77686 -0.18497,-1.47974 -0.18497,-0.70288 -0.66589,-1.22079 -0.44392,-0.5549 -1.22078,-0.85085 -0.73988,-0.29595 -1.88668,-0.29595 -1.55373,0 -2.8485,0.22196 -1.29477,0.22197 -2.10863,0.51791 l -0.55491,-3.62536 q 0.85086,-0.29595 2.47857,-0.5919 1.62772,-0.29595 3.4774,-0.29595 z m -18.53426,16.61011 q 1.77569,0 2.58954,-0.40693 0.81386,-0.44392 0.81386,-1.47974 0,-0.96184 -0.88784,-1.59073 -0.85085,-0.62889 -2.84851,-1.36876 -1.22078,-0.44392 -2.2566,-0.92484 -0.99883,-0.51791 -1.7387,-1.18379 -0.73987,-0.66588 -1.1838,-1.59072 -0.40692,-0.96184 -0.40692,-2.3306 0,-2.66353 1.96065,-4.18027 1.96066,-1.55373 5.32708,-1.55373 1.7017,0 3.25543,0.33294 1.55373,0.29595 2.33059,0.5919 l -0.81385,3.62537 q -0.73987,-0.33294 -1.88668,-0.5919 -1.1468,-0.29595 -2.66353,-0.29595 -1.36876,0 -2.21962,0.48092 -0.85085,0.44392 -0.85085,1.40575 0,0.48092 0.14798,0.85086 0.18496,0.36993 0.59189,0.70287 0.40693,0.29595 1.07282,0.62889 0.66588,0.29595 1.62771,0.62889 1.59073,0.5919 2.70053,1.1838 1.10981,0.5549 1.81269,1.29477 0.73987,0.70288 1.07281,1.62772 0.33294,0.92484 0.33294,2.21961 0,2.77452 -2.07164,4.21727 -2.03464,1.40575 -5.84498,1.40575 -2.55255,0 -4.10628,-0.44392 -1.55373,-0.40693 -2.18262,-0.66588 l 0.77686,-3.73635 q 0.99883,0.40693 2.36759,0.77686 1.40575,0.36994 3.18145,0.36994 z m 29.59385,-67.601673 q 2.42798,-0.669788 6.53043,-1.507022 4.10245,-0.837235 10.04681,-0.837235 4.93969,0 8.2049,1.423299 3.34894,1.423298 5.27458,4.102451 2.00936,2.59542 2.84659,6.27926 0.83724,3.68383 0.83724,8.12117 l 0,24.19607 -5.44202,0 0,-22.43788 q 0,-4.60479 -0.66979,-7.78628 -0.58607,-3.18149 -2.09309,-5.19085 -1.4233,-2.00936 -3.85128,-2.8466 -2.34425,-0.92096 -5.94436,-0.92096 -3.85128,0 -6.69788,0.41862 -2.76287,0.41862 -3.6001,0.75351 l 0,38.01044 -5.44203,0 0,-41.777993 z m -7.1202,20.177353 q 0,5.10713 -1.50702,9.2933 -1.4233,4.18617 -4.10245,7.11649 -2.59542,2.93032 -6.19553,4.60479 -3.60011,1.59075 -7.95373,1.59075 -4.35362,0 -7.95373,-1.59075 -3.60013,-1.67447 -6.27923,-4.60479 -2.5955,-2.93032 -4.1025,-7.11649 -1.4233,-4.18617 -1.4233,-9.2933 0,-5.10713 1.4233,-9.29331 1.507,-4.18617 4.1025,-7.11649 2.6791,-3.014042 6.27923,-4.604788 3.60011,-1.674469 7.95373,-1.674469 4.35362,0 7.95373,1.674469 3.60011,1.590746 6.19553,4.604788 2.67915,2.93032 4.10245,7.11649 1.50702,4.18618 1.50702,9.29331 z m -5.77691,0 q 0,-8.12118 -3.76756,-12.89341 -3.76755,-4.85596 -10.21426,-4.85596 -6.4467,0 -10.21426,4.85596 -3.7676,4.77223 -3.7676,12.89341 0,8.12117 3.7676,12.89341 3.76756,4.77223 10.21426,4.77223 6.44671,0 10.21426,-4.77223 3.76756,-4.77224 3.76756,-12.89341 z m -98.73458,-20.177353 q 2.428,-0.669788 6.2793,-1.507022 3.935,-0.837235 10.1305,-0.837235 8.2049,0 11.8887,4.77224 0.4186,-0.3349 1.5908,-1.088408 1.2558,-0.837235 3.0977,-1.674469 1.8419,-0.837234 4.2699,-1.423299 2.5117,-0.586064 5.5258,-0.586064 4.9397,0 7.9537,1.507022 3.0978,1.423299 4.7722,4.102448 1.6745,2.59543 2.2606,6.27926 0.586,3.68383 0.586,8.03745 l 0,24.19607 -5.442,0 0,-22.43788 q 0,-4.26989 -0.4186,-7.36766 -0.3349,-3.18149 -1.507,-5.19085 -1.0884,-2.09309 -3.1815,-3.09777 -2.0931,-1.08841 -5.442,-1.08841 -2.5117,0 -4.6048,0.50234 -2.0094,0.41862 -3.5164,1.08841 -1.507,0.66979 -2.5117,1.33957 -0.921,0.66979 -1.3396,1.00469 0.7535,2.1768 1.0884,4.93968 0.4186,2.67915 0.4186,5.69319 l 0,24.61469 -5.442,0 0,-22.43788 q 0,-4.26989 -0.4186,-7.36766 -0.3349,-3.18149 -1.507,-5.19085 -1.1722,-2.09309 -3.349,-3.09777 -2.0931,-1.08841 -5.6094,-1.08841 -3.935,0 -6.6979,0.41862 -2.6792,0.41862 -3.4327,0.75351 l 0,38.01044 -5.442,0 0,-41.777993 z m -9.6568,41.777993 -5.442,0 0,-43.285015 5.442,0 0,43.285015 z m 1.2559,-56.345872 q 0,1.925639 -1.1721,3.097767 -1.1722,1.088405 -2.8466,1.088405 -1.6745,0 -2.8466,-1.088405 -1.1722,-1.172128 -1.1722,-3.097767 0,-1.925639 1.1722,-3.014044 1.1721,-1.172128 2.8466,-1.172128 1.6744,0 2.8466,1.172128 1.1721,1.088405 1.1721,3.014044 z m -32.5342,52.662042 q 6.7816,0 10.5492,-2.42798 3.7675,-2.5117 3.7675,-8.03745 0,-3.18149 -1.2558,-5.27457 -1.1722,-2.17681 -3.1815,-3.60011 -2.0094,-1.50702 -4.6048,-2.51171 -2.5955,-1.0884 -5.442,-2.26053 -3.6002,-1.4233 -6.4468,-2.93032 -2.8466,-1.50702 -4.8559,-3.34894 -2.0094,-1.92564 -3.0978,-4.35362 -1.0047,-2.427975 -1.0047,-5.69319 0,-7.451386 4.9397,-11.302664 4.9397,-3.851279 13.7307,-3.851279 2.3442,0 4.6048,0.334894 2.2605,0.334894 4.1861,0.920958 2.0094,0.502341 3.6001,1.172128 1.6745,0.669788 2.7629,1.423299 l -2.0094,4.772236 q -2.4279,-1.674469 -5.9443,-2.67915 -3.4327,-1.004682 -7.4514,-1.004682 -2.7629,0 -5.1071,0.586065 -2.2606,0.50234 -3.935,1.758192 -1.6745,1.172128 -2.6792,3.014044 -0.9209,1.841915 -0.9209,4.437342 0,2.67915 1.0046,4.521066 1.0047,1.841911 2.7629,3.181491 1.8419,1.33957 4.2699,2.42798 2.428,1.0884 5.2746,2.26053 3.4326,1.4233 6.4467,2.8466 3.0978,1.4233 5.3583,3.34894 2.2605,1.92564 3.6001,4.68851 1.3396,2.76287 1.3396,6.7816 0,7.87 -5.5258,11.805 -5.442,3.93501 -14.819,3.93501 -3.349,0 -6.1118,-0.41862 -2.7629,-0.41862 -4.9397,-1.00468 -2.1768,-0.66979 -3.6839,-1.33958 -1.507,-0.66979 -2.3442,-1.17213 l 1.8419,-4.93968 q 0.8372,0.50234 2.2605,1.17213 1.4233,0.66979 3.349,1.33957 1.9256,0.58607 4.3536,1.00469 2.428,0.41861 5.3583,0.41861 z" />
    </g>
  </g>
</svg>
