<?xml version="1.0" encoding="UTF-8" standalone="no"?>
<svg
   xmlns:svg="http://www.w3.org/2000/svg"
   xmlns="http://www.w3.org/2000/svg"
   id="cogneco-v2w-document"
   height="35mm"
   width="30mm"
   version="1.1">
  <path
     id="cogneco-v2w"
     fill="#ffffff"
     d="m 47.212958,95.742508 0,14.553662 2.744046,0 0,-8.09141 9.371261,9.04291 0,-14.671662 -2.744066,0 0,8.210932 -9.371241,-9.044432 z m 38.504611,0.830481 c -3.772872,0 -6.860172,3.087248 -6.860172,6.860081 0,1.0063 0.225017,1.96087 0.618712,2.82421 -0.748351,0.79498 -1.805417,1.29487 -2.995182,1.29487 -2.289711,0 -4.116088,-1.82635 -4.116088,-4.11606 0,-2.28969 1.826357,-4.117545 4.116088,-4.117545 0.700011,0 1.355763,0.172396 1.930215,0.474988 0.415075,-0.82578 0.963088,-1.573143 1.62012,-2.211568 -1.038347,-0.634045 -2.251452,-1.007457 -3.550335,-1.007457 -3.772872,0 -6.860153,3.088769 -6.860153,6.861582 0,1.09337 0.265996,2.12531 0.726091,3.04507 -0.729671,0.66586 -1.702459,1.07099 -2.778845,1.07099 -1.806817,0 -3.321578,-1.13929 -3.881631,-2.74403 l 4.74236,0 c -0.0766,-0.44711 -0.125598,-0.90398 -0.125598,-1.37203 0,-0.46821 0.049,-0.9247 0.125598,-1.37201 l -4.74236,0 c 0.560053,-1.60514 2.074814,-2.745535 3.881631,-2.745535 0.595712,0 1.159525,0.124597 1.668519,0.347911 0.434334,-0.82834 1.009087,-1.569903 1.688198,-2.202488 -0.994387,-0.563067 -2.138553,-0.88946 -3.356717,-0.88946 -3.772872,0 -6.860153,3.088769 -6.860153,6.861582 0,3.77283 3.087281,6.86008 6.860153,6.86008 1.699738,0 3.253079,-0.63199 4.451923,-1.66698 1.202225,1.03513 2.759825,1.66698 4.460984,1.66698 1.777537,0 3.391837,-0.69605 4.612261,-1.81674 1.222545,1.12229 2.844564,1.81524 4.624381,1.81524 3.772853,0 6.860153,-3.08877 6.860153,-6.8616 0,-3.772833 -3.0873,-6.860081 -6.860153,-6.860081 z m -65.134432,0.0015 c -3.772872,0 -6.860153,3.088789 -6.860153,6.861602 0,3.77283 3.087281,6.86008 6.860153,6.86008 1.764257,0 3.368857,-0.68521 4.586561,-1.79102 1.220005,1.10827 2.832564,1.79102 4.600162,1.79102 2.275031,0 4.295725,-1.12685 5.54559,-2.84537 1.250344,1.71838 3.270678,2.84537 5.545609,2.84537 1.886436,0 3.601794,-0.77148 4.845219,-2.01489 l -0.01,-0.01 0.004,0 0,-4.4307 -2.744046,0 0,3.14339 c -0.612512,0.35995 -1.326663,0.56876 -2.095113,0.56876 -2.289731,0 -4.117608,-1.82633 -4.117608,-4.11604 0,-2.28971 1.827877,-4.117565 4.117608,-4.117565 1.144866,0 2.173693,0.456389 2.916503,1.199575 l 1.928716,-1.927179 c -1.243465,-1.243831 -2.958823,-2.016473 -4.845259,-2.016473 -2.275071,0 -4.295285,1.127894 -5.545609,2.846914 -1.249865,-1.71918 -3.270399,-2.846914 -5.54561,-2.846914 -3.772852,0 -6.861653,3.088788 -6.861653,6.861602 0,1.02061 0.232377,1.98779 0.636852,2.86051 -0.74631,0.77308 -1.790857,1.25553 -2.961902,1.25553 -2.289731,0 -4.116088,-1.82633 -4.116088,-4.11604 0,-2.28971 1.826357,-4.117565 4.116088,-4.117565 0.684251,0 1.325783,0.165396 1.890896,0.455329 0.417934,-0.826141 0.967347,-1.574043 1.627679,-2.211569 -1.031587,-0.622105 -2.233012,-0.987797 -3.518575,-0.987797 z m 65.134432,2.742537 c 2.289711,0 4.116088,1.826335 4.116088,4.116045 0,2.28971 -1.826377,4.11756 -4.116088,4.11756 -2.28973,0 -4.116107,-1.82785 -4.116107,-4.11756 0,-2.28971 1.826377,-4.116045 4.116107,-4.116045 z m -55.947709,0.0015 c 2.289711,0 4.116088,1.827855 4.116088,4.117565 0,2.28971 -1.826377,4.11604 -4.116088,4.11604 -2.289731,0 -4.116108,-1.82633 -4.116108,-4.11604 0,-2.28971 1.826377,-4.117565 4.116108,-4.117565 z M 53.149123,17.718806 c -19.526932,0 -35.43313,15.906049 -35.43313,35.432774 0,19.526725 15.906198,35.432775 35.43313,35.432775 19.526932,0 35.43315,-15.90605 35.43315,-35.432775 0,-19.526725 -15.906218,-35.432774 -35.43315,-35.432774 z m -5.706947,7.656081 5.558509,29.61649 -4.300725,0.808582 2.574187,13.683281 -8.941287,1.675741 1.652319,8.808374 C 32.815081,76.168184 24.805743,65.634849 24.805743,53.15158 c 0,-13.74164 9.690337,-25.148214 22.636433,-27.776693 z m 16.238073,1.460906 c 10.451848,4.168943 17.816174,14.347306 17.816174,26.315787 0,13.30357 -9.098484,24.387912 -21.425508,27.46812 L 58.293598,71.158981 67.234884,69.47152 64.672417,55.799959 68.973142,54.991377 63.680249,26.835793 Z m -16.148235,16.612893 -6.433518,1.433547 6.265541,3.058529 0.167997,-4.492076 z m 15.511523,0.289054 -0.136798,3.589756 -5.015576,-2.445263 5.152294,-1.144493 z" />
</svg>
