<?xml version="1.0" encoding="UTF-8" standalone="no"?>
<!-- Created with Inkscape (http://www.inkscape.org/) -->

<svg
   xmlns:dc="http://purl.org/dc/elements/1.1/"
   xmlns:cc="http://creativecommons.org/ns#"
   xmlns:rdf="http://www.w3.org/1999/02/22-rdf-syntax-ns#"
   xmlns:svg="http://www.w3.org/2000/svg"
   xmlns="http://www.w3.org/2000/svg"
   xmlns:sodipodi="http://sodipodi.sourceforge.net/DTD/sodipodi-0.dtd"
   xmlns:inkscape="http://www.inkscape.org/namespaces/inkscape"
   width="76.5"
   height="99"
   viewBox="0 0 76.500002 98.999998"
   id="svg4584"
   version="1.1"
   inkscape:version="0.91 r13725"
   sodipodi:docname="logotype.svg">
  <defs
     id="defs4586" />
  <sodipodi:namedview
     id="base"
     pagecolor="#880008"
     bordercolor="#666666"
     borderopacity="1.0"
     inkscape:pageopacity="0"
     inkscape:pageshadow="2"
     inkscape:zoom="7.1414141"
     inkscape:cx="38.25"
     inkscape:cy="49.5"
     inkscape:document-units="px"
     inkscape:current-layer="layer1"
     showgrid="false"
     fit-margin-top="0"
     fit-margin-left="0"
     fit-margin-right="0"
     fit-margin-bottom="0"
     units="px"
     inkscape:window-width="1399"
     inkscape:window-height="876"
     inkscape:window-x="41"
     inkscape:window-y="24"
     inkscape:window-maximized="1"
     inkscape:snap-page="true"
     inkscape:snap-bbox="true"
     inkscape:bbox-nodes="true" />
  <metadata
     id="metadata4589">
    <rdf:RDF>
      <cc:Work
         rdf:about="">
        <dc:format>image/svg+xml</dc:format>
        <dc:type
           rdf:resource="http://purl.org/dc/dcmitype/StillImage" />
        <dc:title></dc:title>
      </cc:Work>
    </rdf:RDF>
  </metadata>
  <g
     inkscape:label="Layer 1"
     inkscape:groupmode="layer"
     id="layer1"
     transform="translate(-157.40045,-366.82083)">
    <path
       style="opacity:1;fill:#ffffff;fill-opacity:1;stroke:none;stroke-width:1.99999988;stroke-linecap:round;stroke-linejoin:miter;stroke-miterlimit:4;stroke-dasharray:none;stroke-opacity:1"
       d="m 195.65045,394.49182 a 25.091169,25.091169 0 0 0 -25.09116,25.09116 25.091169,25.091169 0 0 0 25.09116,25.09115 25.091169,25.091169 0 0 0 25.09116,-25.09115 25.091169,25.091169 0 0 0 -25.09116,-25.09116 z m 0,0.77769 c 6.44823,0 12.63266,2.56163 17.19225,7.12122 4.55959,4.55959 7.12133,10.74401 7.12133,17.19225 0,6.44823 -2.56174,12.63265 -7.12133,17.19224 -4.55959,4.55959 -10.74402,7.12122 -17.19225,7.12122 -6.44823,0 -12.63265,-2.56163 -17.19224,-7.12122 -4.55959,-4.55959 -7.12122,-10.74401 -7.12122,-17.19224 0,-6.44824 2.56163,-12.63266 7.12122,-17.19225 4.55959,-4.55959 10.74401,-7.12122 17.19224,-7.12122 z m 0,0.5576 c -6.30056,0 -12.34272,2.50279 -16.7979,6.95797 -4.45517,4.45517 -6.95797,10.49733 -6.95797,16.7979 0,4.23914 1.13312,8.36127 3.23145,11.96184 0.0285,-0.0198 0.0576,-0.0396 0.0875,-0.0592 0.0506,-0.0143 0.10338,-0.0284 0.15998,-0.0412 0.0539,-0.0122 0.10988,-0.0262 0.16575,-0.0402 -0.0581,-0.0116 -0.0558,-0.0335 0.0118,-0.0606 0.0765,-0.0307 0.16631,-0.0287 0.20877,0.002 0.13456,-0.0378 0.25137,-0.0745 0.31397,-0.10041 0.0347,-0.0144 0.063,-0.024 0.0865,-0.0303 0.0356,-0.14812 0.30441,-0.2202 0.50402,-0.1626 0.0369,-0.016 0.0791,-0.03 0.12971,-0.042 0.0467,-0.0111 0.0967,-0.0269 0.1468,-0.0448 -0.0837,-0.003 -0.13313,-0.0194 -0.10902,-0.0405 0.026,-0.0228 0.17527,-0.10786 0.33151,-0.18906 0.031,-0.0161 0.0473,-0.0236 0.0713,-0.0357 0.007,-0.003 0.0303,-0.0108 0.0345,-0.0127 0.0122,-0.008 0.0248,-0.0153 0.037,-0.023 0.11151,-0.0511 0.0937,-0.0187 -0.0149,0.11293 -0.005,0.006 -0.0113,0.0126 -0.017,0.0188 7e-4,-6e-4 10e-4,-0.001 0.003,-0.002 0.0937,-0.0781 0.375,-0.25073 0.62502,-0.38367 0.50078,-0.2663 0.66921,-0.36854 1.40325,-0.85055 0.99851,-0.65569 3.28509,-1.73775 4.449,-2.10547 1.2599,-0.39805 1.35515,-0.42632 1.5311,-0.45326 l 0.002,-0.005 0,-6e-4 c 0.15732,-0.0227 0.21409,0.76781 0.0675,0.94442 -0.15377,0.18529 -0.24742,0.67175 -0.25995,1.22214 -0.003,-0.0137 -0.006,-0.0274 -0.0113,-0.0406 -0.0363,-0.0906 -0.0632,-0.0639 -0.0687,0.0685 -0.005,0.11979 0.0219,0.18695 0.0597,0.1492 0.007,-0.007 0.0133,-0.0177 0.0181,-0.0293 0.001,0.22251 0.0144,0.45134 0.0439,0.67326 0.0329,0.24765 0.0711,0.47273 0.11861,0.69993 -0.006,0.0201 -0.011,0.0521 -0.013,0.0978 -0.005,0.11979 0.0219,0.18695 0.0597,0.1492 0.002,-0.002 0.004,-0.006 0.006,-0.009 0.11214,0.46677 0.27619,0.97814 0.54997,1.7439 0.13628,0.38118 0.27608,0.80564 0.40536,1.2204 -0.002,0.0748 0.0256,0.21086 0.0634,0.30929 0.021,0.0547 0.0455,0.0965 0.0678,0.1211 0.0343,0.11538 0.0664,0.22617 0.0976,0.33543 -0.003,0.0969 0.0152,0.15719 0.0432,0.15138 0.11891,0.42662 0.20699,0.78587 0.23731,0.98744 0.003,0.0168 0.008,0.0438 0.0115,0.0631 0.006,0.0316 0.0105,0.06 0.0172,0.0947 0.0117,0.0616 0.0252,0.12729 0.0411,0.20104 0.002,0.007 0.003,0.0136 0.004,0.0207 0.0554,0.25538 0.12859,0.55747 0.19995,0.81363 0.0679,0.24365 0.17961,0.68532 0.29525,1.15854 0.048,0.2566 0.13156,0.61668 0.22282,0.93375 7e-4,0.003 0.001,0.007 0.002,0.01 0.11458,0.49638 0.23846,0.92644 0.37344,1.29816 -0.0308,-0.0414 -0.0559,-0.0672 -0.0659,-0.0573 -0.0247,0.0247 0.0369,0.20301 0.13689,0.39631 0.11372,0.21992 0.19194,0.33073 0.22184,0.34109 0.0673,0.12979 0.1373,0.24776 0.20987,0.35579 -0.002,-1e-4 -0.004,-0.002 -0.006,-0.002 -0.0335,10e-4 0.0516,0.10793 0.1982,0.2555 0.0768,0.0894 0.156,0.16987 0.23873,0.23948 0.001,10e-4 0.002,0.002 0.004,0.003 0.036,0.10153 0.0695,0.20366 0.0997,0.30668 -0.11495,-0.0597 -0.24377,-0.14891 -0.31431,-0.23284 -0.0159,-0.0189 -0.0301,-0.0348 -0.0425,-0.0477 -0.031,-0.0322 -0.0515,-0.045 -0.0632,-0.0349 -0.002,0.002 -0.004,0.005 -0.006,0.009 -0.013,0.0317 -0.004,0.1246 0.0206,0.29382 0.002,0.0119 0.005,0.0365 0.007,0.0509 2.26878,0.70746 4.65076,1.07729 7.07112,1.07729 1.0382,0 2.06935,-0.0684 3.08758,-0.2018 0.0198,-0.0508 0.0395,-0.10066 0.0568,-0.1431 0.0364,-0.077 0.0713,-0.14233 0.0971,-0.17545 0.0588,-0.0754 0.0769,-0.18577 0.0401,-0.24536 -0.002,-0.004 -0.003,-0.007 -0.006,-0.011 0,-10e-4 0.001,-0.003 0.001,-0.005 0.004,-0.0382 0.009,-0.0777 0.0145,-0.12197 0.0452,-0.0597 0.0921,-0.11797 0.14223,-0.17327 l 0.008,-0.10118 c 0.0845,-0.0496 0.193,-0.0891 0.3217,-0.11293 0.3785,-0.0702 0.88237,-0.37733 1.39487,-0.85001 0.0107,-0.01 0.0427,-0.037 0.0574,-0.0502 0.13179,-0.1176 0.40818,-0.35335 0.68087,-0.57905 0.16434,-0.13603 0.3134,-0.26423 0.45348,-0.38727 0.20465,-0.0874 0.3679,-0.24282 0.49629,-0.44194 0.15929,-0.15145 0.26526,-0.26801 0.3315,-0.36995 0.0814,-0.101 0.12873,-0.17866 0.12873,-0.22184 0,-0.0188 -0.001,-0.0333 -0.004,-0.0457 0.001,-0.003 0.002,-0.006 0.003,-0.009 0.0249,-0.0755 0.0425,-0.14963 0.054,-0.22391 0.009,0.0135 0.0179,0.0186 0.0245,0.012 0.0278,-0.0278 0.0154,-0.23742 -0.0273,-0.46546 -0.0179,-0.0954 -0.0384,-0.17467 -0.0583,-0.23829 -0.0214,-0.0985 -0.0439,-0.22624 -0.0659,-0.36799 -0.009,-0.18735 -0.0301,-0.36652 -0.0586,-0.53309 -0.003,-0.0389 -0.009,-0.0707 -0.0178,-0.0958 -0.003,-0.0145 -0.005,-0.03 -0.008,-0.0442 -0.005,-0.0495 -0.0108,-0.0998 -0.0149,-0.14703 -0.0141,-0.16554 -0.0389,-0.35569 -0.067,-0.54736 -7e-4,-0.20284 -0.0747,-0.6129 -0.17186,-0.93789 -0.16582,-0.55459 -0.1946,-0.59005 -0.28424,-0.35089 -0.0471,0.12566 -0.067,0.26276 -0.0513,0.33238 0.001,10e-4 0.001,0.003 0.001,0.004 0.002,0.01 0.006,0.018 0.01,0.0245 0.004,0.007 0.007,0.0134 0.01,0.0205 0.001,0.002 0.001,0.003 0.001,0.005 0.003,0.0129 0.005,0.0263 0.003,0.0397 -9e-4,0.008 -0.002,0.0151 -0.005,0.0226 -0.007,0.0222 -0.0206,0.0434 -0.0397,0.0605 -0.006,0.006 -0.0134,0.011 -0.021,0.0157 -0.0456,0.0282 -0.0687,0.0947 -0.0626,0.16489 0.001,0.0117 0.003,0.0234 0.005,0.0352 0.003,0.0118 0.006,0.0234 0.0107,0.035 0.009,0.023 0.0129,0.045 0.014,0.0649 9e-4,0.0299 -0.007,0.0555 -0.022,0.0735 -0.005,0.006 -0.011,0.0111 -0.0176,0.0154 -0.0132,0.008 -0.0296,0.0132 -0.0485,0.0132 -0.01,0 -0.0183,10e-4 -0.0265,0.003 -0.008,0.002 -0.0155,0.006 -0.022,0.01 -0.007,0.004 -0.0124,0.009 -0.0174,0.0155 -0.005,0.006 -0.009,0.0129 -0.0126,0.0206 -0.0132,0.0303 -0.0125,0.0721 0.005,0.11816 0.005,0.0117 0.008,0.0242 0.009,0.0372 0.003,0.026 -9e-4,0.0542 -0.01,0.0831 -0.009,0.0288 -0.0233,0.0583 -0.0423,0.0867 -0.0285,0.0426 -0.0674,0.0829 -0.11401,0.11555 -0.0306,0.0214 -0.0576,0.0436 -0.0807,0.0657 -0.0461,0.0439 -0.076,0.0866 -0.0824,0.11849 -0.003,0.0159 -7e-4,0.0291 0.009,0.0383 0.0139,0.0139 0.0136,0.0234 0.002,0.0282 -0.0115,0.005 -0.0346,0.005 -0.0653,10e-4 -0.001,2e-5 -0.002,0 -0.003,0 -0.0217,-0.003 -0.0473,-0.008 -0.0762,-0.0159 -0.0354,-0.009 -0.0687,-0.012 -0.0996,-0.008 -0.031,0.004 -0.0598,0.0144 -0.0866,0.0315 -0.0536,0.0342 -0.0991,0.095 -0.13744,0.18318 -0.008,0.0182 -0.0172,0.0361 -0.0279,0.0534 -0.004,0.007 -0.01,0.0137 -0.0146,0.0206 -0.0184,0.0266 -0.0388,0.052 -0.062,0.0747 -0.073,0.0716 -0.16536,0.1202 -0.24929,0.12448 -0.13213,0.007 -0.31111,0.0578 -0.39772,0.11358 -0.0866,0.0558 -0.25987,0.10161 -0.38487,0.10161 -0.0421,0 -0.0776,0.006 -0.1076,0.0178 -0.0167,0.006 -0.0314,0.0145 -0.0441,0.0242 -0.004,0.003 -0.009,0.006 -0.0127,0.009 -0.009,0.008 -0.0168,0.0178 -0.0233,0.0282 -0.0195,0.0312 -0.0275,0.0712 -0.0238,0.11936 0.004,0.0548 -0.002,0.0989 -0.0149,0.13123 -0.007,0.0162 -0.015,0.0293 -0.0248,0.0395 -0.0148,0.0153 -0.0329,0.0238 -0.0528,0.025 -0.0199,0.001 -0.0416,-0.005 -0.064,-0.0187 -0.0299,-0.0184 -0.0609,-0.0505 -0.0898,-0.0974 -0.0152,-0.0246 -0.0322,-0.0418 -0.0506,-0.0521 -0.025,-0.014 -0.0526,-0.0144 -0.0811,-0.005 -0.003,0.001 -0.006,0.001 -0.009,0.002 -0.0422,0.0177 -0.0865,0.0591 -0.12839,0.11882 -0.0315,0.0448 -0.0616,0.0999 -0.0885,0.16335 -0.036,0.0847 -0.0664,0.18384 -0.0868,0.29274 -0.0152,0.0812 -0.0368,0.157 -0.061,0.21988 -0.0162,0.0419 -0.0335,0.0781 -0.0511,0.10651 -0.009,0.0142 -0.0178,0.0264 -0.0265,0.0364 -0.0175,0.02 -0.0346,0.0311 -0.0504,0.0311 -0.0396,0 -0.0634,0.0181 -0.0671,0.0457 -0.002,0.0166 0.003,0.0366 0.0161,0.058 0.007,0.0111 0.0103,0.0225 0.0135,0.0338 0.0105,0.0468 -0.0144,0.092 -0.0661,0.10923 -0.0441,0.0147 -0.0878,0.11265 -0.11577,0.24275 -0.014,0.0426 -0.0266,0.0885 -0.037,0.13526 -0.0489,0.21868 -0.0596,0.28797 -0.0112,0.24613 -0.0207,0.13573 -0.0505,0.24344 -0.0787,0.26519 -0.008,0.006 -0.0161,0.0166 -0.0245,0.0292 -0.046,0.012 -0.072,0.056 -0.072,0.12905 0,0.0202 -0.001,0.0367 -0.001,0.0547 -0.006,0.0235 -0.0122,0.0472 -0.0163,0.0712 -0.0219,0.125 -0.11644,0.28945 -0.21019,0.36559 -0.0937,0.0761 -0.13021,0.14002 -0.0811,0.14202 0.0765,0.003 0.0141,0.1646 -0.076,0.29513 -0.12315,-0.0155 -0.26142,8e-4 -0.40873,0.0383 -0.039,-0.0312 -0.0785,-0.0651 -0.11598,-0.10248 -0.13746,-0.13747 -0.22764,-0.17109 -0.2288,-0.0852 -0.001,0.10462 -0.0275,0.10137 -0.0994,-0.0121 -0.0535,-0.0844 -0.10444,-0.10736 -0.20584,-0.0657 -0.0152,-0.009 -0.0333,-0.008 -0.0529,0.004 -0.0184,0.0114 -0.0345,0.0289 -0.0491,0.0482 -0.0286,0.017 -0.0597,0.0361 -0.0949,0.0591 -0.2352,0.15411 -0.27109,0.22455 -0.15638,0.3069 0.10784,0.0774 0.0923,0.0885 -0.0562,0.0404 -0.12217,-0.0395 -0.30275,0.0251 -0.44738,0.15988 -0.32298,0.3009 -0.38357,0.28705 -0.52526,-0.11936 -0.01,-0.0277 -0.0172,-0.052 -0.0246,-0.0763 -7e-4,-0.0362 7e-4,-0.0747 0.003,-0.11609 0.27745,-0.34912 0.42235,-0.63069 0.4732,-0.84717 0.069,-0.11517 0.15893,-0.18349 0.2079,-0.15323 0.11942,0.0738 0.2667,-0.4758 0.16956,-0.63296 -0.0424,-0.0686 -0.13407,-0.032 -0.22641,0.0904 -0.14428,0.19124 -0.16515,0.17983 -0.29808,-0.16358 -0.17308,-0.44714 -0.32051,-0.47824 -0.32051,-0.0676 0,0.29451 -0.005,0.29683 -0.22728,0.0961 -0.22798,-0.20633 -0.27063,-0.17018 -0.23328,0.19799 0.0116,0.11446 -0.10276,0.25411 -0.27096,0.33074 -0.1601,0.0729 -0.29121,0.17559 -0.29121,0.22805 0,0.0525 -0.0767,0.0955 -0.17044,0.0955 -0.0547,0 -0.0954,0.009 -0.12273,0.0265 -0.03,-0.01 -0.0477,0.005 -0.0477,0.0454 0,0.0646 0.0341,0.15152 0.0758,0.1932 0.007,0.007 0.0151,0.0115 0.0228,0.0165 0.0136,0.0166 0.0267,0.033 0.0434,0.0507 0.0162,0.0171 0.0244,0.0275 0.0357,0.0405 -0.0107,0.0167 -0.0212,0.0338 -0.0317,0.051 -0.0114,-0.004 -0.0183,-0.006 -0.0325,-0.012 -0.0493,-0.0205 -0.1183,-0.0474 -0.18928,-0.0744 -0.0644,-0.0659 -0.13716,-0.10115 -0.21836,-0.1076 0.003,-0.0518 0.0105,-0.10988 0.022,-0.17403 0.005,-0.004 0.008,-0.007 0.0138,-0.011 0.13767,-0.10544 0.16164,-0.18197 0.0758,-0.24166 -0.009,-0.006 -0.0175,-0.0147 -0.0268,-0.026 -0.0184,-0.0227 -0.0377,-0.0554 -0.0566,-0.0952 -0.0474,-0.0995 -0.0933,-0.24365 -0.12001,-0.38901 -0.005,-0.0295 -0.0125,-0.0596 -0.0208,-0.0897 -0.008,-0.0293 -0.0175,-0.0585 -0.0279,-0.0874 -0.008,-0.021 -0.0162,-0.0415 -0.0248,-0.062 -0.003,-0.008 -0.006,-0.0166 -0.01,-0.0247 l 0,-9e-4 c -0.003,-0.007 -0.007,-0.014 -0.0103,-0.0211 -0.0469,-0.10073 -0.10423,-0.19097 -0.16259,-0.25222 -0.005,-0.24049 0.007,-0.48966 0.0575,-0.73011 0.0317,-0.0703 0.0596,-0.1411 0.0753,-0.20376 0.0665,-0.26631 0.22495,-0.47364 0.47069,-0.61869 0.24807,-0.0312 0.46636,-0.0978 0.66291,-0.19069 0.0474,0.01 0.0771,0.033 0.0903,0.072 0.0325,0.0965 0.0945,0.0913 0.22859,-0.0194 0.1012,-0.0835 0.24517,-0.11413 0.32008,-0.0679 0.0808,0.05 0.10647,0.0362 0.0631,-0.0341 -0.0402,-0.0651 0.002,-0.181 0.0949,-0.25767 0.0924,-0.0767 0.14032,-0.18402 0.10651,-0.23872 -0.004,-0.006 -0.006,-0.0117 -0.007,-0.0168 0.007,-0.0102 0.0132,-0.0207 0.0198,-0.031 0.0238,-0.005 0.066,0.002 0.12077,0.0229 0.15832,0.0607 0.18209,0.0264 0.12699,-0.18427 -0.0206,-0.0786 -0.0257,-0.13776 -0.0146,-0.18394 0.0249,-0.0332 0.0513,-0.0659 0.0784,-0.0983 0.0242,-0.0135 0.0527,-0.025 0.0883,-0.0343 0.12095,-0.0316 0.21977,-0.15074 0.21977,-0.26475 0,-0.11403 0.0473,-0.23649 0.10498,-0.27216 0.0577,-0.0357 0.13845,-0.21769 0.17947,-0.40447 7e-4,-0.002 7e-4,-0.005 0.002,-0.007 0.0856,-0.1163 0.17392,-0.23039 0.26736,-0.34 0.0691,-0.0201 0.13808,-0.0815 0.16608,-0.15443 0.0216,-0.0562 0.0986,-0.12544 0.19777,-0.19407 0.0541,-0.0272 0.10823,-0.0545 0.16249,-0.0796 0.16101,-0.0745 0.32152,-0.14198 0.47221,-0.20801 0.0596,-0.0104 0.10703,-0.01 0.13396,0.007 0.0586,0.0362 0.17044,-0.0116 0.24885,-0.10608 0.0784,-0.0945 0.23167,-0.14353 0.34043,-0.10901 0.23768,0.0754 0.39697,-0.24751 0.22457,-0.45523 -0.0647,-0.0779 -0.0855,-0.22482 -0.0465,-0.32649 0.0475,-0.1237 0.0103,-0.18482 -0.1125,-0.18482 -0.13959,0 -0.15826,-0.0477 -0.0774,-0.19886 0.0151,-0.0282 0.0313,-0.0611 0.0477,-0.0963 0.14226,-0.20657 0.36307,-0.35093 0.62893,-0.43039 0.20532,0.0257 0.52179,0.0503 0.79185,0.0592 0.38786,0.0128 0.62834,0.0751 0.66574,0.17262 0.0686,0.17868 0.89374,0.21097 0.99998,0.0391 0.10614,-0.17174 0.28413,-0.13612 0.28413,0.0568 0,0.0938 0.0705,0.17044 0.1566,0.17044 0.0861,0 0.22005,-0.0767 0.29786,-0.17044 0.0542,-0.0654 0.11798,-0.11251 0.17392,-0.14049 0.0437,-0.002 0.0883,-0.006 0.13396,-0.0109 0.01,0.0177 0.005,0.0486 -0.0237,0.0945 -0.13133,0.21248 0.0763,0.11463 0.30166,-0.14212 0.0402,-0.009 0.0805,-0.0178 0.12252,-0.0282 0.0263,-0.007 0.0559,-0.0158 0.0828,-0.0229 0.0433,-0.002 0.0857,-0.005 0.12851,-0.008 0.0439,0.0285 0.10402,0.036 0.16031,0.0144 0.0859,-0.033 0.24612,-0.01 0.35601,0.0519 0.15164,0.0849 0.28806,0.0446 0.56588,-0.16728 0.0555,-0.0423 0.10081,-0.0754 0.1419,-0.10422 0.0816,-0.0286 0.15859,-0.0608 0.23011,-0.0968 0.0371,0.0115 0.0649,0.0486 0.0987,0.1089 0.14081,0.25161 0.22288,0.23418 0.54758,-0.1162 0.2112,-0.22785 0.25847,-0.36994 0.20016,-0.60224 -0.042,-0.1672 -0.0763,-0.35866 -0.0763,-0.42539 0,-0.18403 -0.38949,-0.17445 -0.46078,0.0113 -0.0343,0.0895 -0.16194,0.16281 -0.28369,0.16281 -0.12177,0 -0.24982,0.0639 -0.28446,0.14201 -0.0347,0.0781 -0.0517,0.0416 -0.0379,-0.0811 0.0162,-0.14413 -0.0554,-0.23904 -0.20223,-0.26824 -0.125,-0.0249 -0.26674,-0.11413 -0.31528,-0.19831 -0.0485,-0.0842 -0.15082,-0.12918 -0.22729,-0.1 -0.0217,0.008 -0.0417,0.008 -0.0598,0 -0.0615,-0.18383 -0.0811,-0.37726 -0.0389,-0.56293 0.036,-0.0118 0.088,-0.007 0.16401,0.009 0.22702,0.0477 0.23106,0.0405 0.0449,-0.0781 -0.0775,-0.0493 -0.11575,-0.1049 -0.12088,-0.1614 0.0206,-0.0374 0.0437,-0.0741 0.0707,-0.10989 0.0389,-0.0471 0.0827,-0.0928 0.13123,-0.13711 0.0787,-0.0408 0.17834,-0.0761 0.29719,-0.10215 0.18025,-0.0396 0.45789,-0.1745 0.61707,-0.29971 0.15919,-0.12522 0.28936,-0.19198 0.28936,-0.14855 0,0.0435 0.0767,0.0153 0.17044,-0.0625 0.0938,-0.0778 0.17054,-0.26127 0.17054,-0.40752 0,-0.24834 -0.0432,-0.26557 -0.65343,-0.26257 -0.35937,0.002 -1.02793,-0.0863 -1.48579,-0.19582 -0.69311,-0.16579 -0.84852,-0.17354 -0.92777,-0.0453 -0.0785,0.12706 -0.1913,0.11666 -0.64472,-0.0597 -0.62429,-0.2428 -0.81894,-0.23483 -1.06106,0.043 -0.0703,0.0807 -0.1945,0.14453 -0.31802,0.18285 -0.14493,-0.10749 -0.25363,-0.24983 -0.31821,-0.41874 0.0806,-0.43191 0.25023,-0.9963 0.35319,-1.11008 0.0932,-0.10302 0.16945,-0.27279 0.16945,-0.37724 0,-0.10446 0.0511,-0.18983 0.11359,-0.18983 0.12647,0 0.625,-0.46841 0.625,-0.58721 0,-0.0256 0.004,-0.048 0.0112,-0.0685 0.044,-0.0368 0.0836,-0.0713 0.12513,-0.10651 0.0549,-0.006 0.11496,0.0183 0.15879,0.0836 0.0981,0.1462 0.10862,0.14577 0.0836,-0.003 -0.0188,-0.11247 0.0111,-0.23965 0.0676,-0.35187 0.0983,-0.0905 0.19601,-0.18615 0.2972,-0.29154 0.0373,-0.0113 0.0744,-0.0145 0.10989,-0.005 0.14436,0.0377 0.19043,0.006 0.14866,-0.10291 -0.0361,-0.0941 0.0132,-0.15748 0.12218,-0.15748 0.10046,0 0.18252,-0.0797 0.18252,-0.17719 0,-0.0974 0.0537,-0.14407 0.11926,-0.10357 0.0827,0.051 0.0831,0.11742 0.001,0.21607 -0.065,0.0783 -0.0816,0.17884 -0.0371,0.22336 0.0445,0.0445 0.0269,0.1165 -0.0392,0.15999 -0.0661,0.0435 -0.26135,0.32192 -0.43377,0.6188 -0.17239,0.29687 -0.36518,0.53973 -0.42843,0.53973 -0.0632,0 -0.0827,0.0839 -0.0433,0.18645 0.0598,0.15596 0.0432,0.16309 -0.1015,0.043 -0.14375,-0.11927 -0.17317,-0.1102 -0.17317,0.0539 0,0.14355 -0.064,0.18096 -0.23371,0.13657 -0.18372,-0.048 -0.20714,-0.0291 -0.10945,0.0887 0.0684,0.0824 0.22542,0.12337 0.34905,0.091 0.0386,-0.0101 0.0692,-0.0158 0.0946,-0.018 -0.003,0.002 -0.007,0.004 -0.0102,0.006 0.0143,0.0128 0.0249,0.0267 0.0433,0.0387 0.0138,0.009 0.0304,0.0171 0.047,0.0253 -0.003,0.0201 -0.009,0.0437 -0.0206,0.0733 -0.0572,0.149 0.013,0.18654 0.36766,0.19712 0.79547,0.0238 1.12585,-0.0374 2.35846,-0.43617 0.0545,-0.0176 0.10192,-0.0315 0.15204,-0.0468 0.10607,-0.0178 0.22013,-0.0378 0.31942,-0.0535 -0.0135,-0.004 -0.0266,-0.009 -0.04,-0.014 0.22783,-0.0337 0.44314,-0.0578 0.63656,-0.0644 0.0491,0.0211 0.0817,0.0541 0.0992,0.0998 0.0852,0.22197 0.37898,0.20221 0.56108,-0.0377 0.22354,-0.29448 0.19641,-0.328 -0.22598,-0.27869 -0.21622,0.0252 -0.42002,-0.013 -0.4659,-0.0872 -0.0587,-0.0951 -0.13971,-0.0791 -0.29002,0.057 -0.19474,0.17623 -0.22776,0.17472 -0.4966,-0.0211 -0.29021,-0.21142 -0.41699,-0.4668 -0.15301,-0.3082 0.0881,0.0529 0.0799,0.009 -0.0217,-0.11642 -0.0901,-0.11097 -0.1712,-0.3014 -0.18023,-0.42321 -0.009,-0.12182 -0.18145,-0.39209 -0.38346,-0.6005 -0.0265,-0.0273 -0.0483,-0.0503 -0.0707,-0.0742 0.0156,-0.16174 0.0581,-0.31127 0.13101,-0.43769 l 7e-4,10e-5 c 0.0341,0.006 0.0278,0.0385 -0.0102,0.10008 -0.17291,0.27978 0.90861,0.48699 1.56628,0.30015 0.10762,-0.0306 0.20453,-0.0526 0.29807,-0.07 0.1725,0.0223 0.40921,0.0158 0.67086,-0.002 0.16097,0.0311 0.33354,0.0827 0.54061,0.16031 0.25685,0.0963 0.6149,0.15582 0.79556,0.13221 0.18063,-0.0236 0.36663,-0.0465 0.41351,-0.0507 0.0469,-0.004 0.0852,-0.0626 0.0852,-0.1296 0,-0.0477 0.0398,-0.12817 0.096,-0.20441 0.10198,0.0156 0.18319,0.0414 0.23883,0.0796 -0.042,0.42661 -0.42244,0.70113 -0.98647,0.70113 -0.42864,0 -0.59543,0.18453 -0.6115,0.67619 -0.007,0.22188 -0.0366,0.31325 -0.0653,0.20311 -0.0654,-0.25073 -0.26247,-0.14415 -0.26247,0.14201 0,0.25055 -0.8369,1.54756 -1.04777,1.62379 -0.11686,0.0423 -0.11749,0.0995 -0.003,0.29295 0.16007,0.2711 0.17618,0.62412 0.0551,0.99834 -0.0111,0.0291 -0.0209,0.0579 -0.0304,0.0864 -0.0414,0.10981 -0.0937,0.22091 -0.15824,0.33205 -0.44181,0.76081 -0.34786,0.91918 1.17367,1.97761 0.73479,0.51113 1.79212,1.16294 2.34964,1.44834 0.55751,0.2854 1.07543,0.5691 1.15091,0.63045 0.0755,0.0614 0.20165,0.11152 0.28032,0.11152 0.14792,0 0.52152,0.13343 0.79632,0.26192 0.0776,0.0454 0.15553,0.0905 0.23207,0.13711 -0.0427,0.0642 -0.0884,0.11817 -0.13601,0.16478 -0.15922,0.006 -0.35218,-0.0305 -0.40088,-0.10924 -0.11294,-0.18272 -0.37644,-0.1309 -0.4329,0.0852 -0.008,0.0321 -0.0159,0.0536 -0.0228,0.0675 -0.009,-0.003 -0.0191,-0.009 -0.0298,-0.0149 -0.006,-0.0276 -0.011,-0.0724 -0.0144,-0.13777 -0.0119,-0.22695 -0.0371,-0.24987 -0.12513,-0.11369 -0.0283,0.0437 -0.0487,0.0733 -0.0646,0.0918 -0.0151,-0.008 -0.0301,-0.0161 -0.0447,-0.022 -0.002,-0.0183 -0.003,-0.0388 -0.004,-0.0698 -0.003,-0.15152 -0.0157,-0.15152 -0.11359,0 -0.0271,0.0419 -0.0515,0.0679 -0.0712,0.0808 -0.0256,-0.001 -0.0429,-0.0159 -0.044,-0.0457 -0.003,-0.13552 -0.0497,-0.22894 -0.13144,-0.27651 -0.002,-0.001 -0.004,-0.003 -0.006,-0.004 -0.002,-9e-4 -0.004,-0.002 -0.005,-0.003 -0.0847,-0.0453 -0.2044,-0.0413 -0.3546,0.0158 -0.056,0.0213 -0.10211,0.037 -0.13874,0.0474 -0.0366,0.0104 -0.0639,0.0155 -0.0823,0.0146 -0.0185,-6e-4 -0.0282,-0.007 -0.0298,-0.0185 -7e-4,-0.006 7e-4,-0.0131 0.004,-0.0218 0.003,-0.009 0.008,-0.0187 0.0155,-0.0301 0.005,-0.008 0.009,-0.0159 0.0112,-0.0243 0.003,-0.008 0.004,-0.017 0.005,-0.0258 0.004,-0.0525 -0.0287,-0.11025 -0.0813,-0.15922 -0.0176,-0.0164 -0.0373,-0.0318 -0.0589,-0.0456 -0.0431,-0.0277 -0.093,-0.0492 -0.14528,-0.0605 -0.026,-0.006 -0.0527,-0.009 -0.0794,-0.009 -0.008,0 -0.0144,7e-4 -0.0195,0.002 -0.005,10e-4 -0.009,0.004 -0.0113,0.006 -0.01,0.0112 0.001,0.0323 0.0304,0.0586 0.0146,0.0131 0.0337,0.0275 0.0572,0.0427 0.052,0.0336 0.0823,0.0576 0.0893,0.0745 0.002,0.006 0.002,0.0103 -0.001,0.0145 -0.0118,0.0165 -0.0661,0.0221 -0.16706,0.023 -0.0343,3e-4 -0.0687,-0.002 -0.1016,-0.007 -0.0329,-0.005 -0.0641,-0.0119 -0.0921,-0.0206 -0.0421,-0.0131 -0.0768,-0.03 -0.0987,-0.0491 -0.007,-0.006 -0.013,-0.0129 -0.0172,-0.0197 -0.004,-0.007 -0.0106,-0.013 -0.0184,-0.0186 -0.008,-0.006 -0.0172,-0.0109 -0.0282,-0.0153 -0.011,-0.004 -0.0233,-0.008 -0.037,-0.0115 -0.0136,-0.003 -0.0284,-0.006 -0.0442,-0.008 -0.0317,-0.004 -0.0672,-0.005 -0.10477,-0.004 -0.0376,0.002 -0.0772,0.006 -0.11685,0.0137 -0.0281,0.005 -0.0536,0.01 -0.0763,0.0127 -0.0227,0.003 -0.0429,0.005 -0.0606,0.006 -0.0355,10e-4 -0.0611,-0.002 -0.078,-0.0111 -0.008,-0.005 -0.0146,-0.0106 -0.0189,-0.0181 -0.004,-0.008 -0.007,-0.0164 -0.007,-0.027 0,-0.0105 0.001,-0.0225 0.004,-0.0363 0.003,-0.0138 0.008,-0.0292 0.0149,-0.0463 0.0134,-0.0359 0.0196,-0.0643 0.0146,-0.0865 -0.003,-0.0111 -0.008,-0.0206 -0.0161,-0.0286 -0.008,-0.008 -0.0197,-0.0145 -0.0346,-0.0197 -0.0148,-0.005 -0.033,-0.009 -0.0551,-0.0116 -0.0441,-0.005 -0.10336,-0.006 -0.18068,-0.002 -0.0387,0.002 -0.082,0.005 -0.13003,0.008 -0.12902,0.01 -0.25311,0.0252 -0.34904,0.0425 -0.0958,0.0173 -0.16368,0.0362 -0.18025,0.0527 -0.12354,0.12355 0.20196,0.53429 0.42344,0.53429 0.0335,0 0.0627,0.003 0.0869,0.009 0.0363,0.009 0.0615,0.0236 0.0735,0.0428 0.008,0.0128 0.01,0.0275 0.006,0.0438 -0.002,0.008 -0.006,0.0168 -0.0113,0.0256 -0.0259,0.0418 -0.006,0.0898 0.0444,0.1284 0.0102,0.008 0.0215,0.0152 0.0341,0.022 0.0125,0.007 0.0262,0.0131 0.0408,0.0188 0.0148,0.006 0.0305,0.0109 0.0473,0.0152 0.0308,0.008 0.0519,0.015 0.0739,0.0222 0.0107,0.0448 0.0192,0.0906 0.0235,0.13809 -0.007,0.006 -0.0126,0.0121 -0.0208,0.0191 -0.0446,0.0377 -0.10846,0.0858 -0.19298,0.14811 l -0.3582,0.26421 0.30668,0.077 c 0.0211,0.005 0.0436,0.01 0.0674,0.0127 0.0476,0.007 0.0997,0.009 0.15323,0.008 0.0267,-7e-4 0.054,-0.002 0.081,-0.005 0.027,-0.002 0.0539,-0.006 0.0804,-0.0101 0.0265,-0.004 0.0526,-0.01 0.0778,-0.0155 0.0251,-0.006 0.0494,-0.0127 0.0723,-0.0203 0.023,-0.008 0.0446,-0.016 0.0646,-0.025 0.0489,-0.0223 0.0928,-0.0404 0.13112,-0.0545 0.003,-10e-4 0.005,-10e-4 0.008,-0.002 0.0461,0.0217 0.0834,0.051 0.11207,0.0872 -7e-4,4e-4 -7e-4,0.001 -0.002,0.001 -0.0384,0.0335 -0.0869,0.0712 -0.1553,0.11609 -0.0354,0.0232 -0.0682,0.0488 -0.0979,0.0758 -0.0595,0.054 -0.10699,0.11375 -0.14005,0.17152 -0.0248,0.0433 -0.0414,0.0855 -0.0487,0.12339 -0.007,0.0379 -0.006,0.0715 0.006,0.0975 0.004,0.009 0.009,0.0164 0.0158,0.0233 0.006,0.007 0.0139,0.0127 0.0225,0.0175 0.009,0.005 0.0188,0.008 0.0302,0.011 0.0113,0.003 0.0238,0.004 0.0377,0.004 0.009,0 0.0166,0.001 0.0242,0.003 0.008,0.002 0.0146,0.006 0.0212,0.01 0.007,0.004 0.0127,0.009 0.0183,0.0152 0.006,0.006 0.011,0.0127 0.0157,0.02 0.0279,0.0444 0.0378,0.11197 0.0279,0.17359 -0.003,0.0205 -0.009,0.0404 -0.0165,0.0585 -0.004,0.009 -0.008,0.0176 -0.0132,0.0256 -0.005,0.008 -0.0104,0.0154 -0.0164,0.022 -0.0101,0.011 -0.0222,0.0195 -0.0354,0.026 -0.003,10e-4 -0.005,0.004 -0.008,0.005 -0.007,0.003 -0.0136,0.007 -0.0208,0.0138 -0.0217,0.0198 -0.0459,0.0566 -0.0693,0.10367 -0.0312,0.063 -0.0608,0.14447 -0.0817,0.22958 0,0.002 -3e-5,0.003 -0.001,0.006 -0.0344,0.14177 -0.0413,0.21593 -0.014,0.24318 0.001,10e-4 0.002,0.003 0.003,0.004 0.002,0.002 0.005,0.002 0.007,0.003 0.0185,0.0101 0.0461,0.008 0.0855,-0.007 0.0809,-0.031 0.15466,0.0187 0.20213,0.12993 0.007,0.0398 0.0154,0.0861 0.0257,0.13493 -0.006,0.12524 0.002,0.24193 0.0291,0.34578 -0.0149,-0.006 -0.0347,-0.0206 -0.0604,-0.0446 -0.0149,-0.0138 -0.0382,-0.0253 -0.0664,-0.0351 -0.0743,-0.0289 -0.19997,-0.0406 -0.31986,-0.0369 -9e-4,3e-5 -0.002,-3e-5 -0.003,0 -0.01,4e-4 -0.0187,0.001 -0.0284,0.002 -0.12744,0.006 -0.24066,0.0288 -0.26769,0.0685 -0.004,0.006 -0.006,0.0123 -0.006,0.0188 1e-5,0.0622 0.0166,0.13203 0.0443,0.20169 0.0416,0.10454 0.10859,0.20879 0.18154,0.28697 0.0244,0.0261 0.0491,0.0492 0.0742,0.0685 0.0501,0.0386 0.10032,0.0617 0.14506,0.0617 0.0792,0 0.14701,0.0161 0.19854,0.0414 0.0242,0.0666 0.0489,0.13526 0.0742,0.20496 -0.004,0.004 -0.007,0.007 -0.0108,0.0106 -0.0174,0.014 -0.0401,0.0268 -0.0684,0.0377 -0.0274,0.0105 -0.0489,0.0233 -0.0664,0.038 -0.003,0.002 -0.006,0.004 -0.008,0.006 -0.0159,0.0152 -0.026,0.0335 -0.0326,0.0543 -0.001,0.003 -0.003,0.006 -0.004,0.01 l 0,0.004 c -0.005,0.0246 -0.005,0.0529 10e-4,0.0865 0.006,0.0351 0.0183,0.0757 0.0362,0.12274 0.018,0.0474 0.0306,0.0872 0.0375,0.12001 0.003,0.0163 0.005,0.0309 0.006,0.044 7e-4,0.013 -7e-4,0.0247 -0.003,0.0346 -0.002,0.01 -0.007,0.0185 -0.0121,0.0257 -0.003,0.003 -0.006,0.005 -0.009,0.008 -0.0107,0.009 -0.024,0.0161 -0.0421,0.0195 -0.0117,0.002 -0.0249,0.003 -0.0399,0.003 -0.0662,0 -0.12332,-0.0222 -0.14778,-0.0534 -0.008,-0.0104 -0.0124,-0.0218 -0.0124,-0.0337 0,-0.005 -0.002,-0.01 -0.004,-0.0149 0,-10e-4 3e-5,-0.003 -0.001,-0.004 -0.001,-0.003 -0.004,-0.006 -0.006,-0.009 -0.003,-0.004 -0.005,-0.008 -0.009,-0.0122 -0.0107,-0.012 -0.0273,-0.0247 -0.0451,-0.0372 -0.004,-0.003 -0.006,-0.005 -0.01,-0.008 -0.0231,-0.0152 -0.0507,-0.0304 -0.0811,-0.0446 -0.0305,-0.0141 -0.064,-0.0272 -0.0991,-0.0383 -0.021,-0.007 -0.0299,-0.0105 -0.0474,-0.0162 -0.034,-0.0111 -0.0715,-0.0228 -0.0922,-0.0312 -0.0156,-0.006 -0.0274,-0.0122 -0.0356,-0.0177 -0.008,-0.006 -0.0127,-0.011 -0.0138,-0.0163 -7e-4,-0.004 0.002,-0.008 0.005,-0.0124 0.001,-10e-4 0.001,-0.002 0.003,-0.004 0.006,-0.006 0.0164,-0.0118 0.0299,-0.0183 0.0269,-0.0131 0.068,-0.0286 0.12284,-0.0488 0.01,-0.004 0.0171,-0.007 0.0261,-0.0101 0.0142,-0.005 0.0295,-0.011 0.0412,-0.0158 0.0102,-0.004 0.0166,-0.008 0.0248,-0.0115 0.0186,-0.009 0.0325,-0.0168 0.0403,-0.0242 0.001,-10e-4 0.005,-0.003 0.006,-0.005 0.002,-0.003 0.004,-0.006 0.004,-0.009 7e-4,-0.003 -2e-5,-0.006 -0.002,-0.009 -0.006,-0.0113 -0.0269,-0.0226 -0.0643,-0.0357 -0.0374,-0.0131 -0.0911,-0.0279 -0.16215,-0.0466 -0.0214,-0.006 -0.0424,-0.0125 -0.0626,-0.0202 -0.0203,-0.008 -0.0398,-0.0161 -0.0585,-0.0254 -0.0374,-0.0186 -0.0709,-0.0401 -0.0992,-0.0632 -0.0142,-0.0115 -0.0269,-0.0234 -0.0382,-0.0355 -0.0113,-0.0121 -0.021,-0.0245 -0.0289,-0.0368 -0.0158,-0.0247 -0.0245,-0.0496 -0.0245,-0.0733 0,-0.0999 -0.0171,-0.13029 -0.0768,-0.0983 -0.002,10e-4 -0.004,0.002 -0.006,0.003 -0.008,0.005 -0.0209,0.0153 -0.0306,0.0222 -0.0149,0.0105 -0.028,0.0184 -0.0468,0.0341 -0.0137,0.0114 -0.0268,0.0213 -0.0394,0.0299 -0.0615,0.0423 -0.11013,0.052 -0.14899,0.0301 -0.003,-0.0193 0.006,-0.0493 0.0364,-0.0911 0.0156,-0.0217 -0.0419,-0.12383 -0.12764,-0.22718 -0.003,-0.004 -0.006,-0.007 -0.01,-0.0106 -0.002,-0.002 -0.003,-0.004 -0.005,-0.007 -0.0243,-0.0293 -0.0547,-0.0556 -0.0868,-0.0797 -0.0126,-0.01 -0.0251,-0.0182 -0.0378,-0.0261 -0.0186,-0.0118 -0.0365,-0.0213 -0.0552,-0.0302 -0.001,0 -0.001,6e-5 -0.001,0 -0.0421,-0.0199 -0.0835,-0.0341 -0.11718,-0.0341 -0.0252,0 -0.0488,0.007 -0.07,0.019 -0.0499,0.0208 -0.0829,0.0676 -0.0857,0.14115 0,0.003 -0.001,0.007 -0.001,0.0102 0,0.0469 0.016,0.0898 0.0418,0.121 0.006,0.008 0.0135,0.0149 0.021,0.0211 0.008,0.006 0.0155,0.0115 0.024,0.0159 0.008,0.004 0.0173,0.008 0.0265,0.0103 0.009,0.002 0.0187,0.004 0.0284,0.004 0.0404,5e-4 0.066,0.004 0.0767,0.0111 0.0175,0.0123 -0.006,0.0359 -0.0705,0.0769 -0.0148,0.009 -0.0277,0.0204 -0.0394,0.0327 -0.003,0.003 -0.006,0.005 -0.008,0.008 -0.001,1e-4 -0.001,0.001 -0.001,0.001 -0.0125,0.0144 -0.0227,0.0306 -0.0307,0.0485 -0.0486,0.10114 -0.0329,0.24963 0.0456,0.40557 0.0139,0.0374 0.0299,0.0769 0.0481,0.11892 0.0284,0.0653 0.0392,0.14181 0.0354,0.20757 -0.003,0.0209 -0.008,0.041 -0.0146,0.0589 -0.0292,0.0761 -0.0744,0.12336 -0.13046,0.14506 -0.15234,-0.0606 -0.27079,-0.0966 -0.36026,-0.11043 -0.0613,-0.0482 -0.12449,-0.10939 -0.18753,-0.18416 -0.033,-0.0394 -0.066,-0.0808 -0.0989,-0.12731 -0.0321,-0.0454 -0.0619,-0.0861 -0.0898,-0.12262 -0.056,-0.0731 -0.10489,-0.12892 -0.15159,-0.17066 -0.0233,-0.0209 -0.0461,-0.0382 -0.069,-0.0524 -0.0228,-0.0142 -0.0455,-0.0251 -0.069,-0.0333 -0.0705,-0.0247 -0.147,-0.0244 -0.24558,-0.009 -0.13658,0.021 -0.20851,0.0287 -0.22423,0.0172 -0.002,-10e-4 -0.003,-0.003 -0.003,-0.005 -0.002,-0.0144 0.0391,-0.0442 0.11675,-0.0932 0.0405,-0.0256 0.0718,-0.0486 0.0943,-0.0708 0.0113,-0.0111 0.0205,-0.0218 0.0273,-0.0327 0.007,-0.0108 0.0117,-0.0217 0.0144,-0.0327 0.005,-0.0196 0.002,-0.04 -0.006,-0.062 -9e-4,-0.003 -7e-4,-0.005 -0.002,-0.008 -0.002,-0.005 -0.006,-0.01 -0.008,-0.0143 -0.0113,-0.0215 -0.0265,-0.0444 -0.0481,-0.0705 -0.008,-0.009 -0.0123,-0.0173 -0.0188,-0.0261 0.0539,-0.0397 0.067,-0.13767 0.006,-0.27727 0.006,-0.008 0.0108,-0.0159 0.0181,-0.0248 0.0306,-0.0369 0.0558,-0.0645 0.0788,-0.0828 0.023,-0.0183 0.0437,-0.0272 0.0653,-0.0272 0.0216,2e-4 0.0442,0.01 0.0707,0.0286 0.0265,0.0188 0.0569,0.047 0.0944,0.0845 0.017,0.017 0.032,0.0328 0.045,0.0479 0.0259,0.0302 0.0438,0.0573 0.0539,0.0833 0.01,0.026 0.0124,0.0508 0.007,0.0767 -0.003,0.0129 -0.007,0.026 -0.0135,0.0396 -0.0128,0.0273 -0.0334,0.0566 -0.061,0.0899 -0.0764,0.092 -0.11976,0.17146 -0.0965,0.17664 0.031,0.007 0.0615,0.0129 0.0913,0.0177 0.0299,0.005 0.0589,0.009 0.0873,0.0115 0.0283,0.003 0.0557,0.005 0.0823,0.006 0.0267,0.002 0.0524,0.002 0.0771,9e-4 0.0492,-10e-4 0.0941,-0.006 0.13385,-0.0133 0.0198,-0.004 0.0384,-0.008 0.0554,-0.0133 0.0171,-0.005 0.0328,-0.0108 0.0468,-0.0172 0.014,-0.006 0.0264,-0.0134 0.0371,-0.0208 0.0108,-0.007 0.0198,-0.0155 0.027,-0.024 0.007,-0.009 0.0126,-0.0176 0.0159,-0.027 0.0135,-0.0376 -0.004,-0.0818 -0.0624,-0.12905 -0.0145,-0.0118 -0.0314,-0.0238 -0.051,-0.0359 -0.0107,-0.007 -0.0212,-0.0144 -0.0313,-0.0234 -0.0708,-0.0628 -0.12418,-0.1783 -0.12535,-0.27629 0,-0.0187 -0.002,-0.036 -0.005,-0.0518 -0.006,-0.0317 -0.0182,-0.0575 -0.0377,-0.0784 -0.01,-0.0104 -0.021,-0.0198 -0.0344,-0.0278 -0.0134,-0.008 -0.0287,-0.0149 -0.0462,-0.0206 -0.0175,-0.006 -0.0373,-0.0105 -0.0591,-0.0142 -0.0438,-0.007 -0.0965,-0.0107 -0.15933,-0.0107 -7e-4,0 -7e-4,10e-6 -0.002,0 -0.17516,-8e-4 -0.41764,-0.11895 -0.60181,-0.263 -0.13677,-0.13753 -0.23995,-0.26129 -0.23,-0.27662 0.0102,-0.0156 -0.0605,-0.1793 -0.15716,-0.36375 l -0.0298,-0.0568 -0.14593,-0.27847 -0.0424,0.53277 c -0.004,0.0462 -0.006,0.0892 -0.008,0.1296 -0.002,0.0403 -0.002,0.0778 -0.002,0.1125 7e-4,0.0694 0.005,0.12802 0.0143,0.1762 0.004,0.024 0.01,0.0456 0.0163,0.0646 0.0131,0.0381 0.0303,0.0663 0.052,0.0854 0.0108,0.01 0.0229,0.0167 0.0359,0.0217 0.0347,0.0133 0.061,0.0387 0.0784,0.0735 0.0174,0.0348 0.0258,0.079 0.0244,0.13003 -7e-4,0.017 -0.002,0.0346 -0.005,0.053 -7e-4,0.003 -7e-4,0.006 -0.002,0.009 -0.003,0.0156 -0.005,0.0313 -0.01,0.0477 -0.0218,0.0881 -0.0298,0.14117 -0.0238,0.14953 0.001,0.002 0.003,0.002 0.005,0 0.005,-0.004 0.0113,-0.0151 0.0205,-0.035 0.0359,-0.0781 0.11512,-0.14212 0.1761,-0.14212 0.0305,0 0.0509,0.012 0.0591,0.0312 0.004,0.01 0.005,0.0209 0.003,0.0335 -0.002,0.0126 -0.008,0.0266 -0.0167,0.0411 -0.009,0.0145 -0.0144,0.0303 -0.0163,0.0466 -0.001,0.008 -0.001,0.0163 0,0.0245 0.002,0.0246 0.0114,0.049 0.0271,0.0698 0.005,0.007 0.0111,0.0135 0.0178,0.0195 0.007,0.006 0.014,0.0117 0.0219,0.0166 0.0211,0.013 0.0391,0.0335 0.0541,0.0602 0.007,0.0134 0.0142,0.0282 0.0203,0.0446 0.006,0.0164 0.0112,0.0342 0.0158,0.0532 0.004,0.0191 0.008,0.0394 0.0113,0.0609 0.003,0.0215 0.005,0.0442 0.007,0.0679 0.006,0.0948 0.001,0.20548 -0.0155,0.32312 -0.008,0.0588 -0.0192,0.11939 -0.033,0.18045 -0.0275,0.12213 -0.0661,0.24646 -0.11511,0.36375 -0.0703,0.16829 -0.13098,0.37849 -0.15693,0.53255 -0.004,0.0257 -0.008,0.0498 -0.01,0.0719 -0.002,0.0221 -0.004,0.0423 -0.004,0.0599 0,0.0881 -0.0299,0.19107 -0.0752,0.27488 -0.0182,0.0335 -0.0386,0.0639 -0.0608,0.0891 l -0.001,9e-4 c -0.0109,0.0124 -0.0221,0.0235 -0.0337,0.0331 -0.055,0.0456 -0.0928,0.0713 -0.11881,0.0778 0.0196,-0.0969 0.0187,-0.19175 -0.008,-0.28337 0.006,-0.0119 0.0129,-0.0237 0.0203,-0.0335 0.006,-0.008 0.0127,-0.0159 0.0195,-0.0224 0.007,-0.007 0.0137,-0.0121 0.0208,-0.0165 0.007,-0.004 0.0122,-0.0108 0.0158,-0.0185 0.004,-0.008 0.006,-0.0173 0.006,-0.0282 0,-0.0324 -0.0149,-0.0771 -0.0426,-0.12774 -0.0277,-0.0507 -0.068,-0.10731 -0.11827,-0.16379 -0.0168,-0.0188 -0.0338,-0.0368 -0.051,-0.0538 -0.0515,-0.0509 -0.10391,-0.0926 -0.15061,-0.12143 -0.0312,-0.0192 -0.0598,-0.0328 -0.0841,-0.0393 -0.0243,-0.007 -0.0442,-0.006 -0.058,0.002 -0.0342,0.0212 -0.0409,0.0547 -0.0229,0.0881 0.004,0.007 0.008,0.0133 0.0138,0.0198 0.006,0.007 0.0119,0.0129 0.0194,0.0192 0.007,0.006 0.0158,0.0124 0.0252,0.0182 0.0113,0.007 0.0208,0.0139 0.0282,0.0206 0.007,0.007 0.013,0.0133 0.0166,0.0198 0.007,0.0131 0.006,0.0258 -0.002,0.0379 -0.008,0.0121 -0.0247,0.0237 -0.0488,0.035 -0.024,0.0112 -0.0558,0.022 -0.0955,0.0324 -0.0489,0.0128 -0.0906,0.0183 -0.12153,0.017 -0.0206,-8e-4 -0.0365,-0.005 -0.0468,-0.0112 -0.0155,-0.01 -0.0182,-0.0256 -0.005,-0.0468 0.009,-0.0142 0.0134,-0.0276 0.015,-0.04 0.002,-0.0185 -0.003,-0.0343 -0.0156,-0.0454 -0.0123,-0.0111 -0.0315,-0.0176 -0.0563,-0.0176 -0.008,0 -0.0164,0.002 -0.0242,0.004 -0.0156,0.006 -0.0301,0.0163 -0.0429,0.0314 -0.0192,0.0225 -0.0345,0.0543 -0.0437,0.0917 -0.006,0.0249 -0.01,0.0521 -0.01,0.0807 0,0.0286 -0.002,0.0582 -0.006,0.0869 -0.008,0.0575 -0.0222,0.11205 -0.0403,0.15127 -0.009,0.0196 -0.0189,0.0354 -0.0293,0.0457 -0.0104,0.0104 -0.0212,0.0286 -0.0318,0.0523 -0.0212,0.0474 -0.0416,0.11736 -0.0566,0.19407 -0.008,0.0383 -0.0137,0.0783 -0.018,0.11805 -0.0114,0.1071 -0.0719,0.24759 -0.15954,0.39348 -0.0526,0.0875 -0.11504,0.17703 -0.18242,0.26246 -0.0674,0.0854 -0.13972,0.1668 -0.21237,0.23807 -0.0242,0.0238 -0.0485,0.0463 -0.0726,0.0676 -0.0241,0.0213 -0.048,0.0413 -0.0716,0.0597 -0.0472,0.0367 -0.0931,0.0672 -0.13634,0.0896 -0.0217,0.0112 -0.0427,0.0203 -0.0628,0.0273 -0.003,0.001 -0.007,0.003 -0.011,0.005 -0.14608,0.0558 -0.3882,0.24711 -0.50707,0.3767 -0.0963,0.0969 -0.15865,0.18079 -0.13526,0.20638 0.0333,0.0364 0.0439,0.063 0.0412,0.0808 -0.0385,0.0253 -0.0867,0.0174 -0.14779,-0.0236 -0.004,-0.003 -0.007,-0.005 -0.0112,-0.008 -0.01,-0.007 -0.0198,-0.0144 -0.0303,-0.0231 -0.0255,-0.0211 -0.051,-0.0353 -0.0774,-0.0448 -0.004,-0.002 -0.008,-0.004 -0.0119,-0.005 -0.004,-0.001 -0.009,-0.001 -0.0139,-0.002 -0.0937,-0.0219 -0.20089,0.0277 -0.39729,0.1676 -0.0237,0.0169 -0.0477,0.0328 -0.0718,0.0476 -0.12057,0.0741 -0.24283,0.12146 -0.32596,0.12818 -0.0166,0.001 -0.0316,0.001 -0.0448,-10e-4 -0.0132,-0.002 -0.0244,-0.006 -0.0335,-0.0115 -0.041,-0.0256 -0.0664,-0.0332 -0.0751,-0.0246 -0.009,0.009 -0.001,0.0336 0.0242,0.0744 0.0816,0.13202 0.27462,0.16248 0.38585,0.0854 0.009,-0.006 0.0166,-0.0125 0.0241,-0.0197 0.007,-0.007 0.0145,-0.0149 0.0208,-0.0234 0.006,-0.009 0.0119,-0.0176 0.0167,-0.0273 0.0159,-0.032 0.027,-0.0449 0.0321,-0.0397 0.005,0.005 0.004,0.0283 -0.004,0.0682 -0.002,0.01 -0.006,0.0198 -0.0104,0.0297 -0.002,0.004 -0.005,0.007 -0.007,0.0112 -0.009,0.016 -0.0211,0.0318 -0.0364,0.0467 -0.0151,0.0147 -0.0332,0.0281 -0.0526,0.0406 -0.017,0.011 -0.0349,0.0213 -0.0541,0.0298 -0.0275,0.0122 -0.0569,0.0217 -0.0868,0.0272 -0.0299,0.006 -0.0644,0.0169 -0.10073,0.0327 -0.10907,0.0474 -0.23647,0.13428 -0.32029,0.22293 -0.11181,0.11826 -0.25239,0.21509 -0.31245,0.21509 -0.008,0 -0.0149,8e-4 -0.022,0.002 -0.0213,0.005 -0.0405,0.0165 -0.0553,0.0329 -0.01,0.0109 -0.0179,0.0237 -0.0234,0.0381 -0.006,0.0143 -0.009,0.0302 -0.009,0.0467 0,0.0165 0.003,0.0305 0.009,0.0413 0.006,0.0108 0.0141,0.0184 0.0244,0.023 0.0103,0.004 0.0225,0.006 0.0361,0.004 0.007,-0.001 0.0139,-0.003 0.0213,-0.006 0.007,-0.003 0.015,-0.007 0.0228,-0.0115 0.0156,-0.01 0.0306,-0.0159 0.0442,-0.0188 0.0136,-0.003 0.0258,-0.002 0.036,0.001 0.005,0.002 0.01,0.004 0.0138,0.007 0.004,0.003 0.008,0.007 0.0106,0.0115 0.003,0.005 0.005,0.01 0.007,0.0158 0.001,0.006 0.002,0.0126 0.002,0.0198 0,0.01 0.002,0.0194 0.007,0.0287 0.004,0.009 0.0105,0.018 0.0185,0.0266 0.008,0.009 0.0174,0.0168 0.0285,0.0245 0.0135,0.009 0.0296,0.0181 0.0468,0.0263 0.59767,-0.12013 1.18961,-0.26334 1.77461,-0.42854 0.002,-0.0135 0.004,-0.0266 0.006,-0.0394 0.006,-0.007 0.0106,-0.0129 0.0167,-0.0195 0.15395,-0.0701 0.3092,-0.13398 0.46415,-0.17893 0.0498,0.0257 0.10313,0.0409 0.15682,0.0461 3.62621,-1.13572 6.96159,-3.13519 9.69814,-5.87174 0.32044,-0.32044 0.63046,-0.64934 0.93049,-0.9857 -0.0574,-0.0664 -0.12321,-0.11022 -0.17632,-0.11022 -0.0863,0 -0.2915,-0.15003 -0.45598,-0.33336 -0.16448,-0.18332 -0.41623,-0.3495 -0.55933,-0.36929 -0.0375,-0.005 -0.0706,-0.0132 -0.10009,-0.0232 -0.0133,-0.0546 -0.0162,-0.10781 -0.004,-0.15879 l 0.22347,-0.0133 -0.0268,-0.033 0,-2e-4 0,0 c 0.27895,0.0471 0.56424,0.16452 0.56424,0.24547 0,0.0479 0.11509,0.11862 0.25571,0.15715 0.21613,0.0592 0.22924,0.0889 0.0852,0.19124 -0.13449,0.0955 -0.11644,0.10596 0.0853,0.0492 0.15037,-0.0423 0.25571,-0.022 0.25571,0.0493 0,0.0489 0.0262,0.0911 0.0635,0.11021 3.73925,-4.30674 5.81729,-9.83283 5.81729,-15.57358 0,-6.30057 -2.50279,-12.34273 -6.95796,-16.7979 -4.4553,-4.45518 -10.49757,-6.95798 -16.79814,-6.95798 z m -2.21372,8.01163 c 0.85181,0.003 1.60818,0.032 1.79487,0.0881 0.15625,0.0469 0.22014,0.0906 0.14202,0.0968 -0.11672,0.009 -0.15697,0.0606 -0.14147,0.11348 0.005,-0.0754 0.23267,-0.0917 0.68099,-0.0541 -0.0657,-0.016 -0.12661,-0.0337 -0.17001,-0.0534 -0.099,-0.0449 -0.10929,-0.0656 -0.0257,-0.0632 0.0502,10e-4 0.1342,0.0114 0.25299,0.0295 0.25,0.0381 0.47579,0.088 0.50183,0.11098 0.0247,0.0218 0.004,0.0337 -0.0442,0.0381 0.37668,0.0598 0.7483,0.15234 1.13687,0.28446 0.009,-0.006 0.0162,-0.0113 0.0319,-0.0175 0.041,-0.0164 0.0859,-0.0236 0.12534,-0.022 0.0395,0.002 0.0735,0.0119 0.0924,0.0308 0.0325,0.0325 -0.0154,0.0556 -0.10509,0.0586 0.32917,0.11889 0.67229,0.26511 1.04495,0.44531 0.0992,0.048 0.19742,0.0902 0.29045,0.12818 -0.0679,-0.0327 -0.13678,-0.0684 -0.20246,-0.10847 -0.20464,-0.12477 -0.34009,-0.22728 -0.30112,-0.22728 0.12399,-9e-4 2.19002,0.93263 2.48631,1.12325 0.48727,0.31348 0.72238,0.45042 1.21201,0.70581 0.2606,0.13592 0.66975,0.41809 0.90914,0.62708 0.23941,0.20898 0.48304,0.38095 0.54136,0.38215 0.0583,0.001 0.4524,0.36403 0.87572,0.80623 0.54538,0.5697 0.83847,0.98797 1.00585,1.43537 0.0783,0.20914 0.12838,0.3632 0.15639,0.4745 -0.0347,0.0389 -0.0746,0.0747 -0.12034,0.10716 -0.0354,-0.0375 -0.0753,-0.0831 -0.12373,-0.14462 -0.26794,-0.34064 -0.36515,-0.36473 -0.36755,-0.0912 -10e-4,0.15772 -0.0224,0.16628 -0.10128,0.0417 -0.0776,-0.12251 -0.1172,-0.10133 -0.18002,0.0966 -0.0586,0.18462 -0.1146,0.21974 -0.20561,0.12873 -0.17031,-0.1703 -0.72914,-0.15832 -0.79992,0.0171 -0.0106,0.0263 -0.0198,0.0436 -0.0279,0.0535 -0.0168,-0.0264 -0.0278,-0.0505 -0.0367,-0.0734 -7e-4,-0.006 -0.002,-0.008 -0.002,-0.0142 -0.005,-0.0969 0.0523,-0.23756 0.12731,-0.31256 0.075,-0.075 0.10431,-0.13635 0.065,-0.13635 -0.0393,0 -0.16039,0.089 -0.26921,0.19777 -0.14225,0.14227 -0.21103,0.15826 -0.24482,0.0568 -0.0259,-0.0776 -0.097,-0.14092 -0.15802,-0.14092 -0.061,0 -0.0793,0.0511 -0.0406,0.11359 0.0263,0.0425 0.0242,0.0793 0,0.0988 -0.0544,-0.0285 -0.10884,-0.0567 -0.16336,-0.0853 -0.029,-0.0476 -0.0549,-0.10796 -0.0716,-0.17435 -0.0645,-0.25682 -0.29166,-0.39799 -0.92994,-0.57797 -0.14063,-0.0396 -0.25572,-0.11977 -0.25572,-0.17806 0,-0.0583 -0.0767,-0.10585 -0.17044,-0.10585 -0.0937,0 -0.17042,-0.0453 -0.17042,-0.10052 0,-0.0552 -0.0895,-0.13186 -0.19887,-0.17044 -0.10938,-0.0386 -0.27554,-0.0996 -0.3693,-0.13559 -0.14846,-0.057 -0.14865,-0.0504 -0.003,0.0507 0.0919,0.0639 0.13384,0.14934 0.0932,0.18993 -0.0406,0.0406 -0.16549,-0.0334 -0.2776,-0.16433 -0.15859,-0.18522 -0.33557,-0.23796 -0.79697,-0.23796 -0.32616,0 -0.6246,-0.0511 -0.66323,-0.11359 -0.0386,-0.0625 -0.22044,-0.1137 -0.40426,-0.1137 -0.23911,0 -0.33687,-0.0566 -0.34328,-0.19886 -0.005,-0.1188 -0.032,-0.1417 -0.0662,-0.0568 -0.0743,0.18425 -0.68707,0.18498 -0.7484,10e-4 -0.0645,-0.19362 -2.38727,-0.18414 -2.62201,0.0107 -0.0917,0.0761 -0.21053,0.12756 -0.26399,0.11446 -0.0534,-0.0131 -0.23256,0.0422 -0.39804,0.12274 -0.2969,0.14447 -0.43791,0.49847 -0.43791,1.10049 0,0.14843 -0.0639,0.27069 -0.14201,0.27161 -0.0975,10e-4 -0.0902,0.0345 0.0231,0.10618 0.20379,0.12892 0.24698,1.03016 0.0529,1.10463 -0.0883,0.0339 -0.0379,0.15051 0.14364,0.33205 0.18772,0.18774 0.26912,0.38165 0.24733,0.58929 -0.0178,0.17022 -8e-4,0.36102 0.0383,0.42397 0.0389,0.0629 0.10661,0.3054 0.15039,0.53875 0.0438,0.23336 0.12492,0.39607 0.18057,0.36168 0.0556,-0.0344 0.10117,0.013 0.10117,0.10531 0,0.0923 0.0344,0.25714 0.0762,0.36625 0.0568,0.14813 0.0352,0.17626 -0.0853,0.1113 -0.0887,-0.0478 0.005,0.0499 0.20789,0.21705 0.20313,0.16713 0.36941,0.4069 0.36941,0.53298 0,0.10996 0.0875,0.27542 0.20322,0.3938 0.0176,0.11829 0.0319,0.23598 0.0408,0.35264 -0.0104,0.0217 -0.0169,0.0458 -0.0169,0.0716 0,0.085 -0.13175,0.34869 -0.29275,0.58591 -0.16098,0.23723 -0.26809,0.52556 -0.23795,0.6408 0.0301,0.11524 0.009,0.20954 -0.0481,0.20954 -0.0567,0 -0.10292,0.075 -0.10292,0.16651 0,0.0916 -0.10357,0.22197 -0.23034,0.2898 -0.12674,0.0678 -0.20272,0.16832 -0.16868,0.22337 0.034,0.0551 0.002,0.13719 -0.0711,0.18241 -0.0831,0.0514 -0.10249,0.0329 -0.0519,-0.049 0.0446,-0.0722 0.0279,-0.13123 -0.0371,-0.13123 -0.065,0 -0.14783,0.11739 -0.18384,0.26083 -0.0631,0.25147 -0.24801,0.40958 -0.84358,0.72139 -0.21855,0.11448 -0.30016,0.11634 -0.37268,0.008 -0.0557,-0.083 -0.0801,-0.002 -0.0611,0.20278 0.0284,0.30628 0.002,0.33771 -0.26541,0.31049 -0.26157,-0.0267 -0.29044,0.004 -0.24231,0.25571 0.0118,0.0621 0.0163,0.11102 0.0147,0.15095 -0.0929,0.004 -0.18649,4e-4 -0.28076,-0.0109 -0.0277,-0.0637 -0.14749,-0.15721 -0.3094,-0.23403 -0.20586,-0.0977 -0.46704,-0.28013 -0.58036,-0.40535 -0.11332,-0.12523 -0.55512,-0.36094 -0.98167,-0.52394 -0.4266,-0.16301 -1.00989,-0.47538 -1.29631,-0.69406 -0.6453,-0.49273 -1.46713,-0.66069 -1.991,-0.40698 -0.94238,0.45641 -1.60782,2.35934 -1.13403,3.24331 0.15414,0.28765 0.20291,0.53699 0.15878,0.81473 -0.0779,0.4905 0.0252,0.85229 0.24275,0.85229 0.0895,0 0.17053,0.0639 0.18002,0.14201 0.0195,0.15979 0.0589,0.34115 0.0927,0.42615 0.0124,0.0312 0.0357,0.17949 0.052,0.32944 0.0163,0.14995 0.11463,0.33456 0.21813,0.41025 0.10352,0.0757 0.18798,0.1791 0.18798,0.22979 0,0.0507 0.0799,0.18033 0.17751,0.28816 0.15359,0.16974 0.21047,0.60512 0.15715,1.00237 -0.0417,0.18793 -0.10205,0.36907 -0.18034,0.53951 -0.11568,0.15428 -0.28885,0.20821 -0.53321,0.16521 -0.0523,-0.009 -0.1235,0.092 -0.15824,0.22478 -0.0501,0.19164 -0.12543,0.22904 -0.36451,0.18122 -0.26138,-0.0523 -0.32513,-0.005 -0.48102,0.35493 l -0.15357,0.35448 c -0.0119,0.001 -0.0238,0.003 -0.0358,0.004 l -0.0715,-0.42277 c -0.0446,-0.26378 -0.14028,-0.48045 -0.21292,-0.48136 -0.0793,-10e-4 -0.0676,-0.0424 0.0293,-0.10379 0.0291,-0.0184 0.051,-0.0376 0.0679,-0.059 -0.0302,-0.0326 -0.0706,-0.14987 -0.1014,-0.30407 -0.004,-0.0195 -0.006,-0.0344 -0.009,-0.0526 -0.0103,0.0307 -0.0363,0.0244 -0.0798,-0.0192 -0.0652,-0.0652 -0.1263,-0.24674 -0.13568,-0.40327 -0.009,-0.15653 -0.0495,-0.2645 -0.0891,-0.24003 -0.10764,0.0664 -0.35771,-0.59989 -0.28925,-0.77072 0.009,-0.0228 0.0182,-0.0345 0.0265,-0.0377 -0.0302,-0.15543 -0.0512,-0.27898 -0.0575,-0.35797 -0.004,0.008 -0.006,0.0117 -0.01,0.0206 -0.0827,0.20108 -0.0944,0.19192 -0.1015,-0.0786 -0.004,-0.16819 -0.0591,-0.33731 -0.12164,-0.37594 -0.0625,-0.0386 -0.1137,-0.12144 -0.1137,-0.18394 0,-0.0537 0.0386,-0.0729 0.0889,-0.0536 -0.007,-0.0107 -0.0137,-0.0177 -0.0224,-0.0318 l 0,10e-4 c -0.0449,-0.0726 -0.0562,-0.15847 -0.029,-0.20126 -0.10331,-0.002 -0.22239,-0.20093 -0.3888,-0.64624 -0.14425,-0.38608 -0.26926,-0.72749 -0.27748,-0.75875 -0.008,-0.0312 -0.0791,-0.21022 -0.15748,-0.39772 -0.0784,-0.1875 -0.15703,-0.49425 -0.17457,-0.68175 -0.0176,-0.1875 -0.01,-0.2259 0.0175,-0.0853 0.0321,0.166 0.0766,0.24572 0.11598,0.24754 -0.0374,-0.0335 -0.082,-0.17023 -0.10585,-0.33281 -0.028,-0.19048 -9e-4,-0.32756 0.0641,-0.3387 -0.003,-4e-4 -0.006,-0.002 -0.009,-0.002 -0.21086,0 -0.30622,-0.54994 -0.14692,-0.84761 0.005,-0.009 0.008,-0.0175 0.0124,-0.0263 -0.0898,0.0887 -0.1235,0.0258 -0.1235,-0.23055 0,-0.0802 -0.007,-0.16857 -0.0164,-0.25353 -0.004,0.0323 -0.0124,0.0609 -0.0286,0.0771 -0.0378,0.0378 -0.0646,-0.0294 -0.0597,-0.1492 0.003,-0.0827 0.0153,-0.12428 0.0326,-0.12165 0.01,10e-4 0.0214,0.0185 0.0342,0.0492 -0.0114,-0.0616 -0.0239,-0.11764 -0.0381,-0.15464 -0.0479,-0.12444 -0.0332,-0.16789 0.0409,-0.12535 -0.0205,-0.0281 -0.0402,-0.0562 -0.0635,-0.0836 -0.102,-0.12012 -0.12168,-0.18116 -0.0436,-0.13548 7e-4,1e-4 0.001,1e-4 0.002,0.001 -0.008,-0.0113 -0.0167,-0.0226 -0.0257,-0.0371 -0.036,-0.0582 -0.0134,-0.13793 0.0501,-0.17719 0.025,-0.0155 0.0479,-0.017 0.0669,-0.008 -0.0218,-0.0193 -0.0491,-0.0283 -0.0792,-0.0217 -0.0703,0.0156 -0.15381,-0.0428 -0.18536,-0.1296 -0.0313,-0.0861 -0.008,-0.12336 0.0536,-0.0887 -0.006,-0.008 -0.0112,-0.0157 -0.0172,-0.0256 -0.0346,-0.0559 0.0111,-0.13016 0.10128,-0.16477 0.007,-0.003 0.0132,-0.004 0.0198,-0.006 -0.0227,0.002 -0.0486,0.007 -0.08,0.0149 -0.11053,0.0289 -0.17229,0.0156 -0.19962,-0.0464 -0.006,-0.0377 -0.0115,-0.0755 -0.0173,-0.11326 0.002,-0.14509 0.0173,-0.16639 0.0759,-0.087 -0.0149,-0.04 -0.0297,-0.0847 -0.0438,-0.13548 -0.10914,-0.39215 -0.0982,-2.15521 -0.003,-3.39676 -0.0116,0.0467 -0.0238,0.0879 -0.0368,0.11642 -0.0696,0.15299 -0.0809,0.0416 -0.0343,-0.34088 0.038,-0.3125 0.0883,-0.5896 0.11152,-0.61564 0.006,-0.006 0.0105,-0.009 0.0148,-0.008 0.0129,0.002 0.0195,0.0384 0.0231,0.0879 0.02,-0.13602 0.0433,-0.27786 0.0703,-0.42397 -0.0226,0.0435 -0.0395,-0.0476 -0.0395,-0.23349 0,-0.16407 0.013,-0.25543 0.0317,-0.24471 0.006,0.004 0.0131,0.0185 0.0203,0.0458 0.0199,0.0765 0.0252,0.18638 0.0172,0.28338 0.0591,-0.30303 0.12939,-0.61424 0.2067,-0.91938 -0.002,0.003 -0.004,0.006 -0.006,0.008 -0.0378,0.0377 -0.0645,-0.0294 -0.0596,-0.1492 0.003,-0.0827 0.0152,-0.12417 0.0324,-0.12154 0.0103,0.002 0.0226,0.019 0.0362,0.053 0.0151,0.0378 0.0213,0.0785 0.0213,0.11554 0.14012,-0.54052 0.29661,-1.04195 0.43791,-1.37961 -0.0462,0.0559 -0.0822,0.0369 -0.0822,-0.0716 0,-0.004 0.002,-0.008 0.002,-0.0113 0.0199,-0.0409 0.0399,-0.0817 0.0605,-0.1223 0.0151,-0.0166 0.0314,-0.0317 0.0495,-0.0428 0.0161,-0.01 0.0295,-0.0143 0.0396,-0.0143 0.0208,6e-4 0.0282,0.023 0.022,0.0604 0,-6e-4 0.001,-0.002 0.001,-0.002 0.14691,-0.28643 0.32191,-0.56954 0.4844,-0.80024 -0.074,0.0109 -0.1,-0.0125 -0.0529,-0.0596 0.0507,-0.0507 0.0917,-0.0786 0.16793,-0.0979 0.1137,-0.14826 0.21456,-0.25961 0.28512,-0.30843 -0.0168,-10e-4 -0.0338,-10e-4 -0.0505,0.002 -0.086,0.0172 -0.0286,-0.0769 0.12764,-0.20888 0.15625,-0.13199 0.20734,-0.20108 0.11358,-0.15366 -0.22505,0.11383 0.0838,-0.26502 0.95457,-1.17073 0.51185,-0.53242 0.70148,-0.66978 0.81962,-0.58842 -0.003,-0.0305 0.0369,-0.0755 0.10726,-0.12372 -0.0364,-10e-4 -0.0631,-0.0148 -0.0631,-0.0465 0,-0.0246 0.0793,-0.075 0.17632,-0.11217 0.0379,-0.0145 0.068,-0.0213 0.0887,-0.0202 0.0334,0.002 0.0417,0.0233 0.0199,0.061 0.0733,-0.0322 0.15045,-0.0712 0.22598,-0.11261 -0.0471,-0.003 -0.0694,-0.0156 -0.0471,-0.0307 0.026,-0.0177 0.14966,-0.10717 0.27465,-0.19886 0.10513,-0.0771 0.15899,-0.11524 0.1686,-0.11087 0.01,0.004 -0.0252,0.051 -0.0974,0.14299 -0.005,0.006 -0.0106,0.0112 -0.0156,0.0172 0.007,-0.005 0.0166,-0.0117 0.0223,-0.0165 0.10544,-0.0904 0.24613,-0.13137 0.31256,-0.0903 0.004,0.002 0.007,0.003 0.0109,0.005 -0.002,-0.014 -0.004,-0.0305 -0.004,-0.0502 0,-0.0588 0.0504,-0.13835 0.11217,-0.17654 0.0161,-0.01 0.0295,-0.0142 0.0396,-0.0142 0.0308,8e-4 0.0342,0.0454 0.005,0.12121 0,6e-4 -0.001,6e-4 -0.001,0.002 0.0483,-0.0492 0.13805,-0.10613 0.24984,-0.16401 -0.0377,-6e-4 -0.0652,-0.0145 -0.0652,-0.0468 0,-0.0171 0.0394,-0.0466 0.0952,-0.0755 0.008,-0.004 0.0169,-0.008 0.0254,-0.0126 0.0177,-0.008 0.036,-0.0166 0.0558,-0.0242 0.0379,-0.0145 0.068,-0.0211 0.0888,-0.02 0.0346,0.002 0.0431,0.0243 0.0182,0.0646 -0.004,0.007 -0.0112,0.0135 -0.0168,0.0202 0.18021,-0.076 0.38737,-0.14576 0.58557,-0.19037 l 0.2236,-0.0503 c 7e-4,-0.0181 -0.003,-0.0338 -0.0141,-0.0449 -0.0423,-0.0423 0.008,-0.0831 0.11261,-0.0909 0.27751,-0.0208 0.32626,-0.0329 0.70059,-0.17207 0.1875,-0.0697 0.62224,-0.1791 0.96599,-0.24308 0.35774,-0.0666 1.38742,-0.10343 2.381,-0.10771 l 0,-5e-4 c 0.12419,-6e-4 0.24783,-6e-4 0.36952,-1e-4 z m 2.22559,0.44934 c 0.001,0.002 0.002,0.004 0.002,0.006 -7e-4,-0.002 -7e-4,-0.004 -0.002,-0.006 l 0,-2e-4 0,0 z m 0.40687,0.56075 c -0.0213,0.004 -0.0428,0.009 -0.0633,0.0175 -0.017,0.007 -0.0298,0.0133 -0.0386,0.0194 0.009,-0.006 0.0216,-0.0124 0.0386,-0.0192 0.0205,-0.008 0.0419,-0.0141 0.0633,-0.0178 z m -7.52558,0.10346 c -0.0931,0.0639 -0.1808,0.10553 -0.23578,0.10553 0.0626,0 0.14831,-0.0439 0.23578,-0.10553 z m -0.28272,0.1112 c -0.12974,0.0252 -0.39817,0.13349 -0.64363,0.26246 -0.24038,0.12631 -0.48339,0.21762 -0.59179,0.22598 0.0704,0.0146 0.31432,-0.0747 0.57763,-0.21487 0.25252,-0.13442 0.52682,-0.24742 0.65779,-0.27357 z m 2.77611,0.0307 c -0.0223,0.007 -0.0453,0.0134 -0.0685,0.0177 -0.12388,0.0231 -0.25091,0.0466 -0.28217,0.0524 -0.008,0.001 -0.0108,0.006 -0.009,0.0121 -0.001,-0.006 0.002,-0.0104 0.009,-0.0119 0.0313,-0.006 0.15829,-0.0293 0.28217,-0.0524 0.0232,-0.004 0.0462,-0.0105 0.0685,-0.018 z m 4.67118,0.41972 0,2e-4 c 0.0264,-1e-4 0.0535,0.003 0.08,0.008 -0.0265,-0.006 -0.0536,-0.009 -0.08,-0.009 z m -8.79314,0.0338 c -0.0656,0.0127 -0.14513,0.0619 -0.20278,0.13134 -10e-4,10e-4 -0.002,0.002 -0.003,0.003 9e-4,-8e-4 0.002,-10e-4 0.003,-0.002 0.0715,-0.0647 0.1454,-0.11116 0.20311,-0.13243 z m -0.77879,0.42168 c -0.012,-10e-5 -0.0273,0.003 -0.0454,0.01 0.0181,-0.007 0.0334,-0.01 0.0454,-0.01 0.007,1e-4 0.0124,8e-4 0.0171,0.002 -0.005,-0.002 -0.0105,-0.003 -0.0171,-0.003 z m 17.7284,2.01933 c -7e-4,0.0167 0.0137,0.0415 0.037,0.0707 -0.0226,-0.0294 -0.0359,-0.0544 -0.037,-0.0707 z m -19.35305,0.0827 c -0.0281,0.0309 -0.0734,0.0557 -0.13492,0.0702 0.005,-5e-4 0.007,-10e-4 0.0124,-10e-4 0.0588,-0.005 0.10234,-0.0316 0.12251,-0.0688 z m 19.92425,0.2739 c 0.0804,0.0863 0.0794,0.12525 0.0168,0.11087 0.0151,0.004 0.0291,0.008 0.0405,0.008 0.0386,6e-4 0.0113,-0.0474 -0.0573,-0.11849 z m 0.26791,0.27847 0,2e-4 c -0.004,-7e-4 -0.008,-3e-4 -0.01,0.002 -0.0306,0.0306 -0.01,0.11799 0.0301,0.20409 -0.0681,-0.18575 -0.0434,-0.24335 0.0373,-0.16085 -0.024,-0.0259 -0.0447,-0.0435 -0.0573,-0.0456 z m -0.55139,1.77494 c 0.0938,0 0.17054,0.0512 0.17054,0.1137 0,0.0441 -0.0388,0.0823 -0.0943,0.10106 -0.0726,-0.009 -0.14378,-0.0202 -0.21345,-0.0343 -0.0207,-0.0188 -0.0332,-0.0418 -0.0332,-0.0668 0,-0.0625 0.0767,-0.1137 0.17043,-0.1137 z m 1.9003,0.61957 c 0.0226,0.0482 0.0462,0.10396 0.0692,0.16967 0.14778,0.4239 0.0587,0.46565 -0.10041,0.0471 -0.0131,-0.0346 -0.024,-0.0682 -0.0341,-0.10085 0.0163,-0.0376 0.038,-0.0762 0.0653,-0.11587 z m 0.25211,0.66878 c 0.0182,-0.002 0.0401,0.004 0.0635,0.0187 0.0625,0.0386 0.11369,0.0928 0.11369,0.12034 0,0.0276 -0.0512,0.0501 -0.11369,0.0501 -0.0625,0 -0.11359,-0.0543 -0.11359,-0.12045 0,-0.0414 0.0199,-0.0657 0.0501,-0.0687 z m 0.12154,0.0814 c -0.005,0.003 -0.007,0.005 -0.007,0.007 0,9e-4 -0.001,10e-4 -0.001,10e-4 l 0.001,0 c 0.002,0.006 0.016,0.009 0.0254,0.008 0.001,1e-4 0.002,0.001 0.004,0.001 -8e-4,-0.001 -7e-4,-5e-4 -0.002,-0.001 0.007,-10e-4 0.008,-0.005 -0.0202,-0.0155 z m 0.16009,0.61619 0,0 c 0.003,-1e-4 0.006,9e-4 0.009,0.003 0.15307,0.0946 0.24733,1.06484 0.12405,1.27658 -0.0312,0.0536 -0.0536,0.0896 -0.0707,0.11152 -0.0162,-0.0218 -0.0331,-0.0482 -0.0508,-0.0771 -0.001,-0.0202 -0.003,-0.0339 -0.004,-0.0609 -0.004,-0.111 -0.022,-0.39597 -0.0408,-0.66563 0.0687,-0.20297 0.0569,-0.37801 0.003,-0.53571 0.008,-0.0318 0.0178,-0.0516 0.0298,-0.0516 z m -24.24627,1.82579 c 0.004,0.006 0.008,0.0131 0.0126,0.0238 0.0315,0.0781 0.0315,0.206 0,0.28413 -0.005,0.0129 -0.0101,0.0206 -0.0149,0.0259 -7e-4,-0.11094 0.001,-0.22239 0.002,-0.3338 z m 0,0.57012 c 0.005,0.008 0.009,0.0162 0.0144,0.0289 0.0328,0.082 0.0288,0.17994 -0.009,0.21771 -7e-4,6e-4 -9e-4,5e-4 -0.002,10e-4 -0.002,-0.0823 -0.002,-0.16523 -0.003,-0.24798 z m 24.78132,0.2775 0,0 c 0.0945,0 0.15118,0.0853 0.13211,0.19886 -0.0187,0.11111 0.0291,0.18631 0.10847,0.17043 0.0781,-0.0156 0.14201,0.0228 0.14201,0.0853 0,0.0625 -0.0468,0.11358 -0.10423,0.11358 -0.0574,0 -0.17236,0.0172 -0.2556,0.0382 -0.0832,0.021 -0.1126,0.0165 -0.0653,-0.01 0.0472,-0.0263 0.0484,-0.10745 0.003,-0.18024 -0.14712,-0.2353 -0.12992,-0.41634 0.0395,-0.41634 z m -1.87698,0.40099 c 0.012,-5e-4 0.0232,-4e-4 0.0334,4e-4 0.0409,0.003 0.0656,0.0148 0.0656,0.0353 -0.004,0.16749 -0.17787,0.32134 -0.31094,0.27521 -0.21434,-0.0743 -0.1705,-0.22357 0.0853,-0.29046 0.0469,-0.0122 0.0905,-0.0189 0.12666,-0.0204 z m 2.08924,0.43213 c 0.0938,0 0.17044,0.0426 0.17044,0.0946 0,0.0521 -0.0767,0.0947 -0.17044,0.0947 -0.0937,0 -0.17044,-0.0427 -0.17044,-0.0947 0,-0.0521 0.0767,-0.0946 0.17044,-0.0946 z m -24.89012,0.12818 0,0 c 0.007,0.003 0.0143,0.0134 0.0222,0.0329 0.0315,0.0781 0.0315,0.2059 0,0.28403 -0.003,0.008 -0.006,0.0127 -0.009,0.0176 -0.0136,-0.098 -0.0264,-0.19622 -0.0384,-0.29459 0.006,-0.0294 0.0149,-0.0438 0.025,-0.04 z m 21.35211,0.10052 0,0 c 0.0103,0.002 0.0226,0.019 0.0361,0.053 0.0327,0.082 0.0286,0.17994 -0.009,0.2177 -0.0378,0.0378 -0.0645,-0.0294 -0.0596,-0.1492 0.003,-0.0827 0.0152,-0.12417 0.0325,-0.12154 z m -21.04315,0.25811 c -0.005,0.008 -0.0394,0.28583 -0.0684,0.34185 0.0358,0.0103 0.0528,-0.063 0.0627,-0.24155 0.006,-0.0756 0.007,-0.10293 0.006,-0.1003 z m 0.12993,0.5638 c -10e-4,0.003 -0.002,0.005 -0.003,0.008 7e-4,-0.002 9e-4,-0.003 0.002,-0.004 10e-4,-10e-4 10e-4,-0.002 10e-4,-0.003 l -7e-4,0 z m 24.94675,0.2935 c 0.11309,0.002 0.13008,0.082 0.17654,0.26715 0.054,0.21493 -0.0202,0.41055 -0.30015,0.79109 -0.20452,0.27802 -0.415,0.50743 -0.46764,0.50989 -0.0526,0.002 -0.21481,0.0983 -0.36058,0.21291 -0.22468,0.17673 -0.2447,0.24364 -0.13156,0.43965 0.45321,0.78517 0.52731,0.9428 0.44368,0.9428 -0.0513,0 -0.25708,-0.31034 -0.4574,-0.68959 -0.65179,-1.23397 -0.44962,-2.02605 0.59962,-2.34855 0.26344,-0.081 0.40952,-0.1268 0.49749,-0.12535 z m -24.87139,0.15378 c 0,0.0125 -7e-4,0.0232 -0.002,0.0343 7e-4,-0.009 0.002,-0.0186 0.002,-0.0293 0,-0.002 4e-5,-0.003 0,-0.005 l -7e-4,0 z m 22.11913,0.21367 c 0.0703,-0.006 0.15649,0.0114 0.2385,0.0591 0.18976,0.11047 0.19015,0.11642 0.001,0.11969 -0.10939,0.002 -0.19908,0.0547 -0.19908,0.11718 0,0.14393 0.0736,0.14298 0.3485,-0.004 0.13249,-0.0709 0.21966,-0.0746 0.21966,-0.009 0,0.003 -0.001,0.007 -0.003,0.01 -0.003,0.008 -0.007,0.0167 -0.011,0.0248 -0.0378,0.0588 -0.15699,0.13573 -0.29884,0.18754 -0.21891,0.0799 -0.24911,0.11679 -0.10128,0.12306 0.14424,0.006 0.18915,0.0659 0.14201,0.18874 -0.0379,0.0989 -0.069,0.22674 -0.069,0.28413 0,0.0574 -0.0384,0.0962 -0.0853,0.0863 -0.0469,-0.01 -0.17537,0.0214 -0.28556,0.0696 -0.12129,0.053 -0.2755,0.0264 -0.39107,-0.0673 -0.11195,-0.0908 -0.15741,-0.0991 -0.11,-0.02 0.0728,0.12141 -0.12459,0.36414 -0.6567,0.80732 -0.14782,0.12312 -0.17611,0.11401 -0.17762,-0.0568 -0.001,-0.15985 -0.023,-0.16972 -0.10096,-0.0466 -0.0546,0.0861 -0.15498,0.12202 -0.22325,0.0798 -0.0683,-0.0422 -0.0357,0.0792 0.0724,0.26976 0.10814,0.19054 0.26056,0.32235 0.3387,0.29296 0.005,-0.002 0.009,-0.002 0.0142,-0.003 0.0114,0.0598 0.0164,0.11668 0.0152,0.17098 -0.0632,0.005 -0.24446,0.1301 -0.40949,0.28305 -0.21648,0.20063 -0.34709,0.25058 -0.44433,0.16989 -0.0961,-0.0798 -0.22532,-0.0455 -0.42745,0.11348 -0.15932,0.12533 -0.33267,0.22711 -0.38531,0.22619 -0.0526,-0.001 -0.0192,-0.0512 0.0746,-0.11184 0.12512,-0.0809 0.0447,-0.11079 -0.30286,-0.11206 -0.26042,-9e-4 -0.493,-0.0601 -0.51676,-0.13145 -0.0238,-0.0713 -0.21796,-0.14858 -0.43159,-0.17197 -0.16466,-0.018 -0.3078,-0.058 -0.40622,-0.10226 -0.0159,-0.0552 -0.0222,-0.11336 -0.0172,-0.17425 0.0107,-10e-4 0.0204,-0.002 0.0327,-0.003 0.12187,-0.007 0.26564,-0.005 0.31953,0.004 0.0497,0.009 0.14365,-0.0579 0.21825,-0.1505 0.0846,-0.001 0.15187,-0.006 0.24002,-0.008 0.0493,0.0935 0.18603,0.16727 0.3179,0.16727 l 0.25604,0 -0.24776,-0.17359 c -0.10114,-0.0708 -0.1589,-0.1629 -0.17642,-0.24918 0.013,-0.0145 0.0239,-0.0276 0.0387,-0.0437 -0.0133,9e-4 -0.0296,0.003 -0.044,0.004 -0.007,-0.12002 0.0681,-0.21977 0.22064,-0.21977 0.30782,0 0.15307,-0.17081 -0.17556,-0.19374 -0.26536,-0.0185 -0.34129,0.0279 -0.37181,0.22728 -0.0235,0.15386 -0.10314,0.23416 -0.20615,0.20823 -0.28631,-0.0721 -1.36592,-0.004 -1.80119,0.1137 -0.01,0.003 -0.0202,0.005 -0.0303,0.006 -0.0502,-0.0956 -0.027,-0.23113 0.10041,-0.41798 0.32111,-0.24588 0.85265,-0.54047 1.21582,-0.63797 0.2537,-0.0681 0.5634,-0.18013 0.68839,-0.24896 0.12499,-0.0688 0.27837,-0.1297 0.34087,-0.13515 0.14844,-0.013 0.77913,-0.31594 0.8523,-0.40937 0.0202,-0.0257 0.13018,-0.0921 0.27237,-0.16837 0.1532,-0.0472 0.30581,-0.0924 0.45664,-0.1333 0.3036,-0.0735 0.6094,-0.1351 0.91589,-0.18579 0.0258,0.001 0.0494,0.002 0.0765,0.003 0.39705,0.0225 0.739,0.0919 0.75984,0.15442 0.0208,0.0625 0.0878,0.11359 0.14876,0.11359 0.061,0 0.0814,-0.0476 0.0454,-0.10574 -0.0652,-0.1054 0.008,-0.18007 0.12469,-0.19015 l 0,-10e-5 z m -16.55025,0.42669 0,0 c 0.34524,-0.0119 0.64738,0.20121 0.69972,0.49345 0.0306,0.17058 -0.0336,0.22021 -0.30221,0.23404 -0.13518,0.007 -0.29061,-9e-4 -0.4023,-0.0177 -0.0505,-0.0157 -0.10089,-0.0304 -0.15094,-0.0437 -0.0958,-0.053 -0.23364,-0.17665 -0.33129,-0.3008 -0.15305,-0.19458 -0.25724,-0.23676 -0.3999,-0.16183 -0.67088,0.3524 -1.05945,0.47139 -1.18621,0.36385 -0.001,-0.0159 -0.001,-0.0318 -0.003,-0.0476 0.1413,-0.18642 0.34413,-0.34373 0.57252,-0.46274 0.10131,-0.0155 0.21078,-0.0255 0.32726,-0.0273 0.40503,-0.006 0.59181,0.0207 0.75754,0.13515 -0.0991,-0.13468 0.0388,-0.16104 0.41831,-0.0834 0.23965,0.049 0.40951,0.15645 0.43334,0.2739 3e-5,-8e-4 0,-10e-4 0,-0.002 -0.0218,-0.11311 -0.18371,-0.22923 -0.37769,-0.27074 -0.12036,-0.0258 -0.19228,-0.0425 -0.22173,-0.054 0.0143,0.002 0.0268,0.004 0.0429,0.007 l 0,-0.029 c 0.0303,-0.002 0.0678,-0.005 0.12306,-0.006 z m 0.39739,0.50521 c -0.0585,0.0539 -0.17401,0.058 -0.3095,0.014 0.13385,0.046 0.25066,0.0426 0.3095,-0.014 z m -2.48282,0.4329 c 0.0144,0.003 0.0309,0.0128 0.0492,0.031 0.0674,0.0674 0.1057,0.26943 0.0852,0.44891 -0.0306,0.26785 -0.0527,0.2889 -0.12263,0.11805 -0.11746,-0.28689 -0.11271,-0.61769 -0.0118,-0.598 z m 3.06187,0.33434 c 0.0275,0.0845 0.0464,0.21918 0.0464,0.36091 0,0.40634 -0.22905,0.6224 -0.6603,0.6224 -0.12145,0 -0.28462,0.0767 -0.36243,0.17044 -0.0778,0.0937 -0.23755,0.17043 -0.35514,0.17043 -0.17137,0 -0.20814,-0.0733 -0.18503,-0.3693 0.008,-0.10077 0.03,-0.20805 0.0591,-0.30025 0.0858,-0.0677 0.19345,-0.12943 0.31484,-0.18677 0.0607,0.0743 0.35069,0.11355 0.56391,0.0582 0.0625,-0.0163 0.20858,-0.025 0.32454,-0.0195 0.16952,0.008 0.20148,-0.0547 0.16271,-0.31887 -0.008,-0.0537 -0.0104,-0.0992 -0.0104,-0.14006 0.0344,-0.0158 0.0705,-0.0314 0.10181,-0.0476 z m 11.7607,0.73544 c 0.008,0.0174 0.016,0.0372 0.0253,0.0614 0.002,0.004 0.004,0.008 0.006,0.0122 l -0.073,-0.0353 0.0413,-0.0383 z m -17.92953,0.28119 c -0.0109,0.0103 -0.0196,0.0225 -0.0257,0.0361 0.006,-0.0136 0.0151,-0.0258 0.0259,-0.0361 l 0,0 z m 6.62352,0.14289 c 0.0831,-0.003 0.0522,0.14242 -0.12415,0.31876 -0.1926,0.19259 -0.22937,0.35025 -0.0568,0.24363 0.0625,-0.0386 0.11369,-0.0193 0.11369,0.0432 0,0.14874 -0.17535,0.25472 -0.26812,0.16194 -0.0738,-0.0738 -0.0888,-0.19359 -0.0561,-0.32007 0.12085,-0.11333 0.23697,-0.2615 0.36462,-0.44161 0.01,-0.003 0.0191,-0.006 0.0269,-0.006 l 0,-1e-4 z m -0.87222,0.74633 c 0.0395,0.002 0.0735,0.012 0.0923,0.0309 0.0378,0.0378 -0.0293,0.0646 -0.14908,0.0597 -0.13237,-0.005 -0.15937,-0.0323 -0.0687,-0.0686 0.041,-0.0164 0.086,-0.0234 0.12546,-0.0218 l 0,-2e-4 z m -0.8473,0.48931 c 0.0455,0.003 0.11356,0.0479 0.17284,0.11936 0.16394,0.19753 0.13243,0.21617 -0.10814,0.064 -0.0919,-0.0582 -0.13756,-0.13527 -0.10139,-0.17142 0.009,-0.009 0.0215,-0.0129 0.0367,-0.012 z m -3.95272,0.79762 c 0.0274,0.0464 0.0377,0.11723 0.0126,0.19244 -0.006,0.0184 -0.0118,0.029 -0.0176,0.0416 0.0252,-0.0192 0.0417,-0.0609 0.0417,-0.11947 0,-0.0527 -0.0134,-0.0912 -0.0367,-0.11457 z m 0.24123,0.76724 c -0.003,-10e-5 -0.006,4e-4 -0.008,0.001 -0.004,0.002 -0.009,0.006 -0.014,0.0108 0.009,0.008 0.0189,0.0155 0.0304,0.0281 0.0349,0.0382 0.068,0.10948 0.0966,0.19494 -0.0142,-0.0469 -0.0294,-0.0947 -0.0465,-0.14386 -0.0207,-0.0592 -0.0384,-0.0903 -0.0579,-0.0914 z m 0.14747,0.39119 c 0.0435,0.18724 0.0627,0.3882 0.0336,0.46405 0.034,-0.068 0.0209,-0.24178 -0.0336,-0.46405 z m -0.13059,0.28315 c 0.0136,0.12016 0.0644,0.21259 0.12144,0.21259 0.002,0 0.004,-10e-4 0.006,-10e-4 -0.0388,-0.005 -0.0882,-0.0904 -0.12699,-0.21128 l 0,0 z m 6.117,0.57938 c 0.0731,-0.003 0.13885,0.0951 0.13885,0.29611 0,0.3823 -0.10044,0.70843 -0.21094,0.68502 -0.0402,-0.009 -0.18817,-0.0375 -0.32878,-0.0646 -0.31281,-0.0602 -0.33287,-0.21411 -0.038,-0.29121 0.11971,-0.0313 0.23479,-0.17373 0.25571,-0.3167 0.0296,-0.20215 0.11005,-0.30582 0.18318,-0.30864 z m -0.0475,0.24057 c -0.0172,-0.003 -0.029,0.0389 -0.0324,0.12165 -0.005,0.11979 0.0219,0.18685 0.0597,0.14909 0.0379,-0.0378 0.0421,-0.13555 0.009,-0.21759 -0.0136,-0.034 -0.026,-0.0516 -0.0363,-0.0532 l 0,0 z m -1.48655,0.54965 c 0.24873,0.0528 0.42965,0.0524 0.5808,0.009 0.10982,0.0345 0.16663,0.0781 0.15127,0.12491 -0.0644,0.19655 -0.56494,0.20659 -0.81211,0.0163 -0.0143,-0.011 -0.0254,-0.0204 -0.0379,-0.0305 0.01,-0.0183 0.023,-0.0373 0.0437,-0.0577 l 0.0379,0.0613 c 0.002,-0.0353 0.0127,-0.0756 0.0364,-0.12306 l 0,-10e-5 z m -4.72879,2.59434 7e-4,4e-4 c -0.0486,-4e-4 -0.0659,0.0363 -0.0159,0.11719 0.0403,0.0652 0.0115,0.19311 -0.064,0.28413 -0.15379,0.1853 -0.38956,0.22893 -0.28011,0.0518 0.13818,-0.22358 -0.0554,-0.10748 -0.42626,0.2556 -0.20748,0.20313 -0.67696,0.63786 -1.04331,0.96599 -0.49015,0.43903 -0.60764,0.59658 -0.44477,0.59658 0.12174,0 0.28184,-0.0606 0.3558,-0.1346 0.074,-0.074 0.16837,-0.1004 0.20986,-0.0589 0.005,0.005 0.008,0.0123 0.008,0.0212 -0.0342,0.0533 -0.0672,0.10754 -0.0975,0.16444 -0.0533,0.0624 -0.12491,0.13337 -0.20954,0.20442 -0.76629,0.64343 -1.24947,1.20961 -1.24947,1.46423 0,0.14275 -0.0722,0.30059 -0.16053,0.35057 -0.21075,0.11921 -1.20308,1.57217 -1.20308,1.76187 0,0.13708 -0.3307,0.59078 -0.735,1.0089 -0.0957,0.099 -0.17414,0.23452 -0.17414,0.30112 0,0.0666 -0.17457,0.38061 -0.38792,0.69765 -0.007,0.01 -0.0119,0.0187 -0.0182,0.0282 0.12851,0.1347 0.25859,0.26817 0.39054,0.40012 2.53368,2.53368 5.58084,4.43541 8.89671,5.60492 0.027,-0.0277 0.056,-0.0549 0.0888,-0.0811 0.15874,-0.12704 0.15349,-0.15959 -0.0498,-0.30788 -0.125,-0.0912 -0.27838,-0.2216 -0.34088,-0.28979 -0.0533,-0.0582 -0.16242,-0.16772 -0.26158,-0.2641 -0.0358,-0.13116 -0.0632,-0.27006 -0.0847,-0.41613 0.002,0 0.003,-9e-4 0.005,-9e-4 0.0937,0 0.17045,0.0713 0.17044,0.15835 0,0.0871 0.0767,0.18749 0.17043,0.22348 0.19383,0.0744 0.23382,-0.10196 0.049,-0.21618 -0.0668,-0.0413 -0.094,-0.14661 -0.0604,-0.23404 0.0335,-0.0874 -0.001,-0.15983 -0.0773,-0.16074 -0.0971,-10e-4 -0.0925,-0.0309 0.0156,-0.0994 0.10925,-0.0692 0.1169,-0.12054 0.0265,-0.17643 -0.0702,-0.0434 -0.0913,-0.13932 -0.0471,-0.21313 0.0443,-0.0738 -0.0155,-0.0575 -0.13297,0.0363 -0.0559,0.0446 -0.0954,0.0745 -0.12361,0.0925 -0.0106,-0.0219 -0.0222,-0.045 -0.0333,-0.0674 0.006,-0.0167 0.008,-0.028 0.0167,-0.0501 0.0371,-0.099 0.006,-0.23037 -0.0758,-0.3388 -0.004,-0.0549 -0.01,-0.11075 -0.0144,-0.16652 0.11532,0.0277 0.14025,-0.0584 0.13167,-0.38792 -0.006,-0.24492 -0.0382,-0.44527 -0.0705,-0.44532 -0.0557,-5e-5 -0.11026,-0.3144 -0.153,-0.88071 -0.0106,-0.14063 -0.0606,-0.25571 -0.11119,-0.25571 -0.0506,0 -0.0603,-0.0511 -0.0217,-0.11359 0.0386,-0.0625 0.016,-0.1137 -0.0502,-0.1137 -0.0662,0 -0.12024,-0.0797 -0.12024,-0.17719 0,-0.0974 -0.0516,-0.14519 -0.11456,-0.10629 -0.0262,0.0162 -0.0508,0.0192 -0.0736,0.0142 -0.0252,-0.13847 -0.0521,-0.27683 -0.0819,-0.41461 0.006,-0.01 0.012,-0.019 0.0191,-0.0277 0.17853,-0.21771 0.10349,-0.77349 -0.17653,-1.30893 -0.13993,-0.26756 -0.25431,-0.59261 -0.25431,-0.72237 0,-0.17206 -0.0505,-0.21654 -0.18655,-0.16434 -0.008,0.003 -0.0121,0.003 -0.0194,0.006 -0.0124,-0.0385 -0.025,-0.0768 -0.0375,-0.11522 0.0974,-0.20657 0.0897,-0.81157 -0.0223,-0.92363 -0.0413,-0.0413 -0.0754,-0.1672 -0.0754,-0.27967 0,-0.23351 -0.34743,-1.02797 -0.49725,-1.13686 -0.006,-0.004 -0.0106,-0.009 -0.0153,-0.0144 -0.0101,-0.036 -0.0213,-0.0723 -0.0318,-0.10847 0.003,-0.0261 0.0109,-0.0529 0.0259,-0.0771 0.1174,-0.18997 -0.0402,-0.57992 -0.23437,-0.57992 -0.0342,0 -0.0602,0.007 -0.0788,0.0183 -0.0141,-0.0609 -0.0281,-0.1219 -0.0414,-0.18285 0.009,-0.009 0.016,-0.0173 0.0257,-0.027 0.17963,-0.17964 0.1831,-0.21056 0.0273,-0.24057 -0.0489,-0.009 -0.0927,-0.0498 -0.13047,-0.1149 -0.0587,-0.31712 -0.1039,-0.63479 -0.13134,-0.95346 -0.001,-0.045 -0.004,-0.0852 -0.008,-0.12307 0.031,-0.15354 0.10318,-0.25298 0.22532,-0.34229 0.18,-0.13161 0.15755,-0.1488 -0.20583,-0.15911 -0.22424,-0.006 -0.43621,0.0344 -0.47102,0.0907 -0.0379,0.0614 -0.10133,0.0936 -0.15802,0.098 -0.0214,-0.0812 -0.011,-0.1713 0.0355,-0.27216 0.14086,-0.11271 0.39653,-0.28964 0.856,-0.59713 0.0245,-0.0164 -0.0202,-0.10784 -0.0992,-0.20311 -0.0905,-0.10905 -0.20496,-0.17082 -0.26748,-0.17174 z m -3.2506,1.29728 c -0.12286,0 -0.18514,0.0598 -0.15203,0.14605 0.0308,0.0804 0.07,0.14615 0.0869,0.14615 0.0169,0 0.0852,-0.0658 0.15192,-0.14615 0.0913,-0.11 0.0699,-0.14605 -0.0868,-0.14605 z m -0.77966,0.0666 0,2e-4 c -0.0612,0.006 -0.13718,0.0647 -0.1749,0.16303 -0.0422,0.11003 -0.009,0.14374 0.1014,0.1015 0.0906,-0.0348 0.16456,-0.10897 0.16456,-0.16478 0,-0.0613 -0.0276,-0.0929 -0.0659,-0.0991 -0.008,-0.002 -0.0165,-0.002 -0.0252,-9e-4 z m 4.27596,0.20768 c -0.007,0.002 -0.0133,0.006 -0.0199,0.0125 -0.0531,0.0529 -0.0625,0.2036 -0.0208,0.33489 0.10726,0.33793 0.16903,0.29595 0.14114,-0.0961 -0.0115,-0.16114 -0.0543,-0.2637 -0.10041,-0.25135 z m -4.68402,0.0188 c -0.0152,3e-4 -0.0262,0.0451 -0.0443,0.13482 -0.0258,0.12765 -0.10354,0.16827 -0.23066,0.12067 -0.16768,-0.0628 -0.17204,-0.0474 -0.0346,0.12154 0.19502,0.23972 0.49404,0.0472 0.37921,-0.24417 -0.035,-0.0888 -0.0544,-0.13286 -0.0696,-0.13286 z m 0.96044,0.34011 c -0.0662,0 -0.12035,0.0511 -0.12035,0.11359 0,0.0625 0.0227,0.11359 0.0502,0.11359 0.0276,0 0.0816,-0.0511 0.12023,-0.11359 0.0386,-0.0625 0.0161,-0.11359 -0.0501,-0.11359 z m -1.46554,0.11751 c -0.0752,-0.004 -0.15656,0.008 -0.21825,0.0376 -0.0353,0.0169 -0.064,0.0394 -0.0815,0.0676 -0.005,0.007 -0.0106,0.0144 -0.0174,0.0205 -0.0479,0.0427 -0.14599,0.0512 -0.23524,0.017 -0.0618,-0.0237 -0.10132,-0.0303 -0.11859,-0.0202 -0.0173,0.0102 -0.0123,0.0375 0.0152,0.082 0.0302,0.0489 0.0281,0.0886 -0.001,0.11152 -0.0177,0.0138 -0.0451,0.0215 -0.0815,0.0215 -0.0454,0 -0.0948,0.021 -0.13765,0.0549 -0.0214,0.0169 -0.0413,0.0369 -0.0583,0.0592 -0.008,0.0111 -0.0162,0.0228 -0.0231,0.0349 -0.007,0.0121 -0.0128,0.0245 -0.0178,0.0373 -0.0197,0.0513 -0.0452,0.0903 -0.0705,0.11184 -0.0126,0.0107 -0.025,0.0173 -0.0367,0.0187 -0.006,8e-4 -0.0118,3e-4 -0.0171,-0.002 -0.005,-0.002 -0.0102,-0.005 -0.0149,-0.01 -0.005,-0.005 -0.0102,-0.008 -0.0169,-0.0101 -0.0467,-0.0148 -0.13907,0.0309 -0.22119,0.11304 -0.0234,0.0234 -0.0549,0.0478 -0.0918,0.0714 -0.11076,0.0711 -0.26989,0.13738 -0.40415,0.16423 -0.0301,0.006 -0.0574,0.0137 -0.0834,0.022 -0.12997,0.0377 -0.2127,0.0905 -0.18807,0.13036 0.0183,0.0297 -0.0385,0.0683 -0.13212,0.10346 -0.0416,-0.002 -0.0904,-0.006 -0.14701,-0.0145 -0.0931,-0.0137 -0.16433,-0.0183 -0.22282,-0.0137 0.12777,0.13071 0.1203,0.15073 -0.0493,0.15073 -0.0721,0 -0.12178,-0.0218 -0.13744,-0.0541 -0.0197,0.0274 -0.0373,0.0598 -0.0538,0.10063 -0.0291,0.072 -0.0487,0.11908 -0.0631,0.14637 -0.009,-0.002 -0.0184,-0.004 -0.0285,-0.0107 -0.001,-0.001 -0.004,-1e-4 -0.005,-0.001 -0.003,-0.0311 -0.005,-0.0798 -0.007,-0.15073 -0.003,-0.12199 0.032,-0.20113 0.12089,-0.25691 -0.003,0 -0.005,-0.001 -0.008,-0.001 -0.0662,0 -0.12045,0.0699 -0.12045,0.1553 0,0.22042 -0.55654,0.56936 -1.09973,0.73707 0.6978,1.14162 1.49444,2.22773 2.38405,3.24528 0.005,-0.007 0.009,-0.0135 0.0146,-0.0189 0.0121,-0.0123 0.0258,-0.0213 0.0405,-0.0258 0.007,-0.002 0.0151,-0.003 0.0229,-0.003 0.008,0 0.0157,-7e-4 0.023,-0.002 0.0221,-0.005 0.0417,-0.0156 0.0572,-0.031 0.0103,-0.0103 0.0189,-0.0225 0.0246,-0.036 0.003,-0.007 0.005,-0.0138 0.007,-0.0211 0.001,-0.007 0.002,-0.0149 0.002,-0.0228 0,-0.0156 -0.005,-0.0304 -0.0129,-0.044 -0.008,-0.0136 -0.0204,-0.0258 -0.0352,-0.036 -0.0223,-0.0155 -0.0508,-0.0266 -0.0827,-0.0311 -0.0106,-10e-4 -0.0218,-0.002 -0.033,-0.002 -0.0112,0 -0.0228,-9e-4 -0.0344,-0.003 -0.0351,-0.005 -0.0714,-0.0179 -0.10455,-0.0355 -0.002,-9e-4 -0.003,-0.002 -0.005,-0.003 0.0339,-0.055 0.0695,-0.11158 0.10084,-0.16412 0.007,10e-4 0.0124,0.002 0.0199,0.003 0.23551,0.045 0.30091,0.013 0.30091,-0.14724 0,-0.0281 0.004,-0.0572 0.01,-0.0856 0.006,-0.0284 0.0157,-0.0561 0.027,-0.0817 0.006,-0.0128 0.012,-0.0249 0.0186,-0.0364 0.0134,-0.023 0.0288,-0.043 0.0451,-0.0586 0.008,-0.008 0.0166,-0.0143 0.0252,-0.0197 0.0549,-0.0339 0.0722,-0.067 0.0514,-0.10313 -0.004,-0.007 -0.01,-0.0145 -0.0171,-0.022 -0.0144,-0.015 -0.0349,-0.0308 -0.0616,-0.0473 -0.0246,-0.0152 -0.0429,-0.0286 -0.0581,-0.0417 0.0487,-0.0906 0.0975,-0.18028 0.14442,-0.26791 0.0406,-0.0253 0.0681,-0.0257 0.0905,9e-4 0.0117,0.0139 0.0221,0.035 0.0324,0.0631 0.006,0.017 0.0129,0.0323 0.0194,0.0462 0.0131,0.0277 0.0267,0.0494 0.0404,0.0653 0.0137,0.016 0.0274,0.0262 0.0408,0.0313 0.007,0.003 0.0134,0.004 0.0199,0.004 0.007,0 0.0128,-10e-4 0.019,-0.004 0.0122,-0.005 0.0235,-0.0148 0.0334,-0.0291 0.025,-0.0358 0.0415,-0.0994 0.0426,-0.18416 7e-4,-0.0339 -0.002,-0.0712 -0.007,-0.11152 -0.007,-0.0553 -0.007,-0.1095 -0.002,-0.16314 0.003,-0.0268 0.008,-0.0536 0.0138,-0.0802 0.0125,-0.0532 0.0316,-0.10596 0.0575,-0.1589 0.0259,-0.0529 0.0586,-0.10581 0.0982,-0.15944 0.0198,-0.0268 0.0415,-0.0537 0.0648,-0.0808 0.11291,-0.13138 0.21038,-0.2844 0.25212,-0.38901 0.014,-0.0349 0.0217,-0.0644 0.0217,-0.0859 0,-0.0108 0.001,-0.0217 0.003,-0.0327 0.002,-0.011 0.006,-0.0222 0.01,-0.0332 0.0129,-0.033 0.0344,-0.0651 0.0615,-0.0924 0.009,-0.009 0.0188,-0.0177 0.0289,-0.0255 0.0203,-0.0157 0.0424,-0.0287 0.0657,-0.0377 0.0233,-0.009 0.0438,-0.0205 0.0609,-0.0334 0.0171,-0.0129 0.0308,-0.0274 0.0405,-0.0426 0.01,-0.0151 0.0153,-0.0308 0.0164,-0.0463 7e-4,-0.008 -7e-4,-0.0154 -0.002,-0.023 -0.002,-0.007 -0.005,-0.0147 -0.009,-0.0217 -0.009,-0.014 -0.0119,-0.0274 -0.0104,-0.0395 0.002,-0.0121 0.008,-0.0232 0.0181,-0.0323 0.0104,-0.009 0.0248,-0.0166 0.0428,-0.0218 0.0179,-0.005 0.0394,-0.008 0.0637,-0.008 0.0387,0 0.0733,-0.0138 0.1014,-0.0381 0.0188,-0.0163 0.0347,-0.0371 0.047,-0.062 0.0184,-0.0371 0.029,-0.0829 0.029,-0.13395 1e-5,-0.0762 -0.0126,-0.12786 -0.0366,-0.15443 -0.006,-0.007 -0.0125,-0.0118 -0.0198,-0.0153 -0.0223,-0.0104 -0.051,-0.007 -0.0856,0.012 -0.006,0.003 -0.008,0.003 -0.0119,0.004 0.001,-0.0102 0.002,-0.0186 0.003,-0.0282 0.0353,-0.0523 0.14107,-0.16816 0.29307,-0.31714 0.10576,-0.10365 0.19717,-0.20786 0.26856,-0.30025 0.0892,-0.11547 0.14725,-0.2125 0.16293,-0.26682 0.003,-0.011 0.004,-0.0202 0.004,-0.0274 -7e-4,-0.007 -0.002,-0.0126 -0.006,-0.0158 -7e-4,-0.001 -0.002,-0.001 -0.003,-0.001 -0.013,-0.007 -0.0404,0.002 -0.0859,0.0332 -0.032,0.0221 -0.0725,0.0549 -0.12231,0.1 -0.0403,0.0365 -0.0941,0.0684 -0.15497,0.0952 -0.14198,0.0625 -0.32244,0.0968 -0.45871,0.0935 -0.009,-2e-4 -0.0168,-8e-4 -0.0254,-0.002 -0.0108,-0.0676 -0.0158,-0.15453 -0.0169,-0.25767 0.0217,-0.0128 0.0438,-0.0255 0.0677,-0.0364 0.0258,-0.0117 0.0483,-0.0225 0.068,-0.033 0.0196,-0.0105 0.0362,-0.0207 0.0499,-0.0311 0.0137,-0.0105 0.0245,-0.0211 0.0323,-0.0327 0.0237,-0.0347 0.0217,-0.077 -0.003,-0.14288 -0.0166,-0.0439 -0.0434,-0.0984 -0.0796,-0.16783 -0.10205,-0.19589 -0.12753,-0.26433 -0.0763,-0.26431 0.009,0 0.0193,0.002 0.0321,0.005 0.0129,0.004 0.0279,0.009 0.045,0.0154 0.022,0.008 0.0429,0.013 0.062,0.0139 0.0192,9e-4 0.0365,-0.002 0.051,-0.008 0.029,-0.0117 0.0468,-0.0363 0.0468,-0.0709 0,-0.0193 -0.007,-0.0364 -0.0181,-0.0512 -0.006,-0.007 -0.0127,-0.0143 -0.0208,-0.0206 -0.008,-0.006 -0.0173,-0.0118 -0.0273,-0.017 -0.0202,-0.0103 -0.0438,-0.0183 -0.0698,-0.024 -0.0227,-0.005 -0.0471,-0.008 -0.0722,-0.01 z m 6.47279,0.0217 c 0.0509,0.0751 0.10547,0.181 0.15715,0.3192 0.3317,0.88691 0.71398,1.71318 0.87887,1.89986 0.0964,0.10913 0.27206,0.37751 0.39032,0.59626 0.11825,0.21875 0.35402,0.61394 0.52383,0.87832 0.16982,0.26438 0.30853,0.52568 0.30853,0.58068 0,0.055 0.16617,0.28419 0.36929,0.50935 0.6386,0.70788 0.99431,1.12681 0.99431,1.17085 0,0.10719 0.44318,0.47076 0.50206,0.41188 0.0365,-0.0365 0.0662,-0.0103 0.0662,0.0582 0,0.0685 0.0639,0.19361 0.14202,0.27815 0.15367,0.16629 0.26844,0.29603 0.35284,0.39739 0.008,0.0736 -0.0178,0.11251 -0.0681,0.12394 -0.51091,-0.384 -2.242,-2.08895 -2.64825,-2.61722 -0.63204,-0.82183 -1.4149,-2.10463 -1.4149,-2.31849 0,-0.0896 -0.0735,-0.27617 -0.16336,-0.4146 -0.15144,-0.2333 -0.36773,-0.82406 -0.50608,-1.35827 0.0147,-0.17874 0.0521,-0.35118 0.11522,-0.51545 z m -5.5165,0.0385 c -0.22618,-0.008 -0.74753,0.1775 -0.74753,0.28762 0,0.0719 0.1,0.0847 0.25571,0.0328 0.14064,-0.0468 0.3452,-0.0867 0.45458,-0.0888 0.20205,-0.004 0.26875,-0.13046 0.11358,-0.21574 -0.0179,-0.01 -0.044,-0.0147 -0.0763,-0.0159 z m 1.4601,0.28948 c -0.0155,-0.001 -0.0343,0.002 -0.0556,0.009 -0.0821,0.0273 -0.17152,0.11682 -0.19887,0.19886 -0.0284,0.0852 0.0142,0.12784 0.0994,0.0994 0.082,-0.0274 0.17152,-0.11683 0.19886,-0.19886 0.0213,-0.0639 0.003,-0.10394 -0.0438,-0.10793 l 0,-1e-4 z m -6.17407,1.20754 c -0.13667,0.0399 -0.23817,0.0901 -0.23817,0.12393 0,0.0377 -0.10384,0.0691 -0.23851,0.075 7e-4,10e-4 0.001,0.002 0.002,0.004 0.0136,0.001 0.0265,0.003 0.0376,0.007 0.10936,0.0346 0.19886,0.0157 0.19886,-0.0419 0,-0.0458 0.1009,-0.11318 0.23818,-0.16728 z m 31.95187,1.24991 c -0.0125,-3e-4 -0.0255,10e-5 -0.0385,10e-4 -0.10464,0.008 -0.22137,0.0534 -0.26987,0.13188 -0.0258,0.0417 0.0687,0.0854 0.21007,0.0971 0.14939,0.0124 0.2569,-0.0423 0.2569,-0.13069 0,-0.0656 -0.0708,-0.0976 -0.15856,-0.0994 z m -1.04048,0.65637 c -0.013,0.002 -0.0241,0.005 -0.0333,0.0111 -0.0513,0.0317 -0.0934,0.19247 -0.0934,0.35753 0,0.23342 0.0303,0.26997 0.13635,0.16391 0.075,-0.075 0.24118,-0.13045 0.3693,-0.12318 0.19368,0.011 0.19939,0.0219 0.0329,0.0653 -0.11014,0.0287 -0.17118,0.0995 -0.13547,0.15726 0.10633,0.17205 0.50608,0.11907 0.50608,-0.0671 0,-0.17897 -0.58765,-0.58917 -0.78238,-0.56478 l 0,-10e-5 z m -0.5332,1.0358 c -0.0519,-0.006 -0.11671,0.0434 -0.21607,0.15323 -0.20395,0.2253 -0.20214,0.2299 0.0935,0.2299 0.31435,0 0.36122,-0.0714 0.20649,-0.31517 -0.0263,-0.0415 -0.0529,-0.0646 -0.084,-0.068 z m -1.75262,0.49672 c -0.0625,0 -0.11369,0.10228 -0.11369,0.22728 0,0.125 0.0512,0.22729 0.11369,0.22729 0.0625,0 0.11359,-0.10229 0.11359,-0.22729 0,-0.125 -0.0511,-0.22728 -0.11359,-0.22728 z m 1.18839,0.1859 0,10e-5 c -0.0371,0.002 -0.0847,0.009 -0.14441,0.0203 -0.25949,0.0496 -0.27032,0.0671 -0.0823,0.13309 0.14853,0.0521 0.17428,0.10208 0.082,0.15911 -0.074,0.0457 -0.18802,0.0501 -0.25352,0.01 -0.0655,-0.0406 -0.19909,-0.0429 -0.29688,-0.005 -0.14372,0.0551 -0.1509,0.10052 -0.0375,0.23719 0.16671,0.20081 0.27431,0.22568 0.15726,0.0363 -0.0559,-0.0905 -0.0191,-0.10879 0.11544,-0.0572 0.20615,0.0791 0.42915,-0.0795 0.54605,-0.38868 0.041,-0.10851 0.0251,-0.14985 -0.0861,-0.14441 z m 2.6269,0.29208 c -0.0899,0.005 -0.17894,0.19248 -0.17894,0.43769 0,0.18381 0.0452,0.33434 0.10042,0.33434 0.1139,0 0.2481,-0.57754 0.16531,-0.71148 -0.0269,-0.0435 -0.0568,-0.0622 -0.0868,-0.0605 z m -4.51293,0.0599 c -0.071,-10e-4 -0.0914,0.10038 -0.11783,0.37725 -0.0235,0.24663 -0.003,0.44858 0.0456,0.44858 0.0485,0 0.0932,-0.11508 0.0994,-0.25571 l 0.0113,-0.25571 0.0738,0.25233 c 0.047,0.16057 0.1239,0.22109 0.2116,0.16641 0.18292,-0.11402 0.0708,-0.51072 -0.19048,-0.67391 -0.0585,-0.0366 -0.10121,-0.0583 -0.13351,-0.0592 z m 3.26117,0.14397 c -0.0974,0 -0.1772,0.0511 -0.1772,0.11359 0,0.0625 0.0483,0.1137 0.10706,0.1137 0.0588,0 0.13835,-0.0512 0.17698,-0.1137 0.0386,-0.0625 -0.009,-0.11359 -0.10684,-0.11359 z m -1.60418,0.34088 c -0.0975,0 -0.14578,0.0512 -0.10716,0.11369 0.0386,0.0625 0.11836,0.11359 0.17719,0.11359 0.0588,0 0.10695,-0.0511 0.10695,-0.11359 0,-0.0625 -0.0795,-0.11369 -0.17698,-0.11369 z m -1.32265,0.6959 c -0.0122,-10e-4 -0.0343,0.013 -0.0664,0.0428 -0.0673,0.0625 -0.15908,0.26173 -0.20387,0.44292 -0.0635,0.25679 -0.0484,0.30912 0.0682,0.23709 0.10656,-0.0659 0.12979,-0.0408 0.0807,0.0871 -0.0945,0.24628 0.0832,0.83028 0.242,0.79534 0.071,-0.0156 0.12905,0.0227 0.12905,0.0852 0,0.0625 0.0455,0.1137 0.10085,0.1137 0.17167,0 0.21356,-0.67618 0.0503,-0.81167 -0.1174,-0.0974 -0.15116,-0.073 -0.15116,0.10923 0,0.12896 -0.0542,0.26809 -0.12067,0.30918 -0.0819,0.0506 -0.0962,-0.0575 -0.0441,-0.33543 0.047,-0.25037 0.0269,-0.4705 -0.0515,-0.565 -0.0707,-0.0851 -0.0943,-0.2508 -0.0528,-0.3681 0.033,-0.0933 0.0399,-0.13988 0.0195,-0.14234 z m -13.36095,0.91317 0,0 c 0.10447,5e-4 0.1899,0.0375 0.24733,0.11414 0.0684,0.0912 0.2209,0.20215 0.33879,0.24645 0.0502,0.0189 0.0875,0.0342 0.11305,0.0497 0.0115,0.027 0.0222,0.056 0.0324,0.0858 -0.0157,0.0351 -0.0547,0.0814 -0.1174,0.15072 -0.10233,0.11315 -0.15044,0.2414 -0.10685,0.28501 0.1197,0.11968 0.14829,0.45685 0.0444,0.52449 -0.15231,0.0992 -0.26139,1.11057 -0.12862,1.19262 0.0655,0.0405 0.11904,0.0227 0.11904,-0.0395 0,-0.0652 0.16318,-0.0868 0.38487,-0.0509 0.44668,0.0725 0.85915,-0.24508 0.87418,-0.67325 0.002,-0.0455 0.006,-0.0777 0.0124,-0.10303 l 0.006,-10e-4 c 0.0166,-0.004 0.0322,-0.005 0.0483,-0.008 0.0319,0.0779 0.10905,0.10948 0.17219,0.0705 0.0703,-0.0435 0.0665,0.0198 -0.01,0.16227 -0.17978,0.3359 -0.15395,0.47988 0.0704,0.39381 0.17301,-0.0664 0.17625,-0.0544 0.0284,0.10531 -0.0917,0.0991 -0.20535,0.15699 -0.25222,0.12861 -0.0469,-0.0284 -0.0852,0.003 -0.0852,0.0687 0,0.0662 0.10534,0.12034 0.23404,0.12034 0.13081,0 0.20229,-0.0514 0.16205,-0.11652 -0.0396,-0.0641 -0.0299,-0.10709 0.0217,-0.0956 0.0422,0.009 0.13524,-0.009 0.22511,-0.0407 0.0698,-0.009 0.13247,-0.0156 0.18917,-0.0215 0.25409,0.19383 0.39262,0.23552 0.46319,0.16989 0.007,0.0509 -0.15746,0.0796 -0.59943,0.14104 -0.55626,0.0773 -0.74561,0.0666 -0.81515,-0.046 -0.0721,-0.11657 -0.12502,-0.11777 -0.25953,-0.006 -0.11449,0.095 -0.19264,0.10184 -0.24252,0.0211 -0.10868,-0.17584 -0.57941,-0.14485 -0.74012,0.0488 -0.10133,0.12209 -0.19652,0.13767 -0.34752,0.0568 -0.49776,-0.26638 -0.56478,-0.13512 -0.24831,0.48529 0.16737,0.32811 0.3397,0.62275 0.38313,0.65463 0.0434,0.0319 0.11418,0.19805 0.15715,0.36929 0.043,0.17125 0.11273,0.31126 0.15497,0.31126 0.0423,0 0.16748,0.15337 0.27826,0.34087 0.0106,0.018 0.0186,0.0342 0.0281,0.0514 -0.0269,0.0409 -0.0633,0.0748 -0.1089,0.10118 -0.0423,-0.0126 -0.0906,-0.0122 -0.13407,0.004 -0.0876,0.0336 -0.13126,0.001 -0.10204,-0.0774 0.0755,-0.20149 -0.51595,-0.44921 -0.70266,-0.29427 -0.0813,0.0675 -0.21338,0.0964 -0.29361,0.0641 -0.0882,-0.0354 -0.0634,-0.0622 0.0625,-0.0676 0.3152,-0.0136 0.16972,-0.25144 -0.30418,-0.49737 -0.58338,-0.30276 -0.85697,-0.90657 -0.88104,-1.94462 -0.0215,-0.92805 0.12815,-1.31293 0.75373,-1.93852 0.32125,-0.32122 0.64372,-0.49752 0.87376,-0.4966 z m 14.75221,0.50446 c 0.0334,-0.002 0.0691,0.002 0.10694,0.0122 0.19675,0.0514 0.22871,0.15383 0.22871,0.73185 0,0.49147 0.0457,0.68975 0.1699,0.7374 0.0934,0.0358 0.14151,0.11099 0.10693,0.16695 -0.0441,0.0714 -0.17489,0.10232 -0.31571,0.0977 -0.20921,-0.20845 -0.36979,-0.32468 -0.49628,-0.36919 -0.0203,-0.0858 -0.033,-0.18216 -0.033,-0.27445 0,-0.20625 -0.0574,-0.37507 -0.12753,-0.37507 -0.0881,0 -0.0839,-0.0527 0.0138,-0.17043 0.0779,-0.0937 0.10786,-0.17044 0.0668,-0.17044 -0.0411,0 -0.0223,-0.0978 0.0416,-0.21716 0.0576,-0.10762 0.13755,-0.16434 0.23784,-0.16934 z m -3.31083,0.0658 0,1e-4 c 0.0369,8e-4 0.0777,0.003 0.12371,0.007 0.3202,0.024 0.40511,0.0818 0.43552,0.29666 0.0243,0.17186 -0.0464,0.32582 -0.19886,0.43258 -0.13014,0.0912 -0.23666,0.23944 -0.23666,0.32965 0,0.0902 -0.054,0.16412 -0.12023,0.16412 -0.0662,0 -0.0888,0.0511 -0.0502,0.11359 0.0386,0.0625 0.0195,0.11359 -0.0425,0.11359 -0.062,0 -0.14147,0.0907 -0.17665,0.20158 -0.0352,0.11086 -0.28014,0.34184 -0.54453,0.51327 -0.55396,0.35919 -1.45226,1.1884 -1.45226,1.34074 0,0.0569 -0.092,0.10357 -0.20451,0.10357 -0.1125,0 -0.26599,0.0614 -0.34099,0.13635 -0.0675,0.0676 -0.10425,0.0858 -0.12207,0.0501 0.002,-0.0214 0.005,-0.043 0.008,-0.0645 0.17962,-0.35782 0.37746,-0.70503 0.59168,-1.04299 0.21261,-0.25297 0.4782,-0.548 0.80982,-0.89716 0.44521,-0.46874 0.90788,-1.0703 1.02817,-1.3367 0.003,-0.007 0.006,-0.0119 0.009,-0.0186 0.13564,-0.15397 0.25817,-0.29978 0.36113,-0.43464 0.0359,-0.006 0.0751,-0.009 0.12274,-0.008 z m -10.36312,0.78336 c 0.003,0 0.005,10e-4 0.008,10e-4 l 0.0175,0.0877 c 0.0118,-0.005 0.0213,-0.01 0.0334,-0.0151 l 0.0208,0.005 0.008,-0.068 c 0.11833,0.0227 0.23065,0.0853 0.32455,0.18906 0.51697,0.57127 -0.16335,1.27784 -0.77051,0.80024 -0.34295,-0.26976 -0.37237,-0.55854 -0.0835,-0.81995 0.13632,-0.12336 0.2914,-0.18293 0.4416,-0.17947 l 0,-5e-4 z m -0.95749,0.49955 c -0.0155,-10e-4 -0.0308,0.002 -0.0448,0.011 -0.16046,0.0992 -0.11867,0.27684 0.0651,0.27684 0.10174,0 0.1413,-0.0668 0.10172,-0.1699 -0.0269,-0.07 -0.0757,-0.11459 -0.12208,-0.11794 z m 13.72458,0.48888 c 0.009,-10e-4 0.0164,-10e-4 0.0231,5e-4 0.008,0.002 0.0148,0.007 0.0196,0.0151 0.0817,0.13227 -0.0427,0.46514 -0.17393,0.46514 -0.0547,0 -0.22744,0.25203 -0.38356,0.5601 -0.14215,0.28053 -0.26834,0.4809 -0.36025,0.58319 -0.062,-0.0443 -0.0986,-0.0952 -0.11468,-0.15192 0.04,-0.0925 0.10729,-0.20789 0.18677,-0.30951 0.12222,-0.15625 0.22339,-0.35351 0.22478,-0.43824 7e-4,-0.0353 0.016,-0.0814 0.0405,-0.13276 0.0943,-0.12324 0.18774,-0.25 0.26812,-0.37713 0.10403,-0.11422 0.20903,-0.20393 0.26954,-0.21444 z m -10.42442,0.59408 c 0.18209,0.003 0.19589,0.0472 0.15552,0.15246 -0.0398,0.10378 -0.0275,0.18874 0.0272,0.18874 0.0547,0 0.075,0.093 0.0453,0.2067 -0.0297,0.11374 0.0262,0.27351 0.12425,0.35492 0.0981,0.0814 0.17828,0.24399 0.17828,0.36135 0,0.2246 -0.0622,0.24657 -0.34098,0.12023 -0.0937,-0.0425 -0.17043,-0.14121 -0.17043,-0.21933 0,-0.0781 -0.0511,-0.13696 -0.11359,-0.13069 -0.0625,0.006 -0.10363,0.0488 -0.0915,0.0946 0.0362,0.13666 -0.32943,0.11143 -0.87865,-0.0605 -0.0299,-0.009 -0.0557,-0.0184 -0.0827,-0.0276 0.0111,-0.26817 -0.13964,-0.49554 -0.36886,-0.66541 0.008,-0.0211 0.0179,-0.0412 0.0294,-0.0609 0.1475,-0.1496 0.44761,-0.23251 0.9526,-0.27967 0.25496,-0.0238 0.42482,-0.0368 0.53407,-0.0349 z m 6.0987,1.59121 c -0.0625,0 -0.11359,0.0511 -0.11359,0.11359 0,0.0625 0.0511,0.1137 0.11359,0.1137 0.0625,0 0.1137,-0.0512 0.1137,-0.1137 0,-0.0625 -0.0512,-0.11359 -0.1137,-0.11359 z"
       id="circle6580"
       inkscape:connector-curvature="0" />
    <text
       sodipodi:linespacing="125%"
       id="text4495"
       y="460.20428"
       x="195.45853"
       style="font-style:normal;font-variant:normal;font-weight:600;font-stretch:normal;font-size:11.91097736px;line-height:125%;font-family:Jura;-inkscape-font-specification:'Jura, Semi-Bold';text-align:center;letter-spacing:0px;word-spacing:0px;writing-mode:lr-tb;text-anchor:middle;opacity:0.97000002;fill:#000000;fill-opacity:1;stroke:none;stroke-width:1px;stroke-linecap:butt;stroke-linejoin:miter;stroke-opacity:1"
       xml:space="preserve"><tspan
         style="font-style:normal;font-variant:normal;font-weight:600;font-stretch:normal;font-size:11.91097736px;line-height:125%;font-family:Jura;-inkscape-font-specification:'Jura, Semi-Bold';text-align:center;writing-mode:lr-tb;text-anchor:middle;fill:#ffffff"
         id="tspan4497"
         y="460.20428"
         x="195.45853"
         sodipodi:role="line">SIMON MIKA</tspan></text>
  </g>
</svg>
