<?xml version="1.0" encoding="UTF-8" standalone="no"?>
<!-- Created with Inkscape (http://www.inkscape.org/) -->

<svg
   xmlns:dc="http://purl.org/dc/elements/1.1/"
   xmlns:cc="http://creativecommons.org/ns#"
   xmlns:rdf="http://www.w3.org/1999/02/22-rdf-syntax-ns#"
   xmlns:svg="http://www.w3.org/2000/svg"
   xmlns="http://www.w3.org/2000/svg"
   xmlns:sodipodi="http://sodipodi.sourceforge.net/DTD/sodipodi-0.dtd"
   xmlns:inkscape="http://www.inkscape.org/namespaces/inkscape"
   width="1080"
   height="720"
   viewBox="0 0 1080 720.00001"
   id="svg2"
   version="1.1"
   inkscape:version="0.91 r13725"
   sodipodi:docname="plotAxis.svg">
  <defs
     id="defs4">
    <marker
       inkscape:stockid="Arrow1Mend"
       orient="auto"
       refY="0.0"
       refX="0.0"
       id="Arrow1Mend"
       style="overflow:visible;"
       inkscape:isstock="true">
      <path
         id="path4151"
         d="M 0.0,0.0 L 5.0,-5.0 L -12.5,0.0 L 5.0,5.0 L 0.0,0.0 z "
         style="fill-rule:evenodd;stroke:#000000;stroke-width:1pt;stroke-opacity:1;fill:#000000;fill-opacity:1"
         transform="scale(0.4) rotate(180) translate(10,0)" />
    </marker>
    <marker
       inkscape:stockid="Arrow1Mstart"
       orient="auto"
       refY="0.0"
       refX="0.0"
       id="Arrow1Mstart"
       style="overflow:visible"
       inkscape:isstock="true">
      <path
         id="path4148"
         d="M 0.0,0.0 L 5.0,-5.0 L -12.5,0.0 L 5.0,5.0 L 0.0,0.0 z "
         style="fill-rule:evenodd;stroke:#000000;stroke-width:1pt;stroke-opacity:1;fill:#000000;fill-opacity:1"
         transform="scale(0.4) translate(10,0)" />
    </marker>
    <marker
       inkscape:stockid="Arrow1Lstart"
       orient="auto"
       refY="0.0"
       refX="0.0"
       id="Arrow1Lstart"
       style="overflow:visible"
       inkscape:isstock="true">
      <path
         id="path4142"
         d="M 0.0,0.0 L 5.0,-5.0 L -12.5,0.0 L 5.0,5.0 L 0.0,0.0 z "
         style="fill-rule:evenodd;stroke:#000000;stroke-width:1pt;stroke-opacity:1;fill:#000000;fill-opacity:1"
         transform="scale(0.8) translate(12.5,0)" />
    </marker>
    <marker
       inkscape:isstock="true"
       style="overflow:visible"
       id="Arrow1Mend-3"
       refX="0"
       refY="0"
       orient="auto"
       inkscape:stockid="Arrow1Mend">
      <path
         inkscape:connector-curvature="0"
         transform="matrix(-0.4,0,0,-0.4,-4,0)"
         style="fill:#a40000;fill-opacity:1;fill-rule:evenodd;stroke:#000000;stroke-width:1pt;stroke-opacity:1"
         d="M 0,0 5,-5 -12.5,0 5,5 0,0 Z"
         id="path5186" />
    </marker>
    <marker
       inkscape:isstock="true"
       style="overflow:visible"
       id="Arrow1Mstart-9"
       refX="0"
       refY="0"
       orient="auto"
       inkscape:stockid="Arrow1Mstart">
      <path
         inkscape:connector-curvature="0"
         transform="matrix(0.4,0,0,0.4,4,0)"
         style="fill:#a40000;fill-opacity:1;fill-rule:evenodd;stroke:#000000;stroke-width:1pt;stroke-opacity:1"
         d="M 0,0 5,-5 -12.5,0 5,5 0,0 Z"
         id="path5183" />
    </marker>
    <marker
       inkscape:isstock="true"
       style="overflow:visible"
       id="Arrow1Lend"
       refX="0"
       refY="0"
       orient="auto"
       inkscape:stockid="Arrow1Lend">
      <path
         inkscape:connector-curvature="0"
         transform="matrix(-0.8,0,0,-0.8,-10,0)"
         style="fill:#000000;fill-opacity:1;fill-rule:evenodd;stroke:#000000;stroke-width:1pt;stroke-opacity:1"
         d="M 0,0 5,-5 -12.5,0 5,5 0,0 Z"
         id="path5180" />
    </marker>
    <marker
       inkscape:isstock="true"
       style="overflow:visible"
       id="Arrow1Lstart-4"
       refX="0"
       refY="0"
       orient="auto"
       inkscape:stockid="Arrow1Lstart">
      <path
         inkscape:connector-curvature="0"
         transform="matrix(0.8,0,0,0.8,10,0)"
         style="fill:#000000;fill-opacity:1;fill-rule:evenodd;stroke:#000000;stroke-width:1pt;stroke-opacity:1"
         d="M 0,0 5,-5 -12.5,0 5,5 0,0 Z"
         id="path5177" />
    </marker>
    <clipPath
       clipPathUnits="userSpaceOnUse"
       id="presentation_clip_path">
      <rect
         id="rect7"
         height="8890"
         width="27940"
         y="0"
         x="0" />
    </clipPath>
    <style
       type="text/css"
       id="style4640">.fil0 {fill:black}</style>
  </defs>
  <sodipodi:namedview
     id="base"
     pagecolor="#000000"
     bordercolor="#666666"
     borderopacity="1.0"
     inkscape:pageopacity="0"
     inkscape:pageshadow="2"
     inkscape:zoom="0.4300926"
     inkscape:cx="469.13406"
     inkscape:cy="147.08912"
     inkscape:document-units="px"
     inkscape:current-layer="layer1"
     showgrid="false"
     units="px"
     inkscape:window-width="1260"
     inkscape:window-height="1388"
     inkscape:window-x="1300"
     inkscape:window-y="24"
     inkscape:window-maximized="0" />
  <metadata
     id="metadata7">
    <rdf:RDF>
      <cc:Work
         rdf:about="">
        <dc:format>image/svg+xml</dc:format>
        <dc:type
           rdf:resource="http://purl.org/dc/dcmitype/StillImage" />
        <dc:title></dc:title>
      </cc:Work>
    </rdf:RDF>
  </metadata>
  <g
     inkscape:label="Layer 1"
     inkscape:groupmode="layer"
     id="layer1"
     transform="translate(0,-332.36213)">
    <g
       id="g9875"
       style="fill:#ffffff">
      <path
         style="color:#000000;font-style:normal;font-variant:normal;font-weight:normal;font-stretch:normal;font-size:medium;line-height:normal;font-family:sans-serif;text-indent:0;text-align:start;text-decoration:none;text-decoration-line:none;text-decoration-style:solid;text-decoration-color:#000000;letter-spacing:normal;word-spacing:normal;text-transform:none;direction:ltr;block-progression:tb;writing-mode:lr-tb;baseline-shift:baseline;text-anchor:start;white-space:normal;clip-rule:nonzero;display:inline;overflow:visible;visibility:visible;opacity:1;isolation:auto;mix-blend-mode:normal;color-interpolation:sRGB;color-interpolation-filters:linearRGB;solid-color:#000000;solid-opacity:1;fill:#ffffff;fill-opacity:1;fill-rule:evenodd;stroke:none;stroke-width:7.17791605;stroke-linecap:butt;stroke-linejoin:miter;stroke-miterlimit:4;stroke-dasharray:none;stroke-dashoffset:0;stroke-opacity:1;color-rendering:auto;image-rendering:auto;shape-rendering:auto;text-rendering:auto;enable-background:accumulate"
         d="m 137.00977,464.31445 0,531.05469 665.44921,0 0,-7.17773 -658.27148,0 0,-523.87696 -7.17773,0 z"
         id="path3336"
         inkscape:connector-curvature="0" />
      <path
         style="fill:#ffffff;fill-opacity:1;fill-rule:evenodd;stroke:#ffffff;stroke-width:2.87116642pt;stroke-opacity:1"
         d="m 140.59925,493.02631 14.35583,14.35584 -14.35583,-50.24542 -14.35583,50.24542 14.35583,-14.35584 z"
         id="path9881"
         inkscape:connector-curvature="0" />
      <path
         style="fill:#ffffff;fill-opacity:1;fill-rule:evenodd;stroke:#ffffff;stroke-width:2.87116642pt;stroke-opacity:1"
         d="m 773.74774,991.78077 -14.35584,14.35583 50.24542,-14.35583 -50.24542,-14.35583 14.35584,14.35583 z"
         id="path9883"
         inkscape:connector-curvature="0" />
    </g>
    <g
       style="font-style:normal;font-variant:normal;font-weight:normal;font-stretch:normal;font-size:40px;line-height:125%;font-family:Ubuntu;-inkscape-font-specification:'Ubuntu, Normal';text-align:center;letter-spacing:0px;word-spacing:0px;writing-mode:lr-tb;text-anchor:middle;fill:#ffffff;fill-opacity:1;stroke:none;stroke-width:1px;stroke-linecap:butt;stroke-linejoin:miter;stroke-opacity:1"
       id="text4674">
      <path
         d="m 39.469861,348.34491 q 5.84,0 8.96,2.24 3.16,2.2 3.16,6.6 0,2.4 -0.88,4.12 -0.84,1.68 -2.48,2.76 -1.6,1.04 -3.92,1.52 -2.32,0.48 -5.24,0.48 l -3.08,0 0,10.28 -3.88,0 0,-27.32 q 1.64,-0.4 3.64,-0.52 2.04,-0.16 3.72,-0.16 z m 0.32,3.4 q -2.48,0 -3.8,0.12 l 0,10.88 2.92,0 q 2,0 3.6,-0.24 1.6,-0.28 2.68,-0.88 1.12,-0.64 1.72,-1.72 0.6,-1.08 0.6,-2.76 0,-1.6 -0.64,-2.64 -0.6,-1.04 -1.68,-1.64 -1.04,-0.64 -2.44,-0.88 -1.4,-0.24 -2.96,-0.24 z"
         style="fill:#ffffff"
         id="path4165" />
      <path
         d="m 63.846736,355.10491 q 0.48,0 1.08,0.08 0.64,0.04 1.24,0.16 0.6,0.08 1.08,0.2 0.52,0.08 0.76,0.16 l -0.64,3.24 q -0.44,-0.16 -1.48,-0.36 -1,-0.24 -2.6,-0.24 -1.04,0 -2.08,0.24 -1,0.2 -1.32,0.28 l 0,17.48 -3.72,0 0,-19.92 q 1.32,-0.48 3.28,-0.88 1.96,-0.44 4.4,-0.44 z"
         style="fill:#ffffff"
         id="path4167" />
      <path
         d="m 89.995486,365.94491 q 0,2.48 -0.72,4.48 -0.72,2 -2.04,3.44 -1.28,1.44 -3.08,2.24 -1.8,0.76 -3.92,0.76 -2.12,0 -3.92,-0.76 -1.8,-0.8 -3.12,-2.24 -1.28,-1.44 -2,-3.44 -0.72,-2 -0.72,-4.48 0,-2.44 0.72,-4.44 0.72,-2.04 2,-3.48 1.32,-1.44 3.12,-2.2 1.8,-0.8 3.92,-0.8 2.12,0 3.92,0.8 1.8,0.76 3.08,2.2 1.32,1.44 2.04,3.48 0.72,2 0.72,4.44 z m -3.88,0 q 0,-3.52 -1.6,-5.56 -1.56,-2.08 -4.28,-2.08 -2.72,0 -4.32,2.08 -1.56,2.04 -1.56,5.56 0,3.52 1.56,5.6 1.6,2.04 4.32,2.04 2.72,0 4.28,-2.04 1.6,-2.08 1.6,-5.6 z"
         style="fill:#ffffff"
         id="path4169" />
      <path
         d="m 108.26924,374.26491 q -0.48,0.32 -1.88,0.84 -1.36,0.48 -3.2,0.48 -1.88,0 -3.560004,-0.6 -1.64,-0.6 -2.88,-1.84 -1.24,-1.28 -1.96,-3.16 -0.72,-1.88 -0.72,-4.48 0,-2.28 0.68,-4.16 0.68,-1.92 1.96,-3.28 1.32,-1.4 3.2,-2.16 1.880004,-0.8 4.240004,-0.8 2.6,0 4.52,0.4 1.96,0.36 3.28,0.68 l 0,18.56 q 0,4.8 -2.48,6.96 -2.48,2.16 -7.52,2.16 -1.960004,0 -3.720004,-0.32 -1.72,-0.32 -3,-0.76 l 0.68,-3.24 q 1.12,0.44 2.72,0.76 1.640004,0.36 3.400004,0.36 3.32,0 4.76,-1.32 1.48,-1.32 1.48,-4.2 l 0,-0.88 z m -0.04,-15.44 q -0.56,-0.16 -1.52,-0.28 -0.92,-0.16 -2.52,-0.16 -3,0 -4.640004,1.96 -1.6,1.96 -1.6,5.2 0,1.8 0.44,3.08 0.48,1.28 1.24,2.12 0.800004,0.84 1.800004,1.24 1.04,0.4 2.12,0.4 1.48,0 2.72,-0.4 1.24,-0.44 1.96,-1 l 0,-12.16 z"
         style="fill:#ffffff"
         id="path4171" />
      <path
         d="m 126.03424,355.10491 q 0.48,0 1.08,0.08 0.64,0.04 1.24,0.16 0.6,0.08 1.08,0.2 0.52,0.08 0.76,0.16 l -0.64,3.24 q -0.44,-0.16 -1.48,-0.36 -1,-0.24 -2.6,-0.24 -1.04,0 -2.08,0.24 -1,0.2 -1.32,0.28 l 0,17.48 -3.72,0 0,-19.92 q 1.32,-0.48 3.28,-0.88 1.96,-0.44 4.4,-0.44 z"
         style="fill:#ffffff"
         id="path4173" />
      <path
         d="m 140.86299,373.66491 q 1.32,0 2.32,-0.04 1.04,-0.08 1.72,-0.24 l 0,-6.2 q -0.4,-0.2 -1.32,-0.32 -0.88,-0.16 -2.16,-0.16 -0.84,0 -1.8,0.12 -0.92,0.12 -1.72,0.52 -0.76,0.36 -1.28,1.04 -0.52,0.64 -0.52,1.72 0,2 1.28,2.8 1.28,0.76 3.48,0.76 z m -0.32,-18.64 q 2.24,0 3.76,0.6 1.56,0.56 2.48,1.64 0.96,1.04 1.36,2.52 0.4,1.44 0.4,3.2 l 0,13 q -0.48,0.08 -1.36,0.24 -0.84,0.12 -1.92,0.24 -1.08,0.12 -2.36,0.2 -1.24,0.12 -2.48,0.12 -1.76,0 -3.24,-0.36 -1.48,-0.36 -2.56,-1.12 -1.08,-0.8 -1.68,-2.08 -0.6,-1.28 -0.6,-3.08 0,-1.72 0.68,-2.96 0.72,-1.24 1.92,-2 1.2,-0.76 2.8,-1.12 1.6,-0.36 3.36,-0.36 0.56,0 1.16,0.08 0.6,0.04 1.12,0.16 0.56,0.08 0.96,0.16 0.4,0.08 0.56,0.12 l 0,-1.04 q 0,-0.92 -0.2,-1.8 -0.2,-0.92 -0.72,-1.6 -0.52,-0.72 -1.44,-1.12 -0.88,-0.44 -2.32,-0.44 -1.84,0 -3.24,0.28 -1.36,0.24 -2.04,0.52 l -0.44,-3.08 q 0.72,-0.32 2.4,-0.6 1.68,-0.32 3.64,-0.32 z"
         style="fill:#ffffff"
         id="path4175" />
      <path
         d="m 154.68236,356.14491 q 1.28,-0.32 3.36,-0.68 2.12,-0.36 4.88,-0.36 2,0 3.36,0.56 1.36,0.52 2.28,1.56 0.28,-0.2 0.88,-0.56 0.6,-0.36 1.48,-0.68 0.88,-0.36 1.96,-0.6 1.08,-0.28 2.32,-0.28 2.4,0 3.92,0.72 1.52,0.68 2.36,1.96 0.88,1.28 1.16,3.04 0.32,1.76 0.32,3.84 l 0,11.68 -3.72,0 0,-10.88 q 0,-1.84 -0.2,-3.16 -0.16,-1.32 -0.68,-2.2 -0.48,-0.88 -1.36,-1.28 -0.84,-0.44 -2.2,-0.44 -1.88,0 -3.12,0.52 -1.2,0.48 -1.64,0.88 0.32,1.04 0.48,2.28 0.16,1.24 0.16,2.6 l 0,11.68 -3.72,0 0,-10.88 q 0,-1.84 -0.2,-3.16 -0.2,-1.32 -0.72,-2.2 -0.48,-0.88 -1.36,-1.28 -0.84,-0.44 -2.16,-0.44 -0.56,0 -1.2,0.04 -0.64,0.04 -1.24,0.12 -0.56,0.04 -1.04,0.12 -0.48,0.08 -0.64,0.12 l 0,17.56 -3.72,0 0,-20.2 z"
         style="fill:#ffffff"
         id="path4177" />
      <path
         d="m 189.13549,356.14491 q 1.28,-0.32 3.36,-0.68 2.12,-0.36 4.88,-0.36 2,0 3.36,0.56 1.36,0.52 2.28,1.56 0.28,-0.2 0.88,-0.56 0.6,-0.36 1.48,-0.68 0.88,-0.36 1.96,-0.6 1.08,-0.28 2.32,-0.28 2.4,0 3.92,0.72 1.52,0.68 2.36,1.96 0.88,1.28 1.16,3.04 0.32,1.76 0.32,3.84 l 0,11.68 -3.72,0 0,-10.88 q 0,-1.84 -0.2,-3.16 -0.16,-1.32 -0.68,-2.2 -0.48,-0.88 -1.36,-1.28 -0.84,-0.44 -2.2,-0.44 -1.88,0 -3.12,0.52 -1.2,0.48 -1.64,0.88 0.32,1.04 0.48,2.28 0.16,1.24 0.16,2.6 l 0,11.68 -3.72,0 0,-10.88 q 0,-1.84 -0.2,-3.16 -0.2,-1.32 -0.72,-2.2 -0.48,-0.88 -1.36,-1.28 -0.84,-0.44 -2.16,-0.44 -0.56,0 -1.2,0.04 -0.64,0.04 -1.24,0.12 -0.56,0.04 -1.04,0.12 -0.48,0.08 -0.64,0.12 l 0,17.56 -3.72,0 0,-20.2 z"
         style="fill:#ffffff"
         id="path4179" />
      <path
         d="m 222.42861,365.98491 q 0,-2.76 0.8,-4.8 0.8,-2.08 2.12,-3.44 1.32,-1.36 3.04,-2.04 1.72,-0.68 3.52,-0.68 4.2,0 6.44,2.64 2.24,2.6 2.24,7.96 0,0.24 0,0.64 0,0.36 -0.04,0.68 l -14.24,0 q 0.24,3.24 1.88,4.92 1.64,1.68 5.12,1.68 1.96,0 3.28,-0.32 1.36,-0.36 2.04,-0.68 l 0.52,3.12 q -0.68,0.36 -2.4,0.76 -1.68,0.4 -3.84,0.4 -2.72,0 -4.72,-0.8 -1.96,-0.84 -3.24,-2.28 -1.28,-1.44 -1.92,-3.4 -0.6,-2 -0.6,-4.36 z m 14.28,-2.04 q 0.04,-2.52 -1.28,-4.12 -1.28,-1.64 -3.56,-1.64 -1.28,0 -2.28,0.52 -0.96,0.48 -1.64,1.28 -0.68,0.8 -1.08,1.84 -0.36,1.04 -0.48,2.12 l 10.32,0 z"
         style="fill:#ffffff"
         id="path4181" />
      <path
         d="m 253.61236,355.10491 q 0.48,0 1.08,0.08 0.64,0.04 1.24,0.16 0.6,0.08 1.08,0.2 0.52,0.08 0.76,0.16 l -0.64,3.24 q -0.44,-0.16 -1.48,-0.36 -1,-0.24 -2.6,-0.24 -1.04,0 -2.08,0.24 -1,0.2 -1.32,0.28 l 0,17.48 -3.72,0 0,-19.92 q 1.32,-0.48 3.28,-0.88 1.96,-0.44 4.4,-0.44 z"
         style="fill:#ffffff"
         id="path4183" />
      <path
         d="m 43.766736,398.34491 q 5.84,0 8.96,2.24 3.16,2.2 3.16,6.6 0,2.4 -0.88,4.12 -0.84,1.68 -2.48,2.76 -1.6,1.04 -3.92,1.52 -2.32,0.48 -5.24,0.48 l -3.08,0 0,10.28 -3.88,0 0,-27.32 q 1.64,-0.4 3.64,-0.52 2.04,-0.16 3.72,-0.16 z m 0.32,3.4 q -2.48,0 -3.8,0.12 l 0,10.88 2.92,0 q 2,0 3.6,-0.24 1.6,-0.28 2.68,-0.88 1.12,-0.64 1.72,-1.72 0.6,-1.08 0.6,-2.76 0,-1.6 -0.64,-2.64 -0.6,-1.04 -1.68,-1.64 -1.04,-0.64 -2.44,-0.88 -1.4,-0.24 -2.96,-0.24 z"
         style="fill:#ffffff"
         id="path4185" />
      <path
         d="m 68.143611,405.10491 q 0.48,0 1.08,0.08 0.64,0.04 1.24,0.16 0.6,0.08 1.08,0.2 0.52,0.08 0.76,0.16 l -0.64,3.24 q -0.44,-0.16 -1.48,-0.36 -1,-0.24 -2.6,-0.24 -1.04,0 -2.08,0.24 -1,0.2 -1.32,0.28 l 0,17.48 -3.72,0 0,-19.92 q 1.32,-0.48 3.28,-0.88 1.96,-0.44 4.4,-0.44 z"
         style="fill:#ffffff"
         id="path4187" />
      <path
         d="m 94.292361,415.94491 q 0,2.48 -0.72,4.48 -0.72,2 -2.04,3.44 -1.28,1.44 -3.08,2.24 -1.8,0.76 -3.92,0.76 -2.12,0 -3.92,-0.76 -1.8,-0.8 -3.12,-2.24 -1.28,-1.44 -2,-3.44 -0.72,-2 -0.72,-4.48 0,-2.44 0.72,-4.44 0.72,-2.04 2,-3.48 1.32,-1.44 3.12,-2.2 1.8,-0.8 3.92,-0.8 2.12,0 3.92,0.8 1.8,0.76 3.08,2.2 1.32,1.44 2.04,3.48 0.72,2 0.72,4.44 z m -3.88,0 q 0,-3.52 -1.6,-5.56 -1.56,-2.08 -4.28,-2.08 -2.72,0 -4.32,2.08 -1.56,2.04 -1.56,5.56 0,3.52 1.56,5.6 1.6,2.04 4.32,2.04 2.72,0 4.28,-2.04 1.6,-2.08 1.6,-5.6 z"
         style="fill:#ffffff"
         id="path4189" />
      <path
         d="m 112.96611,409.94491 q -0.68,-0.56 -1.96,-1.08 -1.28,-0.52 -2.8,-0.52 -1.6,0 -2.76,0.6 -1.12,0.56 -1.84,1.6 -0.72,1 -1.04,2.4 -0.32,1.4 -0.32,3 0,3.64 1.8,5.64 1.8,1.96 4.8,1.96 1.52,0 2.52,-0.12 1.04,-0.16 1.6,-0.32 l 0,-13.16 z m 0,-14 3.72,-0.64 0,30.44 q -1.28,0.36 -3.28,0.72 -2,0.36 -4.6,0.36 -2.4,0 -4.32,-0.76 -1.92,-0.76 -3.28,-2.16 -1.359999,-1.4 -2.119999,-3.4 -0.72,-2.04 -0.72,-4.56 0,-2.4 0.6,-4.4 0.64,-2 1.839999,-3.44 1.2,-1.44 2.92,-2.24 1.76,-0.8 4,-0.8 1.8,0 3.16,0.48 1.4,0.48 2.08,0.92 l 0,-10.52 z"
         style="fill:#ffffff"
         id="path4191" />
      <path
         d="m 139.67986,425.74491 q -1.28,0.32 -3.4,0.68 -2.08,0.36 -4.84,0.36 -2.4,0 -4.04,-0.68 -1.64,-0.72 -2.64,-2 -1,-1.28 -1.44,-3 -0.44,-1.76 -0.44,-3.88 l 0,-11.68 3.72,0 0,10.88 q 0,3.8 1.2,5.44 1.2,1.64 4.04,1.64 0.6,0 1.24,-0.04 0.64,-0.04 1.2,-0.08 0.56,-0.08 1,-0.12 0.48,-0.08 0.68,-0.16 l 0,-17.56 3.72,0 0,20.2 z"
         style="fill:#ffffff"
         id="path4193" />
      <path
         d="m 155.12861,426.82491 q -2.52,0 -4.44,-0.8 -1.88,-0.8 -3.2,-2.24 -1.28,-1.44 -1.92,-3.4 -0.64,-2 -0.64,-4.4 0,-2.4 0.68,-4.4 0.72,-2 2,-3.44 1.28,-1.48 3.12,-2.28 1.88,-0.84 4.16,-0.84 1.4,0 2.8,0.24 1.4,0.24 2.68,0.76 l -0.84,3.16 q -0.84,-0.4 -1.96,-0.64 -1.08,-0.24 -2.32,-0.24 -3.12,0 -4.8,1.96 -1.64,1.96 -1.64,5.72 0,1.68 0.36,3.08 0.4,1.4 1.2,2.4 0.84,1 2.12,1.56 1.28,0.52 3.12,0.52 1.48,0 2.68,-0.28 1.2,-0.28 1.88,-0.6 l 0.52,3.12 q -0.32,0.2 -0.92,0.4 -0.6,0.16 -1.36,0.28 -0.76,0.16 -1.64,0.24 -0.84,0.12 -1.64,0.12 z"
         style="fill:#ffffff"
         id="path4195" />
      <path
         d="m 168.16236,405.54491 7.88,0 0,3.12 -7.88,0 0,9.6 q 0,1.56 0.24,2.6 0.24,1 0.72,1.6 0.48,0.56 1.2,0.8 0.72,0.24 1.68,0.24 1.68,0 2.68,-0.36 1.04,-0.4 1.44,-0.56 l 0.72,3.08 q -0.56,0.28 -1.96,0.68 -1.4,0.44 -3.2,0.44 -2.12,0 -3.52,-0.52 -1.36,-0.56 -2.2,-1.64 -0.84,-1.08 -1.2,-2.64 -0.32,-1.6 -0.32,-3.68 l 0,-18.56 3.72,-0.64 0,6.44 z"
         style="fill:#ffffff"
         id="path4197" />
      <path
         d="m 184.49611,426.34491 -3.72,0 0,-20.8 3.72,0 0,20.8 z m -1.88,-24.56 q -1,0 -1.72,-0.64 -0.68,-0.68 -0.68,-1.8 0,-1.12 0.68,-1.76 0.72,-0.68 1.72,-0.68 1,0 1.68,0.68 0.72,0.64 0.72,1.76 0,1.12 -0.72,1.8 -0.68,0.64 -1.68,0.64 z"
         style="fill:#ffffff"
         id="path4199" />
      <path
         d="m 207.17236,405.54491 q -1.56,5.84 -3.68,11.2 -2.08,5.36 -4.04,9.6 l -3.36,0 q -1.96,-4.24 -4.08,-9.6 -2.08,-5.36 -3.64,-11.2 l 4,0 q 0.48,1.96 1.12,4.2 0.68,2.2 1.4,4.4 0.76,2.16 1.52,4.2 0.76,2.04 1.44,3.64 0.68,-1.6 1.44,-3.64 0.76,-2.04 1.48,-4.2 0.76,-2.2 1.4,-4.4 0.68,-2.24 1.16,-4.2 l 3.84,0 z"
         style="fill:#ffffff"
         id="path4201" />
      <path
         d="m 214.73049,426.34491 -3.72,0 0,-20.8 3.72,0 0,20.8 z m -1.88,-24.56 q -1,0 -1.72,-0.64 -0.68,-0.68 -0.68,-1.8 0,-1.12 0.68,-1.76 0.72,-0.68 1.72,-0.68 1,0 1.68,0.68 0.72,0.64 0.72,1.76 0,1.12 -0.72,1.8 -0.68,0.64 -1.68,0.64 z"
         style="fill:#ffffff"
         id="path4203" />
      <path
         d="m 224.64674,405.54491 7.88,0 0,3.12 -7.88,0 0,9.6 q 0,1.56 0.24,2.6 0.24,1 0.72,1.6 0.48,0.56 1.2,0.8 0.72,0.24 1.68,0.24 1.68,0 2.68,-0.36 1.04,-0.4 1.44,-0.56 l 0.72,3.08 q -0.56,0.28 -1.96,0.68 -1.4,0.44 -3.2,0.44 -2.12,0 -3.52,-0.52 -1.36,-0.56 -2.2,-1.64 -0.84,-1.08 -1.2,-2.64 -0.32,-1.6 -0.32,-3.68 l 0,-18.56 3.72,-0.64 0,6.44 z"
         style="fill:#ffffff"
         id="path4205" />
      <path
         d="m 234.82049,430.22491 q 0.44,0.2 1.12,0.36 0.72,0.2 1.4,0.2 2.2,0 3.44,-1 1.24,-0.96 2.24,-3.16 -2.52,-4.8 -4.72,-10.16 -2.16,-5.4 -3.6,-10.92 l 4,0 q 0.44,1.8 1.04,3.88 0.64,2.08 1.4,4.28 0.76,2.2 1.64,4.4 0.88,2.2 1.84,4.24 1.52,-4.2 2.64,-8.32 1.12,-4.12 2.12,-8.48 l 3.84,0 q -1.44,5.88 -3.2,11.32 -1.76,5.4 -3.8,10.12 -0.8,1.8 -1.68,3.08 -0.84,1.32 -1.88,2.16 -1.04,0.84 -2.36,1.24 -1.28,0.4 -2.92,0.4 -0.44,0 -0.92,-0.08 -0.48,-0.04 -0.96,-0.16 -0.44,-0.08 -0.84,-0.2 -0.36,-0.12 -0.52,-0.2 l 0.68,-3 z"
         style="fill:#ffffff"
         id="path4207" />
    </g>
    <text
       sodipodi:linespacing="125%"
       id="text5028"
       y="977.95953"
       x="929.31274"
       style="font-style:normal;font-variant:normal;font-weight:normal;font-stretch:normal;font-size:40px;line-height:125%;font-family:Ubuntu;-inkscape-font-specification:Ubuntu;text-align:center;letter-spacing:0px;word-spacing:0px;text-anchor:middle;fill:#ffffff;fill-opacity:1;stroke:none;stroke-width:1px;stroke-linecap:butt;stroke-linejoin:miter;stroke-opacity:1;"
       xml:space="preserve"><tspan
         id="tspan5032"
         y="977.95953"
         x="929.31274"
         sodipodi:role="line">Runtime</tspan><tspan
         y="1027.9595"
         x="929.31274"
         sodipodi:role="line"
         id="tspan5036">Efficiency</tspan></text>
    <g
       style="fill-rule:evenodd;stroke-width:28.22200012;stroke-linejoin:round;fill:#ef2929"
       id="g5005"
       transform="matrix(0.02268432,0.01543517,-0.01543517,0.02268432,204.54097,494.21969)">
      <g
         transform="translate(-901.15098,-8859.8837)"
         id="g119"
         style="fill:#ef2929">
        <g
           class="Master_Slide"
           id="id2"
           style="fill:#ef2929">
          <g
             class="Background"
             id="bg-id2"
             style="fill:#ef2929" />
          <g
             class="BackgroundObjects"
             id="bo-id2"
             style="fill:#ef2929" />
        </g>
      </g>
      <path
         style="color:#000000;font-style:normal;font-variant:normal;font-weight:normal;font-stretch:normal;font-size:medium;line-height:normal;font-family:sans-serif;text-indent:0;text-align:start;text-decoration:none;text-decoration-line:none;text-decoration-style:solid;text-decoration-color:#000000;letter-spacing:normal;word-spacing:normal;text-transform:none;direction:ltr;block-progression:tb;writing-mode:lr-tb;baseline-shift:baseline;text-anchor:start;white-space:normal;clip-rule:nonzero;display:inline;overflow:visible;visibility:visible;opacity:1;isolation:auto;mix-blend-mode:normal;color-interpolation:sRGB;color-interpolation-filters:linearRGB;solid-color:#000000;solid-opacity:1;fill:#ef2929;fill-opacity:1;fill-rule:evenodd;stroke:none;stroke-width:256.05236816;stroke-linecap:butt;stroke-linejoin:miter;stroke-miterlimit:4;stroke-dasharray:none;stroke-dashoffset:0;stroke-opacity:1;color-rendering:auto;image-rendering:auto;shape-rendering:auto;text-rendering:auto;enable-background:accumulate"
         d="m 2018.1621,448.08594 0,256.05078 22274.8769,0 0,-256.05078 -22274.8769,0 z"
         id="path5171"
         inkscape:connector-curvature="0" />
      <path
         inkscape:connector-curvature="0"
         style="fill:#ef2929;fill-opacity:1;fill-rule:evenodd;stroke:#ef2929;stroke-width:102.42094727pt;stroke-opacity:1"
         d="M 3042.3719,576.1113 3554.4766,64.006564 1762.11,576.1113 3554.4766,1088.216 3042.3719,576.1113 Z"
         id="path4900" />
      <path
         inkscape:connector-curvature="0"
         style="fill:#ef2929;fill-opacity:1;fill-rule:evenodd;stroke:#ef2929;stroke-width:102.42094727pt;stroke-opacity:1"
         d="M 23268.831,576.1113 22756.726,1088.216 24549.092,576.1113 22756.726,64.006564 23268.831,576.1113 Z"
         id="path4902" />
      <g
         style="fill:#ef2929"
         transform="translate(-499.39091,-10553.216)"
         id="g6103">
        <text
           xml:space="preserve"
           style="font-style:normal;font-weight:normal;font-size:1128.88879395px;line-height:125%;font-family:sans-serif;letter-spacing:0px;word-spacing:0px;fill:#ef2929;fill-opacity:1;stroke:none;stroke-width:1px;stroke-linecap:butt;stroke-linejoin:miter;stroke-opacity:1"
           x="409.07895"
           y="12885.754"
           id="text6095"
           sodipodi:linespacing="125%"><tspan
             sodipodi:role="line"
             x="409.07895"
             y="12885.754"
             style="font-style:normal;font-variant:normal;font-weight:normal;font-stretch:normal;font-family:Ubuntu;-inkscape-font-specification:Ubuntu;fill:#ef2929"
             id="tspan6097">higher efficency</tspan></text>
        <text
           sodipodi:linespacing="125%"
           id="text6099"
           y="12885.754"
           x="17060.152"
           style="font-style:normal;font-weight:normal;font-size:1128.88879395px;line-height:125%;font-family:sans-serif;letter-spacing:0px;word-spacing:0px;fill:#ef2929;fill-opacity:1;stroke:none;stroke-width:1px;stroke-linecap:butt;stroke-linejoin:miter;stroke-opacity:1"
           xml:space="preserve"><tspan
             id="tspan6101"
             style="font-style:normal;font-variant:normal;font-weight:normal;font-stretch:normal;font-family:Ubuntu;-inkscape-font-specification:Ubuntu;fill:#ef2929"
             y="12885.754"
             x="17060.152"
             sodipodi:role="line">higher productivity</tspan></text>
      </g>
    </g>
  </g>
</svg>
