<?xml version="1.0" encoding="UTF-8" standalone="no"?>
<svg
   xmlns:svg="http://www.w3.org/2000/svg"
   xmlns="http://www.w3.org/2000/svg"
   version="1.1"
   width="90mm"
   height="105mm"
   id="cogneco-v6w-document">
  <path
     id="cogneco-v6w"
     style="fill:#ffffff;"
     d="m 141.63891,287.22753 0,43.66098 8.23212,0 0,-24.27423 28.11375,27.12872 0,-44.01497 -8.23218,0 0,24.63278 -28.11369,-27.13328 z m 115.5137,2.49144 c -11.3186,0 -20.58049,9.26174 -20.58049,20.58024 0,3.01889 0.67505,5.88262 1.85613,8.47264 -2.24505,2.38495 -5.41625,3.88461 -8.98554,3.88461 -6.86912,0 -12.34825,-5.47907 -12.34825,-12.34819 0,-6.86906 5.47907,-12.35263 12.34825,-12.35263 2.10003,0 4.06729,0.51719 5.79064,1.42496 1.24523,-2.47734 2.88926,-4.71943 4.86036,-6.6347 -3.11504,-1.90214 -6.75435,-3.02237 -10.651,-3.02237 -11.3186,0 -20.58043,9.2663 -20.58043,20.58474 0,3.28012 0.79799,6.37593 2.17827,9.13521 -2.18901,1.99759 -5.10737,3.21298 -8.33653,3.21298 -5.42044,0 -9.96472,-3.41788 -11.64488,-8.23211 l 14.22707,0 c -0.2298,-1.34133 -0.3768,-2.71193 -0.3768,-4.11608 0,-1.40463 0.147,-2.7741 0.3768,-4.11602 l -14.22707,0 c 1.68016,-4.81543 6.22444,-8.23661 11.64488,-8.23661 1.78714,0 3.47857,0.37379 5.00555,1.04373 1.30301,-2.48502 3.02726,-4.70971 5.06459,-6.60746 -2.98316,-1.6892 -6.41565,-2.66838 -10.07014,-2.66838 -11.3186,0 -20.58043,9.2663 -20.58043,20.58474 0,11.3185 9.26183,20.58024 20.58043,20.58024 5.09921,0 9.75923,-1.89596 13.35576,-5.00094 3.60667,3.1054 8.27946,5.00094 13.38293,5.00094 5.33261,0 10.1755,-2.08813 13.83677,-5.45021 3.66763,3.36688 8.53368,5.44571 13.87313,5.44571 11.31854,0 20.58044,-9.2663 20.58044,-20.5848 0,-11.3185 -9.2619,-20.58024 -20.58044,-20.58024 z m -195.403082,0.005 c -11.318604,0 -20.580436,9.26636 -20.580436,20.5848 0,11.3185 9.261832,20.58024 20.580436,20.58024 5.292767,0 10.10656,-2.05561 13.75967,-5.37306 3.660009,3.32483 8.497683,5.37306 13.800469,5.37306 6.825086,0 12.887163,-3.38056 16.636753,-8.53612 3.75103,5.15514 9.81202,8.53612 16.63681,8.53612 5.6593,0 10.80537,-2.31445 14.53564,-6.04468 l -0.03,-0.03 0.012,0 0,-13.29209 -8.23213,0 0,9.43016 c -1.83753,1.07986 -3.97998,1.7063 -6.28533,1.7063 -6.86919,0 -12.35281,-5.47901 -12.35281,-12.34813 0,-6.86912 5.48362,-12.35269 12.35281,-12.35269 3.43459,0 6.52107,1.36917 8.7495,3.59871 l 5.78614,-5.78152 c -3.73039,-3.73149 -8.87646,-6.04942 -14.53576,-6.04942 -6.82521,0 -12.88584,3.38368 -16.63681,8.54074 -3.74959,-5.15754 -9.811187,-8.54074 -16.636813,-8.54074 -11.318543,0 -20.584935,9.26636 -20.584935,20.5848 0,3.06185 0.69713,5.96338 1.910553,8.58154 -2.238929,2.31925 -5.372566,3.76659 -8.885697,3.76659 -6.869185,0 -12.34825,-5.47901 -12.34825,-12.34813 0,-6.86912 5.479065,-12.35269 12.34825,-12.35269 2.052751,0 3.977345,0.49619 5.672682,1.36599 1.253802,-2.47843 2.902039,-4.72213 4.883032,-6.63471 -3.094757,-1.86632 -6.699027,-2.96339 -10.555714,-2.96339 z m 195.403082,8.22761 c 6.86913,0 12.34825,5.47901 12.34825,12.34813 0,6.86912 -5.47912,12.35269 -12.34825,12.35269 -6.86918,0 -12.34831,-5.48357 -12.34831,-12.35269 0,-6.86912 5.47913,-12.34813 12.34831,-12.34813 z m -167.842943,0.005 c 6.869126,0 12.348253,5.48357 12.348253,12.35269 0,6.86912 -5.479127,12.34813 -12.348253,12.34813 -6.869185,0 -12.348309,-5.47901 -12.348309,-12.34813 0,-6.86912 5.479124,-12.35269 12.348309,-12.35269 z M 159.44738,53.156425 c -58.58073,0 -106.299274,47.718145 -106.299274,106.298325 0,58.58017 47.718544,106.29832 106.299274,106.29832 58.58073,0 106.29933,-47.71815 106.29933,-106.29832 0,-58.58018 -47.7186,-106.298325 -106.29933,-106.298325 z m -17.12082,22.968245 16.67551,88.84947 -12.90217,2.42574 7.72256,41.04984 -26.82383,5.02723 4.95695,26.42512 C 98.445321,228.50456 74.417333,196.90455 74.417333,159.45475 c 0,-41.22492 29.070977,-75.444644 67.909227,-83.33008 z m 48.71416,4.382718 c 31.35551,12.506828 53.44847,43.041912 53.44847,78.947362 0,39.91071 -27.29543,73.16373 -64.27646,82.40436 l -5.33194,-28.38216 26.82383,-5.06238 -7.6874,-41.01469 12.90216,-2.42574 -15.87866,-84.466752 z m -48.44465,49.838682 -19.30053,4.30064 18.7966,9.17558 0.50399,-13.47622 z m 46.53452,0.86716 -0.41039,10.76926 -15.04672,-7.33578 15.45687,-3.43348 z" />
</svg>
